<?xml version="1.0" encoding="utf-8"?>
<!-- Generator: Adobe Illustrator 27.5.0, SVG Export Plug-In . SVG Version: 6.00 Build 0)  -->
<svg version="1.1" xmlns="http://www.w3.org/2000/svg" xmlns:xlink="http://www.w3.org/1999/xlink" x="0px" y="0px"
	 viewBox="0 0 500 500" style="enable-background:new 0 0 500 500;" xml:space="preserve">
<g id="BACKGROUND">
	<rect style="fill:#FFFFFF;stroke:#FFFFFF;stroke-miterlimit:10;" width="500" height="500"/>
</g>
<g id="OBJECTS">
	<g>
		<path style="fill:#E5E5E5;" d="M377.896,363.661c16.962,2.181,34.145-2.921,46.832-14.388c10.63-9.608,17.174-22.577,0.831-36.023
			c-39.113-32.18-36.014-58.18-17.972-76.581c18.043-18.401,63.905-55.619,35.673-88.631
			c-28.233-33.012-103.911,3.06-115.314-35.178c-11.402-38.238-31.899-69.886-68.129-75.819
			c-29.858-4.889-70.948,7.293-79.095,44.585c-8.068,36.932,38.04,34.871-5.627,94.458c-25.68,35.043,16.975,110.115,55.556,94.703
			c38.581-15.411,85.764,8.259,87.419,51.769C319.162,351.249,354.175,360.612,377.896,363.661z"/>
		<path style="fill:#E5E5E5;" d="M154.435,149.488c0.383-4.531,2.569-8.756,6.154-11.553c3.636-2.836,8.929-4.532,15.556,0.031
			c13.254,9.126-7.624,35.662-15.869,30.855C153.505,164.874,153.809,156.897,154.435,149.488z"/>
		<path style="fill:#E5E5E5;" d="M360.629,109.725c-3.967-2.222-6.91-5.959-7.974-10.38c-1.079-4.483-0.435-10.004,6.46-14.151
			c13.79-8.295,28.6,19.749,23.77,27.981C379.384,119.141,367.116,113.36,360.629,109.725z"/>
		<path style="fill:#E5E5E5;" d="M457.652,237.876c-0.434,2.799-1.975,5.329-4.324,6.911c-2.382,1.605-5.745,2.429-9.665-0.694
			c-7.84-6.245,3.863-20.066,9.718-19.037C457.625,225.803,458.363,233.3,457.652,237.876z"/>
	</g>
	<g>
		<g>
			
				<ellipse transform="matrix(0.4163 -0.9092 0.9092 0.4163 -142.3345 480.8489)" style="fill:#E5E5E5;" cx="303.346" cy="351.283" rx="24.367" ry="68.18"/>
			<g>
				<g>
					<g>
						<path style="fill:#3A4059;" d="M260.581,345.447l52.054,30.054c2.225,1.285,4.968,1.285,7.192,0l25.501-14.723
							c3.747-2.164,4.565-6.863,2.456-10.135c-0.587-0.914-1.406-1.716-2.453-2.32l-51.956-30.02
							c-2.219-1.282-4.953-1.287-7.178-0.012l-25.599,14.692c-1.056,0.605-1.88,1.412-2.471,2.332
							C256.018,338.584,256.834,343.282,260.581,345.447z"/>
						<path style="fill:#51557C;" d="M258.127,335.315c0.587,0.914,1.406,1.716,2.453,2.32l52.054,30.054
							c2.225,1.284,4.968,1.284,7.192,0l25.501-14.723c1.047-0.605,1.866-1.409,2.456-2.323c-0.587-0.914-1.406-1.716-2.453-2.32
							l-51.956-30.02c-2.219-1.282-4.953-1.287-7.178-0.012l-25.599,14.692C259.542,333.587,258.717,334.395,258.127,335.315z"/>
					</g>
					<g>
						<polygon style="fill:#252B3D;" points="292.778,287.916 292.778,334.149 305.881,341.789 305.976,353.539 308.951,355.272 
							308.953,355.269 319.233,349.575 319.233,303.524 						"/>
						<polygon style="fill:#3A4059;" points="282.498,293.615 282.498,339.848 305.976,353.539 308.951,355.272 308.953,355.275 
							308.953,308.88 292.778,299.546 						"/>
					</g>
				</g>
				<g>
					<g>
						<g>
							<path style="fill:#252B3D;" d="M205.846,50.238v179.47c0,3.113,1.661,5.992,4.357,7.548l221.618,127.951
								c5.809,3.353,13.071-0.839,13.071-7.548V178.504c0-1.985-0.677-3.874-1.866-5.387c-0.596-0.761-1.322-1.424-2.161-1.959
								c-0.104-0.067-0.211-0.133-0.321-0.197l-12.117-7.013L218.923,42.695C213.114,39.333,205.846,43.526,205.846,50.238z"/>
							<path style="fill:#252B3D;" d="M440.38,365.29l-15.384,7.63l3.55-9.604C428.546,363.316,435.532,365.504,440.38,365.29z"/>
						</g>
						<path style="fill:#3A4059;" d="M189.35,50.865v9.174l16.347,9.305l206.064,117.293l16.141-6.857l14.975-6.643
							c-0.596-0.761-1.322-1.423-2.161-1.959l-12.438-7.21L213.963,39.741c-3.385-1.961-7.557-1.99-10.968-0.069l-10.002,5.621
							l-1.059,0.596C190.404,46.959,189.35,48.73,189.35,50.865z"/>
					</g>
					<path style="fill:#51557C;" d="M189.5,50.845v185.557c0,2.171,1.157,4.179,3.041,5.267l226.884,130.99
						c4.054,2.341,9.122-0.582,9.122-5.264V182.159c0-2.169-1.157-4.174-3.036-5.262l-0.323-0.189L198.63,45.581
						c-1.807-1.045-3.815-1.045-5.487-0.307c-0.369,0.163-0.726,0.362-1.059,0.597C190.554,46.939,189.5,48.71,189.5,50.845z"/>
					<g>
						<path style="fill:#FFFFFF;" d="M198.133,59.88v174.962c0,0.778,0.42,1.504,1.094,1.895L413.16,360.25
							c0.344,0.2,0.712,0.301,1.085,0.301c1.056,0,2.196-0.839,2.196-2.196V183.696c0-0.778-0.419-1.502-1.094-1.892L201.416,57.988
							c-0.347-0.202-0.712-0.304-1.088-0.304C199.272,57.684,198.133,58.523,198.133,59.88z"/>
						<g>
							<path style="opacity:0.1;fill:#252B3D;" d="M198.133,59.88v8.303l218.308,126.29v-10.777c0-0.778-0.419-1.502-1.094-1.892
								L201.416,57.988c-0.347-0.202-0.712-0.304-1.088-0.304C199.272,57.684,198.133,58.523,198.133,59.88z"/>
							<g>
								<path style="fill:#FF7A8C;" d="M408.098,184.526c0.077,1.457,1.004,2.637,2.069,2.637c1.066,0,1.867-1.181,1.79-2.637
									c-0.077-1.456-1.004-2.637-2.069-2.637C408.822,181.888,408.021,183.069,408.098,184.526z"/>
								<path style="fill:#3A4059;" d="M401.951,181.416c0.077,1.457,1.004,2.637,2.069,2.637c1.065,0,1.867-1.181,1.789-2.637
									c-0.077-1.457-1.004-2.637-2.069-2.637C402.674,178.778,401.873,179.959,401.951,181.416z"/>
								<path style="fill:#D5243A;" d="M396.49,178.386c0.077,1.456,1.004,2.637,2.069,2.637c1.065,0,1.867-1.181,1.789-2.637
									c-0.077-1.457-1.004-2.637-2.069-2.637C397.214,175.749,396.412,176.93,396.49,178.386z"/>
							</g>
						</g>
					</g>
					<path style="fill:#51557C;" d="M198.133,214.264v20.646c0,0.778,0.42,1.505,1.094,1.895L413.16,360.317
						c0.344,0.2,0.712,0.301,1.085,0.301c1.056,0,2.196-0.839,2.196-2.196v-18.12L198.133,214.264z"/>
					<path style="fill:#6B749B;" d="M288.915,283.966c0.231,4.36,3.004,7.895,6.194,7.895c3.19,0,5.588-3.535,5.357-7.895
						c-0.231-4.36-3.004-7.895-6.194-7.895C291.082,276.071,288.684,279.606,288.915,283.966z"/>
				</g>
			</g>
		</g>
		<g>
			<path style="opacity:0.1;fill:#252B3D;" d="M374.267,197.225c-0.002-0.37-0.088-0.727-0.247-1.048
				c-0.203-0.412-0.524-0.764-0.936-1.001l-112.563-65.14c-0.629-0.363-1.32-0.403-1.926-0.2c-0.051,0.016-0.1,0.033-0.149,0.054
				l-11.992,4.302c-0.232,0.047-0.455,0.123-0.662,0.234c-0.004,0.002-0.008,0.005-0.013,0.008l-0.011,0.004l0.002,0.001
				c-0.713,0.39-1.23,1.137-1.232,2.066l-0.005,1.218l-0.221,72.428l-0.009,2.939l-0.051,16.768
				c-0.002,0.85,0.449,1.637,1.183,2.061l112.947,65.208c0.694,0.401,1.464,0.405,2.11,0.13l0,0l12.127-4.319l0.305-0.109
				c0.82-0.352,1.439-1.16,1.437-2.18L374.267,197.225z M361.93,287.578v-0.005l0.001,0.001L361.93,287.578z"/>
			<g>
				<path style="fill:#D5243A;" d="M245.626,124.138l-0.261,85.144c-0.002,0.85,0.449,1.635,1.185,2.058l98.54,56.893l5.526,3.19
					l-1.437,9.682l12.127-4.319l0.305-0.109c0.82-0.352,1.439-1.16,1.437-2.18l-0.095-93.422c-0.002-0.37-0.088-0.727-0.247-1.048
					c-0.203-0.412-0.524-0.764-0.936-1.001l-112.563-65.14c-0.629-0.363-1.32-0.403-1.926-0.2c-0.051,0.016-0.1,0.033-0.149,0.054
					l-12.676,4.548L245.626,124.138z"/>
				<path style="fill:#B11118;" d="M350.616,271.423l-1.437,9.682l12.127-4.319l0.305-0.109c0.82-0.352,1.439-1.16,1.437-2.18
					l-0.095-93.422c-0.002-0.37-0.088-0.727-0.247-1.048l-16.097,5.5l-1.518,82.706L350.616,271.423z"/>
				<path style="fill:#FF4A67;" d="M232.94,213.706c-0.002,0.85,0.449,1.637,1.183,2.061l112.947,65.208
					c1.581,0.913,3.556-0.228,3.553-2.054l-0.007-6.669l-0.005-5.355l-0.084-81.037v-0.361c-0.002-0.845-0.452-1.625-1.183-2.047
					l-0.165-0.095l-112.397-65.045c-0.764-0.443-1.623-0.403-2.303-0.037c-0.724,0.386-1.25,1.141-1.253,2.079l-0.005,1.218L233,194
					l-0.009,2.939L232.94,213.706z"/>
				<g>
					<path style="fill:#D5243A;" d="M305.792,199.093l44.824,73.159l-0.005-5.355l-42.437-69.264
						c-0.403-0.659-1.262-0.866-1.921-0.461C305.597,197.575,305.389,198.434,305.792,199.093z"/>
				</g>
				<g>
					<path style="fill:#D5243A;" d="M232.991,196.939l39.482-12.756c0.733-0.238,1.136-1.025,0.899-1.758
						c-0.235-0.736-1.025-1.139-1.758-0.901L233,194L232.991,196.939z"/>
				</g>
				<g>
					<path style="fill:#D5243A;" d="M233.222,121.572l52.187,85.179l65.119-20.891v-0.361c-0.002-0.845-0.452-1.625-1.183-2.047
						l-0.165-0.095l-62.537,20.065l-52.163-85.147c-0.724,0.386-1.25,1.141-1.253,2.079L233.222,121.572z"/>
				</g>
			</g>
		</g>
	</g>
	<g>
		
			<ellipse transform="matrix(0.9563 -0.2925 0.2925 0.9563 -84.311 42.0433)" style="fill:#E5E5E5;" cx="98.442" cy="302.967" rx="28.082" ry="12.741"/>
		<g>
			<g>
				<path style="fill:#D5243A;" d="M117.942,132.154c0.01,0.086,0.023,0.172,0.04,0.26c0.021,0.145,0.048,0.294,0.08,0.443
					c1.606,7.908,13.164,21.105,13.164,21.105l5.932-3.465c-5.632-7.559-11.864-23.228-11.864-23.228l-3.908,2.595L117.942,132.154z
					"/>
				<g>
					<g>
						<path style="fill:#D5243A;" d="M113.366,122.713c0.724,3.622,2.541,6.847,4.326,9.311c0.099,0.132,0.193,0.262,0.29,0.391
							c0.078,0.103,0.153,0.204,0.229,0.302c0.521,0.678,1.029,1.289,1.497,1.82c0.815-1.018,1.711-1.963,2.545-2.967
							c0.668-0.804,1.199-1.711,1.785-2.572c0.388-0.573,0.8-1.172,1.256-1.728c-3.797-8.328-9.212-26.172-9.212-26.172
							S111.743,114.604,113.366,122.713z"/>
					</g>
				</g>
				<g>
					<path style="fill:#B11118;" d="M117.692,132.024c0.099,0.132,0.193,0.262,0.29,0.391c0.021,0.145,0.048,0.294,0.08,0.443
						c0.048-0.046,0.097-0.092,0.149-0.141c0.75-0.691,1.858-1.531,3.223-2.028c0.164-0.061,0.269-0.208,0.281-0.37
						c0.006-0.061-0.002-0.122-0.023-0.181c-0.05-0.141-0.168-0.239-0.307-0.273c-0.078-0.017-0.164-0.013-0.246,0.017
						C119.683,130.415,118.503,131.287,117.692,132.024z"/>
				</g>
			</g>
			<g>
				<g>
					<g>
						<g>
							<g>
								<g>
									<path style="fill:#FF4A67;" d="M78.532,293.171c-0.945,0.311-1.625,1.164-1.773,2.167c-0.13,0.877-0.233,2.13-0.182,3.793
										c0.114,3.709,0.16,5.222,0.16,5.222s1.119,1.956,4.337,2.488l0.947,0.133c0,0,7.283,4.378,10.684,4.715
										c4.438,0.439,8.973-1.601,5.303-5.919c-3.467-4.078-8.564-5.711-10.07-8.978c-0.176-0.381-1.313-1.193-1.602-1.493
										C83.875,292.753,81.984,292.033,78.532,293.171z"/>
								</g>
							</g>
						</g>
						<g>
							<g>
								<g>
									<path style="fill:#FFFFFF;" d="M85.967,301.007c0.161,0,0.313-0.094,0.38-0.251c0.005-0.012,0.567-1.284,1.613-1.632
										c1.002-0.334,2.077,0.538,2.088,0.547c0.176,0.145,0.437,0.12,0.582-0.055c0.146-0.176,0.122-0.436-0.053-0.581
										c-0.058-0.048-1.436-1.176-2.878-0.695c-1.401,0.467-2.083,2.025-2.111,2.091c-0.09,0.21,0.007,0.453,0.217,0.543
										C85.858,300.996,85.913,301.007,85.967,301.007z"/>
								</g>
							</g>
							<g>
								<g>
									<path style="fill:#FFFFFF;" d="M87.415,302.042c0.161,0,0.313-0.094,0.38-0.251c0.005-0.012,0.567-1.284,1.613-1.632
										c1.002-0.335,2.077,0.538,2.088,0.547c0.176,0.145,0.437,0.12,0.582-0.055c0.145-0.176,0.122-0.436-0.053-0.581
										c-0.058-0.048-1.435-1.176-2.878-0.695c-1.401,0.467-2.083,2.025-2.111,2.091c-0.09,0.21,0.007,0.453,0.217,0.543
										C87.306,302.031,87.361,302.042,87.415,302.042z"/>
								</g>
							</g>
							<g>
								<g>
									<path style="fill:#FFFFFF;" d="M89.067,302.967c0.161,0,0.313-0.094,0.38-0.251c0.005-0.012,0.567-1.284,1.613-1.632
										c1.001-0.335,2.077,0.538,2.088,0.547c0.176,0.145,0.437,0.12,0.582-0.055c0.145-0.176,0.122-0.436-0.053-0.581
										c-0.058-0.048-1.435-1.177-2.878-0.695c-1.401,0.467-2.083,2.025-2.111,2.091c-0.09,0.21,0.007,0.453,0.217,0.543
										C88.957,302.956,89.012,302.967,89.067,302.967z"/>
								</g>
							</g>
						</g>
					</g>
					<g>
						<path style="fill:#FCB38F;" d="M79.001,285.955l-0.376,9.165c0,0,2.31,2.354,5.901,0.796l0.89-9.897
							C85.416,286.018,81.538,284.637,79.001,285.955z"/>
					</g>
				</g>
				<g>
					<path style="fill:#51557C;" d="M76.875,235.324c2.896-15.102,0.602-38.983,0.382-49.982l24.306,3.738l0.72,15.007
						c-0.011-0.054-1.808,0.124-1.819,0.07c0,0-1.05-0.463-2.283-0.415c-1.73,0.067-2.255,2.934-2.485,3.756
						c-0.851,10.841-0.897,24.118-1.872,32.395c-1.93,16.377-8.053,52.735-8.053,52.735c-2.957,0.647-4.683,0.485-7.654-0.621
						C78.117,292.008,75.05,244.841,76.875,235.324z"/>
				</g>
				<g>
					<path style="fill:#252B3D;" d="M79.597,291.51c0.002,0,0.004,0,0.006,0c0.26-0.003,0.468-0.217,0.465-0.477
						c-0.022-1.677-0.545-41.105-0.855-44.075c-0.317-3.031,0.667-13.916,1.633-19.829c0.685-4.189,0.198-23.889,0.177-24.726
						c-0.006-0.256-0.216-0.459-0.47-0.459c-0.004,0-0.008,0-0.012,0c-0.26,0.007-0.465,0.223-0.459,0.482
						c0.005,0.204,0.506,20.448-0.165,24.55c-0.975,5.966-1.964,16.985-1.64,20.079c0.307,2.928,0.845,43.58,0.85,43.99
						C79.13,291.304,79.34,291.51,79.597,291.51z"/>
				</g>
				<g>
					<path style="fill:#6B749B;" d="M86.522,289.658c0,0-5.183,0.552-9.107-0.483c-0.303,1.542-0.137,3.161,0.224,4.04
						c0,0,4.682,1.216,8.448,0.297C86.523,292.361,86.854,291.005,86.522,289.658z"/>
				</g>
			</g>
			<g>
				<g>
					<g>
						<g>
							<path style="fill:#FF4A67;" d="M99.716,286.581c-0.945,0.311-1.625,1.165-1.773,2.167c-0.13,0.877-0.233,2.13-0.182,3.793
								c0.114,3.709,0.16,5.222,0.16,5.222s1.119,1.956,4.337,2.488l0.947,0.133c0,0,7.283,4.378,10.684,4.715
								c4.438,0.439,8.973-1.601,5.303-5.919c-3.467-4.077-8.564-5.711-10.07-8.978c-0.176-0.381-1.313-1.193-1.602-1.493
								C105.06,286.164,103.169,285.444,99.716,286.581z"/>
						</g>
						<g>
							<g>
								<g>
									<path style="fill:#FFFFFF;" d="M107.152,294.418c0.161,0,0.313-0.094,0.38-0.251c0.005-0.012,0.567-1.284,1.613-1.632
										c1.002-0.334,2.077,0.538,2.088,0.547c0.176,0.145,0.437,0.12,0.582-0.055c0.146-0.176,0.122-0.436-0.053-0.581
										c-0.058-0.048-1.436-1.176-2.878-0.695c-1.401,0.467-2.083,2.025-2.111,2.091c-0.09,0.21,0.007,0.453,0.217,0.543
										C107.042,294.407,107.098,294.418,107.152,294.418z"/>
								</g>
							</g>
							<g>
								<g>
									<path style="fill:#FFFFFF;" d="M108.6,295.452c0.161,0,0.313-0.094,0.38-0.251c0.005-0.012,0.567-1.284,1.613-1.632
										c1.002-0.335,2.077,0.538,2.088,0.547c0.176,0.145,0.437,0.12,0.582-0.055c0.145-0.175,0.122-0.435-0.053-0.581
										c-0.058-0.048-1.435-1.176-2.878-0.695c-1.401,0.467-2.083,2.025-2.111,2.091c-0.09,0.21,0.007,0.453,0.217,0.543
										C108.49,295.441,108.546,295.452,108.6,295.452z"/>
								</g>
							</g>
							<g>
								<g>
									<path style="fill:#FFFFFF;" d="M110.251,296.378c0.161,0,0.313-0.094,0.381-0.251c0.005-0.012,0.567-1.284,1.613-1.632
										c1.002-0.335,2.077,0.538,2.088,0.547c0.176,0.145,0.437,0.12,0.582-0.055c0.145-0.176,0.122-0.436-0.053-0.581
										c-0.058-0.048-1.435-1.177-2.878-0.695c-1.401,0.467-2.083,2.025-2.111,2.091c-0.09,0.21,0.007,0.453,0.217,0.543
										C110.141,296.367,110.197,296.378,110.251,296.378z"/>
								</g>
							</g>
						</g>
					</g>
					<g>
						<path style="fill:#FCB38F;" d="M100.185,279.366l-0.376,9.165c0,0,2.31,2.354,5.901,0.796l0.89-9.897
							C106.6,279.429,102.723,278.047,100.185,279.366z"/>
					</g>
				</g>
				<g>
					<path style="fill:#51557C;" d="M116.926,201.886c-0.848,10.788-2.597,22.984-3.567,31.223
						c-1.93,16.377-6.402,52.931-6.402,52.931c-2.957,0.647-4.683,0.485-7.654-0.621c0,0-3.226-47.326-2.16-56.958
						c1.749-15.809,1.754-31.729,1.534-42.727l19.401-2.764L116.926,201.886z"/>
				</g>
				<g>
					<path style="fill:#252B3D;" d="M101.856,201.565c-0.263,0-0.476,0.214-0.472,0.477c0.094,6.367,0.148,15.704-0.284,18.346
						c-0.975,5.966-1.964,16.985-1.64,20.079c0.307,2.928,0.845,43.58,0.85,43.99c0.004,0.258,0.214,0.464,0.47,0.464h0.006
						c0.26-0.003,0.468-0.217,0.465-0.477c-0.022-1.677-0.545-41.105-0.855-44.075c-0.317-3.031,0.667-13.916,1.633-19.829
						c0.448-2.741,0.395-12.12,0.298-18.513C102.324,201.77,102.114,201.565,101.856,201.565L101.856,201.565z"/>
				</g>
				<g>
					<path style="fill:#6B749B;" d="M107.706,283.069c0,0-5.183,0.551-9.107-0.483c-0.303,1.542-0.137,3.161,0.224,4.04
						c0,0,4.682,1.216,8.448,0.297C107.708,285.772,108.039,284.416,107.706,283.069z"/>
				</g>
			</g>
			<g>
				<path style="fill:#FF4A67;" d="M116.081,101.098c-5.996-1.248-16.117-2.015-21.51-0.137c-7.599,2.647-11.245,5.175-16.417,8.861
					c-0.18,2.989-1.052,17.315-1.093,20.479c-0.009,0.763-0.012,1.518-0.008,2.255c0,0.311,0.003,0.616,0.009,0.92
					c0.143,9.672-1.059,31.217-1.275,36.42c-0.389,9.359-0.729,14.229-0.504,14.815c1.296,3.376,9.78,6.493,22.373,5.763
					c12.592-0.732,18.756-1.01,20.127-5.64c1.37-4.628,0.657-8.167-0.778-21.926C115.793,151.306,115.838,111.171,116.081,101.098z"
					/>
				<g>
					<path style="fill:#D5243A;" d="M110.4,161.885c0.234,0.066,0.486-0.051,0.582-0.281c0.104-0.249-0.013-0.535-0.261-0.639
						c-0.212-0.089-21.284-9.057-22.474-20.128c-0.029-0.268-0.27-0.462-0.538-0.433c-0.268,0.029-0.462,0.27-0.433,0.538
						c0.529,4.915,4.587,9.937,12.063,14.925c5.514,3.679,10.95,5.976,11.004,5.998C110.362,161.873,110.381,161.879,110.4,161.885z
						"/>
				</g>
				<g>
					<path style="fill:#D5243A;" d="M107.287,163.764c0.256,0.072,0.523-0.074,0.6-0.329c0.078-0.258-0.069-0.53-0.327-0.608
						c-0.068-0.02-6.854-2.09-12.929-6.393c-0.22-0.156-0.525-0.104-0.681,0.116c-0.156,0.22-0.104,0.525,0.116,0.681
						c6.21,4.399,13.143,6.511,13.213,6.531C107.282,163.762,107.284,163.763,107.287,163.764z"/>
				</g>
			</g>
			<g>
				<g>
					<path style="fill:#252B3D;" d="M111.236,75.914c0,0,2.842-6.227-2.95-9.796c-5.792-3.568-11.573-1.245-11.421,0.996
						c0.152,2.24-1.283,0.69-5.71,3.581c-4.427,2.891-5.232,7.405-3.502,10.832C87.652,81.528,96.91,70.608,111.236,75.914z"/>
					<g>
						<path style="fill:#FCB38F;" d="M102.129,98.045l-0.455,4.342l-0.155,1.467c-4.835,1.215-8.563-2.076-8.563-2.076l-0.437-6.707
							c0.087-0.061,0.18-0.112,0.281-0.151C95.408,93.778,102.129,98.045,102.129,98.045z"/>
						<path style="fill:#FD8471;" d="M102.129,98.045l-0.455,4.342c-4.95-1.739-7.664-5.377-8.874-7.468
							C95.408,93.778,102.129,98.045,102.129,98.045z"/>
					</g>
					<g>
						<path style="fill:#FD8471;" d="M109.849,83.833c0,0,2.151-2.565,3.522-0.273c1.371,2.292-1.092,8.709-4.657,6.917
							L109.849,83.833z"/>
						<g>
							<path style="fill:#D6615D;" d="M109.621,88.502c0.135,0.007,0.264-0.075,0.309-0.209c0.675-1.986,2.809-2.69,2.83-2.697
								c0.162-0.052,0.252-0.226,0.2-0.388c-0.051-0.162-0.225-0.252-0.388-0.201c-0.1,0.032-2.45,0.8-3.228,3.087
								c-0.055,0.162,0.032,0.337,0.193,0.392C109.566,88.495,109.594,88.501,109.621,88.502z"/>
						</g>
						<g>
							<path style="fill:#D6615D;" d="M111.785,87.601c0.057,0.003,0.116-0.01,0.17-0.04c0.148-0.084,0.2-0.273,0.115-0.422
								c-0.014-0.024-0.353-0.608-1.107-0.996c-0.151-0.078-0.338-0.018-0.416,0.134c-0.078,0.152-0.018,0.338,0.133,0.416
								c0.583,0.3,0.851,0.749,0.853,0.753C111.588,87.54,111.684,87.595,111.785,87.601z"/>
						</g>
					</g>
					<path style="fill:#FCB38F;" d="M111.313,87.163c-0.045,0.644-0.111,1.247-0.198,1.793c-0.802,4.92-5.101,14.915-13.765,9.848
						c-2.078-1.217-3.624-2.419-4.831-3.733c-0.911-0.989-1.632-2.041-2.248-3.206c-0.238-0.45-0.347-0.956-0.503-1.439
						c-0.028-0.085-0.054-0.172-0.08-0.257c-0.015-0.049-0.03-0.095-0.045-0.144c-0.434-1.41-0.763-2.835-1.02-4.193
						c-0.32-1.694-0.524-3.274-0.651-4.574c-0.234-2.39,0.815-4.722,2.753-6.14c5.247-3.842,11.315-3.351,15.396-2.306
						c2.832,0.725,4.879,3.182,5.077,6.095c0.097,1.382,0.175,2.957,0.201,4.522C111.418,84.718,111.398,86.005,111.313,87.163z"/>
					<path style="fill:#FD8471;" d="M93.21,90.019c0,0-0.895,1.742-2.939,1.846c-0.181-0.475-0.347-0.956-0.503-1.439
						C90.756,90.601,92.268,90.71,93.21,90.019z"/>
					<path style="fill:#252B3D;" d="M92.519,95.071c-0.911-0.989-1.632-2.041-2.248-3.206c-0.238-0.45-0.347-0.956-0.503-1.439
						c-0.028-0.085-0.054-0.172-0.08-0.257c0.209,0.009,0.552,0.075,1.113,0.255C90.801,90.424,93.125,93.071,92.519,95.071z"/>
					<path style="fill:#FFFFFF;" d="M106.108,93.113c-0.423,1.248-1.58,3.496-4.433,3.121c-2.86-0.376-3.379-2.636-3.459-4.158
						L106.108,93.113z"/>
					<path style="fill:#252B3D;" d="M99.83,85.728c-0.038,0.693-0.425,1.236-0.866,1.212c-0.441-0.024-0.768-0.605-0.73-1.299
						c0.038-0.693,0.426-1.236,0.866-1.212C99.541,84.453,99.868,85.035,99.83,85.728z"/>
					<path style="fill:#252B3D;" d="M108.529,86.005c-0.038,0.693-0.425,1.236-0.866,1.212c-0.441-0.024-0.768-0.605-0.73-1.299
						c0.038-0.693,0.425-1.236,0.866-1.212C108.24,84.73,108.567,85.312,108.529,86.005z"/>
					<path style="fill:#252B3D;" d="M94.81,82.096c0,0,2.868-1.619,5.343-0.933l-0.054,1.331c0,0-3.468,0.185-5.099,1.124
						C94.776,83.14,94.684,82.638,94.81,82.096z"/>
					<path style="fill:#252B3D;" d="M110.927,82.72c0,0-2.7-1.885-5.229-1.439l-0.074,1.33c0,0,3.435,0.515,4.968,1.605
						C110.861,83.762,111.001,83.271,110.927,82.72z"/>
					<g>
						<path style="fill:#FD8471;" d="M103.409,91.109c-0.521-0.021-1.029-0.244-1.108-0.28c-0.155-0.071-0.224-0.254-0.153-0.409
							c0.07-0.155,0.254-0.224,0.409-0.153c0.274,0.124,0.937,0.329,1.234,0.167c0.057-0.031,0.136-0.094,0.163-0.281
							c0.155-1.074,0.005-4.7,0.004-4.737c-0.007-0.171,0.125-0.314,0.296-0.322c0.171-0.007,0.314,0.125,0.322,0.296
							c0.006,0.151,0.154,3.721-0.009,4.851c-0.061,0.425-0.294,0.635-0.479,0.736C103.884,91.086,103.645,91.118,103.409,91.109z"
							/>
					</g>
					<g>
						<path style="fill:#FCB38F;" d="M90.336,83.793c0,0-2.343-2.391-3.533,0c-1.19,2.392,1.217,8.398,5.368,6.666L90.336,83.793z"
							/>
						<g>
							<path style="fill:#FD8471;" d="M90.924,88.43c-0.134,0.018-0.269-0.055-0.325-0.185c-0.827-1.928-3.009-2.464-3.031-2.47
								c-0.166-0.039-0.269-0.206-0.23-0.372c0.039-0.166,0.205-0.269,0.371-0.23c0.102,0.024,2.505,0.608,3.457,2.828
								c0.067,0.157-0.005,0.339-0.162,0.406C90.979,88.419,90.952,88.426,90.924,88.43z"/>
						</g>
						<g>
							<path style="fill:#FD8471;" d="M88.697,87.699c-0.057,0.008-0.116-0.001-0.172-0.027c-0.154-0.073-0.221-0.257-0.148-0.411
								c0.012-0.025,0.305-0.634,1.027-1.079c0.145-0.09,0.336-0.045,0.425,0.101c0.09,0.145,0.044,0.335-0.101,0.425
								c-0.558,0.344-0.79,0.812-0.792,0.817C88.89,87.623,88.798,87.686,88.697,87.699z"/>
						</g>
					</g>
					<path style="fill:#252B3D;" d="M88.13,82.733c0,0,1.802-0.32,2.676,0.994c1.091,1.641,1.186,2.826,1.186,2.826l1.408,0.03
						c0,0-1.111-2.597-0.789-4.158c0.322-1.561,1.519-1.938,1.21-3.597c-0.309-1.659,0.5-3.762,2.22-4.047
						c1.72-0.285,9.183-0.801,11.811,0.389c2.628,1.19,2.13,3.945,2.801,4.951c0.671,1.006,0.747,3.365,0.747,3.365l0,0
						c0.412-0.576,0.637-1.262,0.65-1.969c0.016-0.854-0.013-2.164-0.212-3.856c-0.374-3.177-4.967-6.963-11.976-6.965
						c-7.009-0.002-11.191,3.307-12.091,6.731C86.871,80.851,88.13,82.733,88.13,82.733z"/>
					<g>
						<g>
							<g>
								<path style="fill:#FFFFFF;" d="M101.717,85.999c-0.097,1.777-1.622,3.144-3.4,3.047c-1.777-0.097-3.144-1.622-3.047-3.4
									c0.097-1.777,1.623-3.144,3.4-3.047C100.447,82.697,101.814,84.222,101.717,85.999z M91.296,84.549
									c0.085-0.003,0.184-0.01,0.204-0.007c0.468,0.022,0.904,0.07,1.275,0.127c0.339,0.047,0.625,0.104,0.834,0.149
									c0-0.015,0.797,0.154,1.13,0.299c-0.03,0.162-0.055,0.329-0.065,0.495c-0.115,2.106,1.504,3.913,3.61,4.028
									c2.106,0.117,3.913-1.504,4.028-3.607c0.115-2.106-1.504-3.913-3.61-4.028c-1.67-0.092-3.152,0.911-3.749,2.382
									c-0.488-0.102-1.581-0.324-2.325-0.443c-0.219-0.035-0.408-0.062-0.545-0.075c-0.284-0.025-0.812-0.105-1.232-0.097
									c0.01,0.022,0.017,0.045,0.027,0.065L91.296,84.549z"/>
							</g>
						</g>
						<g>
							<g>
								<path style="fill:#FFFFFF;" d="M108.721,90.213c-2.105-0.115-3.725-1.922-3.609-4.028c0.115-2.106,1.922-3.725,4.028-3.609
									c2.105,0.115,3.724,1.922,3.609,4.028C112.634,88.709,110.827,90.328,108.721,90.213z M109.107,83.171
									c-1.777-0.097-3.302,1.269-3.4,3.047c-0.097,1.777,1.269,3.302,3.047,3.4c1.777,0.097,3.302-1.269,3.4-3.047
									C112.251,84.794,110.884,83.268,109.107,83.171z"/>
							</g>
						</g>
						<g>
							<g>
								<path style="fill:#FFFFFF;" d="M105.369,85.339c-0.006-0.009-0.661-1.005-1.591-1.056c-0.92-0.05-1.612,0.869-1.619,0.878
									l-0.48-0.353c0.036-0.049,0.886-1.189,2.132-1.121c1.237,0.068,2.027,1.278,2.06,1.329L105.369,85.339z"/>
							</g>
						</g>
					</g>
				</g>
			</g>
			<g>
				<polygon style="fill:#6B749B;" points="139.518,133.164 108.671,150.974 88.106,139.101 118.765,121.183 				"/>
				<g>
					<defs>
						<polygon id="SVGID_1_" points="93.452,139.087 108.671,147.873 134.147,133.164 133.591,111.586 120.015,106.782 
							92.745,121.116 						"/>
					</defs>
					<clipPath id="SVGID_00000171678752428108994330000005682187414424831391_">
						<use xlink:href="#SVGID_1_"  style="overflow:visible;"/>
					</clipPath>
					<polygon style="clip-path:url(#SVGID_00000171678752428108994330000005682187414424831391_);fill:#252B3D;" points="
						134.147,133.164 118.773,124.288 93.452,139.087 108.671,147.873 					"/>
					<g style="clip-path:url(#SVGID_00000171678752428108994330000005682187414424831391_);">
						<path style="fill:#E5E5E5;" d="M119.359,124.596l0.046,15.019c0,0.15-0.079,0.288-0.209,0.363l-17.382,10.035l-0.975,0.563
							l0.253,1.708l-2.139-0.762l-0.054-0.019c-0.145-0.062-0.254-0.205-0.254-0.385l0.017-16.479c0-0.065,0.016-0.128,0.044-0.185
							c0.036-0.073,0.092-0.135,0.165-0.177l19.855-11.49c0.111-0.064,0.233-0.071,0.34-0.035c0.009,0.003,0.018,0.006,0.026,0.009
							l2.236,0.802L119.359,124.596z"/>
						<path style="fill:#C6C6C6;" d="M100.839,150.576l0.253,1.708l-2.139-0.762l-0.054-0.019c-0.145-0.062-0.254-0.205-0.254-0.385
							l0.017-16.479c0-0.065,0.016-0.128,0.044-0.185l2.839,0.97l0.268,14.589L100.839,150.576z"/>
						<path style="fill:#FFFFFF;" d="M121.597,140.395c0,0.15-0.079,0.289-0.209,0.363l-19.923,11.502
							c-0.279,0.161-0.627-0.04-0.627-0.362l0.001-1.176l0.001-0.945l0.015-14.295v-0.064c0-0.149,0.08-0.287,0.209-0.361
							l0.029-0.017l19.826-11.474c0.135-0.078,0.286-0.071,0.406-0.007c0.128,0.068,0.22,0.201,0.221,0.367l0.001,0.215
							l0.039,12.776l0.002,0.518L121.597,140.395z"/>
						<g>
							<path style="fill:#E5E5E5;" d="M108.746,137.818l-7.907,12.905l0.001-0.945l7.486-12.218
								c0.071-0.116,0.223-0.153,0.339-0.081C108.78,137.55,108.817,137.701,108.746,137.818z"/>
						</g>
						<g>
							<path style="fill:#E5E5E5;" d="M121.588,137.438l-6.965-2.25c-0.129-0.042-0.2-0.181-0.159-0.31
								c0.042-0.13,0.181-0.201,0.31-0.159l6.811,2.201L121.588,137.438z"/>
						</g>
						<g>
							<path style="fill:#E5E5E5;" d="M121.547,124.143l-9.206,15.025l-11.487-3.685v-0.064c0-0.149,0.08-0.287,0.209-0.361
								l0.029-0.017l11.031,3.539l9.201-15.02c0.128,0.068,0.22,0.201,0.221,0.367L121.547,124.143z"/>
						</g>
					</g>
					<g style="clip-path:url(#SVGID_00000171678752428108994330000005682187414424831391_);">
						<path style="fill:#E5E5E5;" d="M128.386,127.688l0.046,15.019c0,0.15-0.079,0.288-0.209,0.363l-17.382,10.035l-0.975,0.563
							l0.253,1.708l-2.139-0.762l-0.054-0.019c-0.145-0.062-0.254-0.205-0.253-0.384l0.017-16.479c0-0.065,0.016-0.128,0.043-0.185
							c0.036-0.073,0.092-0.135,0.165-0.177l19.856-11.49c0.111-0.064,0.233-0.071,0.34-0.035c0.009,0.003,0.018,0.006,0.026,0.009
							l2.236,0.802L128.386,127.688z"/>
						<path style="fill:#C6C6C6;" d="M109.866,153.668l0.253,1.708l-2.139-0.762l-0.054-0.019c-0.145-0.062-0.254-0.205-0.253-0.384
							l0.017-16.479c0-0.065,0.016-0.128,0.043-0.185l2.84,0.97l0.268,14.589L109.866,153.668z"/>
						<path style="fill:#FFFFFF;" d="M130.623,143.487c0,0.15-0.079,0.289-0.209,0.363l-19.923,11.502
							c-0.279,0.161-0.627-0.04-0.627-0.362l0.001-1.176l0.001-0.945l0.015-14.295v-0.064c0-0.149,0.08-0.287,0.209-0.361
							l0.029-0.017l19.826-11.474c0.135-0.078,0.286-0.071,0.406-0.007c0.128,0.068,0.221,0.201,0.221,0.367l0.001,0.215
							l0.039,12.776l0.002,0.518L130.623,143.487z"/>
						<g>
							<path style="fill:#E5E5E5;" d="M117.773,140.91l-7.907,12.905l0.001-0.945l7.486-12.218c0.071-0.116,0.223-0.153,0.339-0.081
								C117.807,140.642,117.844,140.793,117.773,140.91z"/>
						</g>
						<g>
							<path style="fill:#E5E5E5;" d="M130.614,140.529l-6.965-2.25c-0.129-0.042-0.201-0.181-0.159-0.31
								c0.041-0.13,0.181-0.201,0.31-0.159l6.811,2.201L130.614,140.529z"/>
						</g>
						<g>
							<path style="fill:#E5E5E5;" d="M130.574,127.235l-9.206,15.025l-11.487-3.685v-0.064c0-0.149,0.08-0.287,0.209-0.361
								l0.029-0.017l11.031,3.539l9.201-15.02c0.128,0.068,0.221,0.201,0.221,0.367L130.574,127.235z"/>
						</g>
					</g>
				</g>
				<polygon style="fill:#3A4059;" points="139.518,133.164 139.518,168.783 108.671,186.593 108.671,150.974 				"/>
				<g>
					<path style="fill:#51557C;" d="M131.211,159.918l0.096,4.441l-10.938,6.105l-0.076-3.519l4.81-8.432
						c0.912-1.614,1.035-2.346,1.022-2.928c-0.018-0.825-0.477-1.084-1.355-0.594c-0.819,0.457-1.587,1.45-1.974,2.698l-3.517-0.223
						c0.944-2.885,2.879-5.586,5.823-7.229c3.237-1.807,5.563-0.993,5.632,2.235c0.036,1.675-0.282,3.375-2.223,6.718l-1.902,3.297
						L131.211,159.918z"/>
				</g>
				<polygon style="fill:#252B3D;" points="108.671,186.593 88.106,174.475 88.106,139.101 108.671,150.974 				"/>
			</g>
			<g>
				<g>
					<g>
						<g>
							<g>
								<path style="fill:#D5243A;" d="M76.212,148.384c2.877-0.409,6.114-1.591,8.957-2.211c-0.068-0.349-0.136-0.724-0.201-1.121
									c-0.024-0.138-0.046-0.281-0.07-0.426c-0.027-0.182-0.056-0.366-0.082-0.555c-1.664-11.188-2.709-36.999-2.709-36.999
									s-7.84,3.54-9.027,13.003C72.291,126.389,74.817,141.33,76.212,148.384z"/>
							</g>
						</g>
					</g>
				</g>
				<path style="fill:#D5243A;" d="M76.212,148.384c0.749,7.2,19.076,26.414,25.566,30.801l1.861-7.857
					c-13.094-17.418-17.537-24.644-18.515-26.31c-0.157-0.269-0.225-0.392-0.225-0.392l-4.129,1.787L76.212,148.384z"/>
				<g>
					<g>
						<g>
							<path style="fill:#B11118;" d="M80.714,146.34c0.017,0.027,0.036,0.051,0.056,0.073c0.029,0.029,0.061,0.056,0.095,0.078
								c0.157,0.099,0.366,0.106,0.535-0.002c1.196-0.77,2.497-1.199,3.569-1.436c0.053-0.012,0.104-0.024,0.155-0.034
								c-0.157-0.269-0.225-0.392-0.225-0.392c-0.027-0.182-0.056-0.366-0.082-0.555c-1.174,0.252-2.61,0.722-3.952,1.584
								C80.634,145.805,80.564,146.111,80.714,146.34z"/>
						</g>
					</g>
				</g>
				<path style="fill:#FCB38F;" d="M103.64,171.329c0,0,4.345,0.494,4.651,2.129v2.785v6.501c0,0-2.94,1.228-6.513-3.557
					C101.161,176.257,101.903,173.668,103.64,171.329z"/>
				<g>
					<path style="fill:#FCB38F;" d="M108.267,171.591c0,0,5.835,0.765,5.209,2.291c-0.216,0.526-4.71,0.501-4.71,0.501l0.077,0.727
						c0,0,4.858,0.403,5.465,1.735c0.607,1.332-5.222,0.555-5.222,0.555l0.098,0.921c0,0,3.86,0.262,4.497,1.384
						c0.636,1.122-4.934,0.783-4.934,0.783l0.076,0.716c0,0,2.251,0.446,3.036,1.5c0.785,1.055-3.079,0.572-4.644-0.037
						c-1.565-0.609-1.24-1.78-1.039-2.319c0,0-0.753-1.938,0.192-3.021c0,0-0.941-1.555,0.109-2.624
						C106.477,174.703,105.399,171.448,108.267,171.591z"/>
				</g>
				<path style="fill:#FCB38F;" d="M103.64,171.329c0,0,0.661-1.099,1.066-2.25c0.405-1.151,1.399-2.662,1.774-1.836
					c0.466,1.027,0.126,2.12,0.031,3.112c-0.218,2.27,0.581,1.882,0.411,2.614C106.751,173.699,103.508,172.708,103.64,171.329z"/>
			</g>
			<g>
				<g>
					<path style="fill:#FCB38F;" d="M139.991,149.228c0,0-5.826,0.832-5.182,2.351c0.222,0.524,4.716,0.446,4.716,0.446
						l-0.069,0.728c0,0-4.853,0.459-5.445,1.798c-0.592,1.339,5.228,0.495,5.228,0.495l-0.087,0.922c0,0-3.857,0.306-4.481,1.436
						c-0.623,1.129,4.942,0.726,4.942,0.726l-0.068,0.717c0,0-2.246,0.472-3.018,1.535c-0.772,1.063,3.086,0.537,4.643-0.091
						c1.558-0.627,1.219-1.794,1.012-2.331c0,0,0.731-1.946-0.227-3.018c0,0,0.923-1.566-0.139-2.622
						C141.817,152.32,142.857,149.051,139.991,149.228z"/>
				</g>
				<path style="fill:#FCB38F;" d="M141.27,149.89c-0.045,0.687-0.901,1.143-1.753,1.337v-5.997
					c0.436,0.174,0.901,1.349,1.065,2.265C140.794,148.698,141.27,149.89,141.27,149.89z"/>
			</g>
		</g>
	</g>
	<g>
		<g>
			<ellipse style="fill:#E3E3E3;" cx="390.677" cy="448.213" rx="34.655" ry="7.676"/>
		</g>
		<g>
			<path style="fill:#252B3D;" d="M380.99,273.386c2.437,0.294,6.681,1.12,9.138,1.133c8.156,0.042,9.923,1.288,17.982,0
				c2.336-0.373,4.575,0.708,7.189-1.284c-1.2-3.143-3.9-23.286-4.755-26.357c-1.494-5.36-3.403-12.338-3.403-12.338
				s-24.728-2.454-25.936,2.428c-1.208,4.882-0.571,13.009,0.254,18.436C381.64,256.597,381.288,272.505,380.99,273.386z"/>
			<g>
				<g>
					<g>
						<path style="fill:#FF4A67;" d="M410.801,435.074c0.954,0.314,1.64,1.175,1.789,2.186c0.131,0.884,0.235,2.149,0.184,3.826
							c-0.115,3.742-0.161,5.268-0.161,5.268s-1.129,1.974-4.376,2.51l-0.955,0.134c0,0-7.347,4.417-10.779,4.756
							c-4.477,0.443-9.053-1.615-5.35-5.971c3.497-4.114,8.64-5.762,10.159-9.057c0.177-0.384,1.324-1.204,1.617-1.506
							C405.41,434.654,407.318,433.927,410.801,435.074z"/>
						<g>
							<g>
								<path style="fill:#FFFFFF;" d="M403.299,442.98c-0.162,0-0.316-0.095-0.384-0.253c-0.005-0.012-0.572-1.296-1.627-1.647
									c-1.01-0.337-2.095,0.543-2.106,0.551c-0.178,0.147-0.441,0.122-0.587-0.055c-0.147-0.177-0.123-0.44,0.054-0.587
									c0.058-0.049,1.448-1.187,2.904-0.701c1.414,0.471,2.101,2.043,2.13,2.11c0.091,0.212-0.007,0.457-0.219,0.548
									C403.41,442.97,403.354,442.98,403.299,442.98z"/>
							</g>
							<g>
								<path style="fill:#FFFFFF;" d="M401.838,444.024c-0.162,0-0.316-0.095-0.384-0.253c-0.005-0.012-0.572-1.296-1.627-1.647
									c-1.011-0.337-2.095,0.543-2.106,0.552c-0.178,0.147-0.44,0.121-0.587-0.055c-0.147-0.177-0.123-0.439,0.054-0.587
									c0.058-0.049,1.448-1.187,2.904-0.702c1.414,0.471,2.101,2.043,2.13,2.11c0.091,0.212-0.007,0.457-0.219,0.548
									C401.949,444.013,401.893,444.024,401.838,444.024z"/>
							</g>
							<g>
								<path style="fill:#FFFFFF;" d="M400.172,444.958c-0.162,0-0.316-0.095-0.384-0.253c-0.005-0.012-0.572-1.296-1.627-1.647
									c-1.01-0.338-2.095,0.543-2.106,0.552c-0.178,0.147-0.441,0.121-0.587-0.056c-0.147-0.177-0.123-0.439,0.054-0.586
									c0.058-0.049,1.448-1.187,2.904-0.702c1.414,0.471,2.101,2.043,2.13,2.11c0.091,0.212-0.007,0.457-0.219,0.548
									C400.283,444.947,400.227,444.958,400.172,444.958z"/>
							</g>
						</g>
					</g>
				</g>
				<g>
					<path style="fill:#FF4A67;" d="M384.974,435.199c0.954,0.314,1.64,1.175,1.789,2.186c0.131,0.884,0.235,2.149,0.184,3.826
						c-0.115,3.742-0.163,5.318-0.163,5.318s-1.128,1.924-4.374,2.461l-1.244,0.201c0,0-7.058,4.35-10.49,4.689
						c-4.477,0.443-9.053-1.615-5.35-5.971c3.497-4.114,8.64-5.762,10.159-9.057c0.177-0.384,1.324-1.204,1.617-1.506
						C379.582,434.778,381.491,434.051,384.974,435.199z"/>
					<g>
						<g>
							<path style="fill:#FFFFFF;" d="M377.304,443.189c-0.162,0-0.316-0.095-0.384-0.253c-0.005-0.012-0.572-1.296-1.627-1.647
								c-1.01-0.337-2.095,0.543-2.106,0.552c-0.178,0.147-0.441,0.121-0.587-0.056c-0.147-0.177-0.123-0.439,0.054-0.587
								c0.058-0.049,1.448-1.187,2.904-0.702c1.414,0.471,2.101,2.043,2.13,2.11c0.091,0.212-0.007,0.457-0.219,0.548
								C377.414,443.178,377.359,443.189,377.304,443.189z"/>
						</g>
						<g>
							<path style="fill:#FFFFFF;" d="M375.843,444.233c-0.162,0-0.316-0.095-0.384-0.253c-0.005-0.012-0.572-1.296-1.627-1.647
								c-1.01-0.337-2.095,0.543-2.106,0.552c-0.178,0.146-0.44,0.121-0.587-0.056c-0.147-0.177-0.123-0.439,0.054-0.586
								c0.058-0.049,1.448-1.187,2.904-0.702c1.414,0.471,2.102,2.043,2.13,2.11c0.091,0.212-0.007,0.457-0.219,0.548
								C375.954,444.222,375.898,444.233,375.843,444.233z"/>
						</g>
						<g>
							<path style="fill:#FFFFFF;" d="M374.177,445.167c-0.162,0-0.316-0.095-0.384-0.253c-0.005-0.012-0.572-1.296-1.627-1.647
								c-1.01-0.338-2.095,0.543-2.106,0.551c-0.178,0.147-0.441,0.122-0.587-0.055c-0.147-0.177-0.123-0.44,0.054-0.587
								c0.058-0.049,1.448-1.187,2.904-0.702c1.414,0.471,2.102,2.043,2.13,2.11c0.091,0.212-0.007,0.457-0.219,0.548
								C374.288,445.155,374.232,445.167,374.177,445.167z"/>
						</g>
					</g>
				</g>
				<path style="fill:#FCB38F;" d="M412.054,327.875l-35.064-1.043c-2.201,12.357-7.32,39.969-5.635,51.761
					c2.713,18.993,7.074,58.88,7.074,58.88c2.983,0.652,3.697,0.718,6.694-0.398c0,0,2.739-43.379-0.391-56.736
					c-1.887-8.052,3.978-23.081,6.331-34.975c0,0,0.729-2.47,1.974-2.47c0.809,0,1.28,1.183,1.511,2.012
					c0.859,10.938,1.969,24.056,2.953,32.407c1.947,16.522,7.439,60.818,7.439,60.818c2.983,0.652,3.103,0.915,6.101-0.201
					c0,0,2.266-50.574,0.425-60.176C408.545,362.517,411.832,338.971,412.054,327.875z"/>
				<g>
					<path style="fill:#252B3D;" d="M371.043,371.192c3.595,1.169,7.58,1.233,11.811,0.581c0.271-0.04,0.549-0.087,0.819-0.135
						c0.74-0.127,1.487-0.278,2.235-0.445c0.716-7.707,3.468-17.283,5.154-25.826c0,0,0.732-2.474,1.973-2.474
						c0.811,0,1.281,1.185,1.511,2.012c0.676,8.542,1.495,18.397,2.291,26.287c4.581,1.066,8.686,1.281,12.32,0.612
						c0.262-0.048,0.525-0.095,0.779-0.151c0.589-0.135,1.161-0.286,1.726-0.461c-1.615-14.746,0.199-33.493,0.39-43.316
						l-35.06-1.042C375.171,337.046,371.361,357.678,371.043,371.192z"/>
					<g>
						<path style="fill:#6B749B;" d="M382.854,371.772c0.271-0.04,0.549-0.087,0.819-0.135c1.312-10.332,5.178-27.027,5.218-27.218
							c0.056-0.215-0.079-0.43-0.294-0.477c-0.207-0.048-0.421,0.079-0.469,0.294C387.937,345.04,384.127,361.504,382.854,371.772z"
							/>
					</g>
					<g>
						<path style="fill:#6B749B;" d="M408.545,368.432c0.127,0.779,0.254,1.638,0.612,3.372c0.262-0.048,0.525-0.095,0.779-0.151
							c-0.35-1.678-0.485-2.561-0.612-3.348c-0.676-4.144-0.111-27.162-0.111-27.393c0.008-0.215-0.167-0.398-0.382-0.406
							c-0.223-0.008-0.398,0.167-0.406,0.39C408.402,341.842,407.853,364.216,408.545,368.432z"/>
					</g>
					<path style="fill:#6B749B;" d="M411.467,368.341c1.097,0.663,1.092,3.184,0.874,4.491c0,0-9.587,2.468-15.618,0.281
						c-0.625-0.497-0.977-2.691-0.265-4.408C396.458,368.706,405.635,369.875,411.467,368.341z"/>
					<path style="fill:#6B749B;" d="M386.219,368.55c0.583,0.902,0.451,3.637-0.34,4.428c0,0-8.974,2.324-15.006,0.137
						c-0.625-0.497-0.928-3.056,0.28-4.772C371.154,368.341,380.387,370.084,386.219,368.55z"/>
				</g>
			</g>
			<g>
				<g>
					<g>
						<path style="fill:#D5243A;" d="M382.488,284.189c-1.739,8.677-9.325,15.241-9.325,15.241l-6.504-5.787
							c0.407-0.262,0.868-0.786,1.369-1.514c0.165-0.237,0.333-0.496,0.505-0.776c4.544-7.409,11.661-28.866,11.661-28.866
							S384.225,275.512,382.488,284.189z"/>
					</g>
					<g>
						<path style="fill:#D5243A;" d="M373.956,298.115c0,0-1.467,4.108-6.918,3.466c-5.45-0.642-18.822-16.369-18.822-16.369
							c1.817-0.002,3.338-0.454,5.789-1.326c0,0,6.115,6,12.089,7.463C372.07,292.813,373.956,298.115,373.956,298.115z"/>
					</g>
					<g>
						<path style="fill:#B11118;" d="M371.553,296.031c-0.062,0.027-0.126,0.041-0.191,0.041c-0.175,0-0.34-0.099-0.418-0.269
							c-0.783-1.705-2.07-2.973-2.915-3.676c0.165-0.237,0.333-0.496,0.505-0.776c0.917,0.747,2.357,2.141,3.244,4.069
							C371.884,295.652,371.785,295.926,371.553,296.031z"/>
					</g>
					<g>
						<g>
							<g>
								<g>
									<polygon style="fill:#252B3D;" points="340.358,269.262 341.407,268.804 341.167,269.487 									"/>
								</g>
								<g>
									<path style="fill:#252B3D;" d="M349.756,269.951l7.103,11.847c0.458,0.76,0.082,1.625-0.674,1.545l-2.628-0.284
										l-4.52-0.485c-0.342-0.039-0.677-0.272-0.884-0.614l-7.028-11.656c-0.452-0.75-0.096-1.612,0.648-1.552l7.075,0.582
										C349.199,269.361,349.544,269.598,349.756,269.951z"/>
								</g>
								<g>
									<polygon style="fill:#252B3D;" points="356.609,283.276 355.772,283.785 355.396,283.377 356.478,282.762 									"/>
								</g>
								<g>
									<path style="fill:#51557C;" d="M340.159,270.728l7.078,11.738c0.209,0.346,0.545,0.581,0.886,0.619l7.167,0.797
										c0.755,0.084,1.13-0.785,0.67-1.552l-7.154-11.928c-0.213-0.356-0.561-0.594-0.91-0.624l-7.091-0.606
										C340.06,269.107,339.702,269.971,340.159,270.728z"/>
								</g>
							</g>
							<g>
								<path style="fill:#252B3D;" d="M348.5,276.664c0.519,0.861,0.599,1.765,0.179,2.018c-0.42,0.253-1.182-0.239-1.701-1.1
									c-0.519-0.861-0.6-1.765-0.179-2.018C347.219,275.31,347.981,275.803,348.5,276.664z"/>
							</g>
						</g>
						<g>
							<g>
								<path style="fill:#FCB38F;" d="M342.022,274.784C342.025,274.789,342.023,274.787,342.022,274.784
									c-0.046-0.122-0.71-1.885-0.082-2.212c0.236-0.123,0.572,0.201,0.91,0.662c0,0,0,0,0.003,0.002
									c0.493,0.678,0.979,1.651,1.128,1.956l0.001,0.007c0.006,0.011,0.011,0.022,0.017,0.03
									c-0.013-0.033-0.031-0.077-0.054-0.132c-0.001-0.007-0.003-0.016-0.008-0.022c-0.025-0.064-0.056-0.143-0.089-0.232
									c-0.002-0.011-0.006-0.022-0.012-0.033c-0.341-0.898-0.969-2.784-0.453-3.253c0.37-0.337,1.21,0.891,1.902,2.084
									c0.544,0.938,0.993,1.853,1.05,1.968c-0.013-0.038-0.052-0.158-0.103-0.331c-0.004-0.009-0.008-0.017-0.009-0.024
									c-0.224-0.774-0.662-2.543-0.012-2.966c0.502-0.323,1.268,1.304,1.805,2.67l0,0.002c0.364,0.925,0.621,1.73,0.621,1.73
									s-0.243-2.463,0.511-2.391c0.756,0.072,1.236,4.229,2.172,5.423c0.938,1.193,2.766,2.709,2.685,4.001
									c-0.042,0.673-1.234,2.316-4.346,2.166c-1.116-0.054-2.154-0.583-2.871-1.441c-2.182-2.611-4.49-7.323-4.761-9.66"/>
							</g>
							<g>
								<path style="fill:#FD8471;" d="M345.253,277.92c-0.068-0.071-1.165-1.245-1.497-2.119c-0.342-0.905-0.905-2.567-0.905-2.567
									s0,0,0.003,0.002c0.493,0.678,0.979,1.651,1.128,1.956l0.001,0.007C344.068,275.424,344.776,277.242,345.253,277.92z"/>
							</g>
							<g>
								<path style="fill:#FD8471;" d="M347.172,277.9c-0.063-0.095-1.054-1.651-1.459-2.569c-0.273-0.627-0.385-1.304-0.43-1.691
									c0.544,0.938,0.993,1.853,1.05,1.968C346.333,275.608,346.98,277.438,347.172,277.9z"/>
							</g>
							<g>
								<path style="fill:#FD8471;" d="M348.902,278.33c0,0-1.071-2.261-0.888-3.37c0.364,0.925,0.621,1.73,0.621,1.73"/>
							</g>
						</g>
					</g>
				</g>
				<g>
					<g>
						<g>
							<path style="fill:#FF4A67;" d="M411.301,335.015c-7.399,5.684-36.636-1.039-34.482-8.604
								c1.354-4.753,6.094-25.253,5.395-31.613c-0.71-6.349-5.551-10.225-2.423-17.368c1.859-4.246,1.704-8.426,0.606-12.319
								c-0.899-3.18,0.235-4.592,3.433-5.049c1.414-0.202,3.842-0.285,5.973,0.032c4.515,0.656,9.652,1.505,14.034,2.467
								c3.295,0.724,6.18,1.517,8.021,2.332c7.755,3.429-2.873,19.75-4.515,29.279C405.7,303.713,415.24,331.989,411.301,335.015z"
								/>
						</g>
					</g>
				</g>
				<g>
					<path style="fill:#D5243A;" d="M395.269,295.164c-8.241,0-12.656-2.36-12.875-2.48c-0.223-0.122-0.304-0.401-0.182-0.624
						c0.122-0.222,0.401-0.304,0.623-0.182l0,0c0.062,0.034,6.292,3.345,17.601,2.067c0.252-0.029,0.48,0.153,0.508,0.405
						c0.028,0.252-0.153,0.48-0.405,0.508C398.639,295.073,396.881,295.164,395.269,295.164z"/>
				</g>
				<g>
					<path style="fill:#D5243A;" d="M393.319,278.503c-0.044,0-0.089-0.006-0.134-0.02c-5.152-1.567-6.316-5.1-6.363-5.25
						c-0.076-0.242,0.059-0.5,0.301-0.576c0.24-0.076,0.499,0.058,0.576,0.299c0.043,0.134,1.094,3.23,5.754,4.648
						c0.243,0.074,0.38,0.331,0.306,0.573C393.699,278.375,393.516,278.503,393.319,278.503z"/>
				</g>
				<g>
					<path style="fill:#D5243A;" d="M399.173,326.871c-11.322,0-17.725-6.23-17.992-6.495c-0.18-0.179-0.181-0.469-0.003-0.649
						c0.178-0.18,0.47-0.181,0.65-0.003c0.063,0.062,6.42,6.228,17.345,6.228c0.251-0.005,0.462,0.204,0.462,0.46
						c0,0.254-0.206,0.459-0.46,0.459C399.175,326.871,399.174,326.871,399.173,326.871z"/>
				</g>
				<g>
					<path style="fill:#D5243A;" d="M397.863,324.75c-0.004,0-0.007,0-0.011,0c-4.221-0.103-9.538-3.511-9.762-3.656
						c-0.213-0.138-0.274-0.422-0.136-0.635c0.138-0.213,0.422-0.274,0.635-0.136c0.053,0.034,5.324,3.413,9.285,3.509
						c0.254,0.006,0.454,0.217,0.448,0.471C398.316,324.552,398.112,324.75,397.863,324.75z"/>
				</g>
			</g>
			<g>
				<g>
					<path style="fill:#252B3D;" d="M400.32,254.186c0,0,6.067-2.232,7.277-8.454c1.21-6.222,0.855-15.362-7.638-18.049
						c-8.493-2.687-16.342-0.109-18.235,7.728C381.724,235.411,388.24,251.019,400.32,254.186z"/>
				</g>
				<g>
					<g>
						<g>
							<path style="fill:#FCB38F;" d="M390.793,257.159l0.462,4.307l0.258,2.518c4.911,2.115,9.941-1.053,9.887-1.499
								c-0.537-1.91-0.945-5.186-1.079-8.299c-0.086-0.06-0.179-0.11-0.279-0.149C397.451,252.91,390.793,257.159,390.793,257.159z"
								/>
						</g>
						<g>
							<path style="fill:#FD8471;" d="M390.793,257.159l0.462,4.307c4.906-1.736,7.591-5.352,8.787-7.429
								C397.451,252.91,390.793,257.159,390.793,257.159z"/>
						</g>
					</g>
					<g>
						<g>
							<path style="fill:#FD8471;" d="M384.052,243.582c0,0-1.913-2.271-3.125-0.235c-1.212,2.036,0.986,7.724,4.145,6.126
								L384.052,243.582z"/>
						</g>
						<g>
							<path style="fill:#FFFFFF;" d="M383.128,248.54c-0.038,0.225-0.251,0.377-0.476,0.34c-0.225-0.038-0.377-0.251-0.34-0.476
								c0.038-0.225,0.251-0.377,0.476-0.34C383.014,248.102,383.166,248.315,383.128,248.54z"/>
						</g>
						<g>
							<g>
								<path style="fill:#D6615D;" d="M384.263,247.723c-0.12,0.007-0.234-0.066-0.275-0.185c-0.603-1.76-2.497-2.38-2.516-2.386
									c-0.144-0.046-0.224-0.2-0.178-0.344c0.045-0.144,0.199-0.224,0.343-0.179c0.088,0.028,2.175,0.705,2.87,2.732
									c0.049,0.143-0.027,0.299-0.17,0.348C384.313,247.717,384.288,247.722,384.263,247.723z"/>
							</g>
						</g>
						<g>
							<g>
								<path style="fill:#D6615D;" d="M382.342,246.928c-0.051,0.003-0.103-0.008-0.15-0.035c-0.132-0.075-0.178-0.242-0.103-0.374
									c0.012-0.022,0.312-0.54,0.98-0.886c0.134-0.07,0.3-0.017,0.369,0.118c0.07,0.134,0.017,0.3-0.117,0.369
									c-0.517,0.267-0.753,0.666-0.755,0.67C382.517,246.874,382.432,246.923,382.342,246.928z"/>
							</g>
						</g>
					</g>
					<g>
						<path style="fill:#FCB38F;" d="M381.657,246.384c0.046,0.639,0.113,1.237,0.201,1.778c0.807,4.879,5.095,14.785,13.678,9.738
							c2.059-1.212,3.59-2.409,4.784-3.714c0.902-0.983,1.614-2.029,2.223-3.186c0.235-0.447,0.342-0.949,0.496-1.429
							c0.028-0.084,0.053-0.171,0.078-0.255c0.015-0.048,0.03-0.094,0.044-0.143c0.427-1.4,0.75-2.814,1.002-4.162
							c0.313-1.682,0.513-3.249,0.635-4.539c0.227-2.371-0.819-4.682-2.745-6.085c-5.215-3.8-11.233-3.298-15.279-2.252
							c-2.808,0.725-4.833,3.168-5.023,6.058c-0.093,1.371-0.167,2.934-0.189,4.486C381.548,243.959,381.57,245.236,381.657,246.384
							z"/>
					</g>
					<g>
						<path style="fill:#252B3D;" d="M385.265,241.705c-0.009-0.252-0.222-0.448-0.474-0.439c-0.672,0.023-1.515,0.112-2.28,0.374
							c-1.598,0.546-1.815,1.001-1.815,1.001s0.199,0.189,2.291-0.237c0.537-0.109,1.249-0.153,1.866-0.212
							c0.242-0.023,0.421-0.234,0.412-0.477C385.265,241.711,385.265,241.708,385.265,241.705z"/>
					</g>
					<g>
						<path style="fill:#252B3D;" d="M391.09,241.383c-0.048-0.298,0.158-0.577,0.456-0.625c0.794-0.128,1.804-0.216,2.762-0.085
							c2.001,0.274,2.36,0.758,2.36,0.758s-0.19,0.267-2.743,0.249c-0.655-0.005-1.502,0.107-2.239,0.179
							c-0.29,0.028-0.548-0.178-0.594-0.465C391.091,241.389,391.091,241.386,391.09,241.383z"/>
					</g>
					<g>
						<g>
							<path style="fill:#FD8471;" d="M389.7,250.147c-0.025-0.004-0.049-0.011-0.073-0.02l-1.793-0.697l0.729-4.357
								c0.033-0.2,0.223-0.335,0.423-0.301c0.2,0.033,0.335,0.223,0.302,0.423l-0.631,3.768l1.236,0.48
								c0.189,0.073,0.283,0.286,0.209,0.475C390.038,250.083,389.868,250.175,389.7,250.147z"/>
						</g>
					</g>
					<g>
						<path style="fill:#FD8471;" d="M399.623,249.176c0,0,0.892,1.726,2.92,1.824c0.179-0.471,0.342-0.949,0.496-1.429
							C402.059,249.747,400.559,249.86,399.623,249.176z"/>
					</g>
					<g>
						<path style="fill:#252B3D;" d="M400.32,254.186c0.902-0.983,1.614-2.029,2.223-3.186c0.235-0.447,0.342-0.949,0.496-1.429
							c0.028-0.084,0.053-0.171,0.078-0.255c-0.207,0.009-0.547,0.076-1.103,0.255C402.014,249.572,399.715,252.203,400.32,254.186z
							"/>
					</g>
					<g>
						<path style="fill:#FFFFFF;" d="M386.834,252.275c0.423,1.238,1.575,3.464,4.405,3.086c2.836-0.379,3.346-2.623,3.422-4.133
							L386.834,252.275z"/>
					</g>
					<g>
						<path style="fill:#252B3D;" d="M392.441,245.165c0.039,0.688,0.425,1.225,0.862,1.2c0.438-0.025,0.76-0.602,0.721-1.29
							c-0.039-0.688-0.425-1.225-0.862-1.2C392.725,243.9,392.402,244.477,392.441,245.165z"/>
					</g>
					<g>
						<path style="fill:#252B3D;" d="M383.533,245.676c0.039,0.688,0.425,1.225,0.862,1.201c0.437-0.025,0.76-0.602,0.721-1.29
							c-0.039-0.688-0.425-1.225-0.862-1.201C383.816,244.411,383.493,244.988,383.533,245.676z"/>
					</g>
					<g>
						<g>
							<path style="fill:#FCB38F;" d="M402.177,244.041c0,0,1.959-2.009,2.961-0.007c1.002,2.003-0.992,6.969-4.474,5.526
								L402.177,244.041z"/>
						</g>
						<g>
							<path style="fill:#FFFFFF;" d="M402.912,249.199c-0.038,0.225-0.251,0.377-0.476,0.34c-0.225-0.038-0.377-0.251-0.34-0.476
								c0.038-0.225,0.251-0.377,0.476-0.34C402.798,248.76,402.95,248.973,402.912,249.199z"/>
						</g>
						<g>
							<g>
								<path style="fill:#FD8471;" d="M401.693,247.929c0.112,0.015,0.225-0.046,0.272-0.155c0.69-1.617,2.517-2.072,2.536-2.076
									c0.139-0.033,0.225-0.173,0.192-0.312c-0.033-0.139-0.173-0.225-0.311-0.192c-0.085,0.02-2.099,0.515-2.893,2.377
									c-0.056,0.132,0.005,0.284,0.137,0.34C401.647,247.92,401.67,247.926,401.693,247.929z"/>
							</g>
						</g>
						<g>
							<g>
								<path style="fill:#FD8471;" d="M403.559,247.312c0.048,0.006,0.098-0.001,0.144-0.023c0.129-0.061,0.184-0.216,0.123-0.345
									c-0.01-0.021-0.257-0.531-0.863-0.903c-0.121-0.075-0.281-0.037-0.356,0.086c-0.075,0.122-0.037,0.281,0.085,0.356
									c0.469,0.287,0.664,0.679,0.666,0.683C403.397,247.249,403.474,247.301,403.559,247.312z"/>
							</g>
						</g>
					</g>
				</g>
				<g>
					<path style="fill:#252B3D;" d="M404.464,243.219c-0.852-0.144-1.458-0.089-1.929,0.128c-0.328,0.151-0.592,0.378-0.829,0.669
						c-0.049,0.059-0.097,0.122-0.145,0.188c-0.23,0.563-0.539,0.883-0.607,0.982c-0.376,0.543-0.936,1.642-1.105,1.372
						c-0.448-0.715-0.149-4.437-0.314-5.103c-0.25-1.015-1.357-1.942-1.357-1.942c-8.651,2.692-15.496-4.764-15.496-4.764
						c2.676-8.237,17.224-4.313,20.977-2.32C407.41,234.422,408.716,243.931,404.464,243.219z"/>
				</g>
				<g>
					<path style="fill:#252B3D;" d="M384.635,235.33c0,0,0.74,5.725-3.197,7.741C381.438,243.071,379.742,231.458,384.635,235.33z"
						/>
				</g>
			</g>
			<g>
				<path style="fill:#FCB38F;" d="M402.855,323.231c0,0-3.941,0.763-5.262,1.899c-1.321,1.136-4.024,3.181-2.383,3.076
					c0.213-0.014,1.069-0.35,1.928-0.837s1.335-0.647,1.587-0.406c0.509,0.486-1.936,2.891-2.771,4.145
					c-0.835,1.255-2.86,3.532-2.442,4.552c0.417,1.02,2.271-1.723,3.214-2.764c0.943-1.041,1.379-1.78,1.55-1.582
					c0.17,0.198-4.243,4.684-3.953,6.157s4.952-4.661,5.514-4.742c0.562-0.081-3.606,4.038-3.798,4.95
					c-0.192,0.912,2.516-1.186,4.756-3.457c0,0,0.438-0.003,0.018,0.444c-0.42,0.447-2.15,2.028-2.341,2.92
					c-0.19,0.892,3.837-2.56,5.829-4.963c1.992-2.403,2.292-5.711,2.292-5.711S403.81,325.32,402.855,323.231z"/>
				<path style="fill:#FF4A67;" d="M424.725,299.428c0,0-1.546,0.816-3.674,1.145c-1.282,0.194-2.778,0.214-4.274-0.232
					l-0.172-0.465l-7.779-21.177c0,0,0.319-9.378,5.058-12.079C413.884,266.621,422.365,284.821,424.725,299.428z"/>
				<path style="fill:#FF4A67;" d="M423.685,308.313c-2.489,5.477-16.935,19.405-16.935,19.405c-1.8-0.719-2.997-2.425-3.976-4.486
					c0,0,6.846-9.071,9.193-13.425c1.924-3.567,3.926-7.645,4.585-8.999c0.144-0.299,0.224-0.466,0.224-0.466l3.044-0.351
					l4.904-0.563C424.725,299.428,426.174,302.836,423.685,308.313z"/>
				<g>
					<path style="fill:#D5243A;" d="M421.038,300.765c-0.02,0.065-0.05,0.124-0.092,0.174c-0.115,0.132-0.296,0.194-0.475,0.142
						c-1.426-0.401-2.848-0.391-3.918-0.274c0.144-0.299,0.224-0.466,0.224-0.466l-0.172-0.465c0.911-0.09,2.036-0.102,3.216,0.115
						c0.296,0.055,0.597,0.122,0.899,0.207c0.182,0.052,0.306,0.204,0.331,0.376C421.061,300.636,421.058,300.7,421.038,300.765z"/>
				</g>
			</g>
		</g>
	</g>
	<g>
		<g>
			<g>
				<g>
					<polygon style="fill:#FF4A67;" points="346.717,162.384 350.42,170.487 350.42,164.522 					"/>
					<polygon style="fill:#B11118;" points="350.417,170.487 352.253,169.427 352.253,165.58 350.42,164.522 					"/>
				</g>
				<polygon style="fill:#B11118;" points="367.625,142.18 367.625,169.12 362.967,171.809 363.371,144.655 				"/>
				<polygon style="fill:#FF4A67;" points="339.248,130.727 339.248,158.115 362.967,171.809 363.371,144.655 				"/>
				<g>
					<path style="fill:#FFFFFF;" d="M352.133,155.059l-3.682-2.117l-0.538-12.446l5.524,3.175L352.133,155.059z M350.045,161.669
						c-1.595-0.917-2.652-3.042-2.593-4.862c0.06-1.849,1.209-2.62,2.805-1.703c1.596,0.917,2.655,2.959,2.596,4.808
						C352.793,161.732,351.641,162.586,350.045,161.669z"/>
				</g>
				<polygon style="fill:#D5243A;" points="367.625,142.18 343.502,128.252 339.248,130.727 363.371,144.655 				"/>
			</g>
		</g>
		<g>
			<g>
				<g>
					<polygon style="fill:#FF4A67;" points="420.348,127.735 423.916,135.542 423.916,129.795 					"/>
					<polygon style="fill:#B11118;" points="423.913,135.542 425.682,134.521 425.682,130.815 423.916,129.795 					"/>
				</g>
				<polygon style="fill:#B11118;" points="432.487,103.646 432.487,129.601 427.999,132.192 428.388,106.03 				"/>
				<polygon style="fill:#FF4A67;" points="395.528,87.059 395.528,113.445 427.999,132.192 428.388,106.03 				"/>
				<g>
					<path style="fill:#FFFFFF;" d="M416.704,108.89c-1.212,0.022-1.973,1.602-1.7,3.531c0.274,1.928,1.478,3.474,2.69,3.453
						c1.212-0.021,1.973-1.602,1.7-3.531C419.12,110.414,417.916,108.868,416.704,108.89z"/>
					<path style="fill:#FFFFFF;" d="M410.346,105.502c-1.212,0.021-1.973,1.602-1.7,3.531c0.274,1.929,1.478,3.474,2.69,3.453
						c1.212-0.021,1.973-1.602,1.7-3.531C412.763,107.027,411.558,105.481,410.346,105.502z"/>
					<path style="fill:#FFFFFF;" d="M403.944,102.115c-1.212,0.022-1.973,1.602-1.7,3.531c0.274,1.928,1.478,3.474,2.69,3.453
						c1.212-0.022,1.973-1.602,1.7-3.531C406.36,103.64,405.156,102.094,403.944,102.115z"/>
				</g>
				<polygon style="fill:#D5243A;" points="432.487,103.646 399.64,84.682 395.542,87.066 428.388,106.03 				"/>
			</g>
		</g>
	</g>
	<g>
		<g>
			<path style="fill:#E5E5E5;" d="M154.407,60.582v55.602c0,0.247,0.133,0.478,0.348,0.602l67.987,39.252
				c0.109,0.063,0.226,0.096,0.345,0.096c0.336,0,0.698-0.267,0.698-0.698V99.93c0-0.247-0.133-0.477-0.347-0.601L155.45,59.981
				c-0.11-0.064-0.226-0.097-0.346-0.097C154.769,59.884,154.407,60.151,154.407,60.582z"/>
			<g>
				<g>
					<g>
						<polygon style="fill:#FF4A67;" points="179.231,120.383 182.941,128.501 182.941,122.525 						"/>
						<polygon style="fill:#B11118;" points="182.937,128.501 184.777,127.439 184.777,123.585 182.941,122.525 						"/>
					</g>
					<polygon style="fill:#B11118;" points="200.176,100.144 200.176,127.131 195.51,129.826 195.915,102.623 					"/>
					<polygon style="fill:#FF4A67;" points="171.749,88.671 171.749,116.107 195.51,129.826 195.915,102.623 					"/>
					<polygon style="fill:#D5243A;" points="200.176,100.144 176.01,86.192 171.749,88.671 195.915,102.623 					"/>
				</g>
				<g>
					<g>
						<path style="fill:#FFFFFF;" d="M175.968,104.541c-0.063,4.186,3.413,9.703,7.75,12.299c4.336,2.596,7.916,1.302,7.979-2.884
							c0.063-4.186-3.413-9.703-7.749-12.298C179.61,99.062,176.031,100.355,175.968,104.541z M180.338,109.986
							c-0.245-0.979-0.372-1.958-0.38-2.911l3.555,2.128l-0.04,2.66L180.338,109.986z M182.132,115.101
							c-1.991-1.631-3.671-3.87-4.658-6.214l2.395,1.434c0.316,1.095,0.764,2.184,1.33,3.237
							C181.486,114.09,181.799,114.608,182.132,115.101z M183.464,112.473l-0.054,3.56c-0.236-0.278-0.983-1.202-1.723-2.583
							c-0.474-0.885-0.858-1.801-1.143-2.725L183.464,112.473z M180.825,103.677c0.866-1.292,2.116-1.657,2.515-1.743
							c0.094,0.049,0.188,0.099,0.282,0.151l-0.049,3.236L180.825,103.677z M177.784,101.857c1.031-0.925,2.635-1.072,4.451-0.412
							c-0.361,0.15-0.701,0.347-1.013,0.588c-0.43,0.332-0.796,0.746-1.088,1.231L177.784,101.857z M179.971,106.466
							c0.051-0.886,0.248-1.671,0.586-2.333l3.005,1.799l-0.04,2.66L179.971,106.466z M176.623,104.462
							c0.078-0.894,0.344-1.637,0.791-2.21l2.472,1.479c-0.316,0.681-0.5,1.473-0.548,2.356L176.623,104.462z M179.326,106.696
							c0.007,0.947,0.125,1.92,0.354,2.895l-2.512-1.504c-0.371-1.071-0.562-2.087-0.567-3.023L179.326,106.696z M188.26,112.044
							l2.799,1.676c-0.033,0.913-0.251,1.685-0.647,2.296l-2.586-1.548C188.08,113.78,188.225,112.965,188.26,112.044z
							 M184.205,105.7l0.049-3.236c0.067,0.043,0.134,0.086,0.2,0.131c0.269,0.385,0.923,1.363,1.57,2.679
							c0.333,0.677,0.621,1.359,0.857,2.029L184.205,105.7z M187.128,108.066c0.312,1.054,0.481,2.058,0.505,2.986l-3.478-2.082
							l0.04-2.66L187.128,108.066z M187.57,107.714c-0.272-0.822-0.619-1.663-1.031-2.499c-0.305-0.618-0.64-1.226-0.998-1.812
							c1.843,1.513,3.449,3.59,4.452,5.762L187.57,107.714z M187.628,111.665c-0.036,0.93-0.191,1.74-0.459,2.409l-3.063-1.833
							l0.04-2.66L187.628,111.665z M188.266,111.431c-0.021-0.924-0.178-1.92-0.467-2.963l2.545,1.523
							c0.423,1.095,0.662,2.14,0.711,3.109L188.266,111.431z M190.087,116.437c-1.044,1.134-2.836,1.331-4.857,0.539
							c0.35-0.089,0.681-0.228,0.985-0.415c0.588-0.362,1.06-0.9,1.403-1.601L190.087,116.437z M186.942,114.555
							c-0.906,1.665-2.416,1.811-2.899,1.813l0.053-3.517L186.942,114.555z"/>
					</g>
				</g>
			</g>
			<g>
				<g style="opacity:0.1;">
					<path style="fill:#252B3D;" d="M214.115,105.608c-0.148,0-0.298-0.038-0.435-0.117l-51.026-29.519
						c-0.417-0.241-0.559-0.774-0.318-1.19c0.241-0.417,0.774-0.559,1.19-0.318l51.026,29.519c0.417,0.241,0.559,0.774,0.318,1.19
						C214.709,105.452,214.416,105.608,214.115,105.608z"/>
				</g>
				<g style="opacity:0.1;">
					<path style="fill:#252B3D;" d="M214.115,145.715c-0.148,0-0.298-0.038-0.435-0.117l-51.026-29.519
						c-0.417-0.241-0.559-0.774-0.318-1.19c0.241-0.417,0.774-0.559,1.19-0.318l51.026,29.519c0.417,0.241,0.559,0.774,0.318,1.191
						C214.709,145.559,214.416,145.715,214.115,145.715z"/>
				</g>
			</g>
			<g>
				<path style="opacity:0.1;fill:#252B3D;" d="M154.407,60.582v2.639l69.377,40.134V99.93c0-0.247-0.133-0.477-0.347-0.601
					L155.45,59.981c-0.11-0.064-0.226-0.097-0.346-0.097C154.769,59.884,154.407,60.151,154.407,60.582z"/>
				<g>
					<path style="fill:#FF7A8C;" d="M220.468,99.714c0.025,0.463,0.319,0.838,0.658,0.838c0.339,0,0.593-0.375,0.569-0.838
						c-0.025-0.463-0.319-0.838-0.658-0.838C220.698,98.876,220.444,99.251,220.468,99.714z"/>
					<path style="fill:#3A4059;" d="M218.514,98.725c0.025,0.463,0.319,0.838,0.658,0.838c0.339,0,0.593-0.375,0.569-0.838
						c-0.025-0.463-0.319-0.838-0.658-0.838C218.744,97.887,218.49,98.262,218.514,98.725z"/>
					<path style="fill:#D5243A;" d="M216.779,97.763c0.024,0.463,0.319,0.838,0.657,0.838c0.339,0,0.593-0.375,0.569-0.838
						c-0.025-0.463-0.319-0.838-0.658-0.838S216.754,97.3,216.779,97.763z"/>
				</g>
			</g>
		</g>
	</g>
	<g>
		<path style="fill:#E5E5E5;" d="M148.182,287.286c-2.039,4.413,5.984,12.461,17.919,17.976c11.936,5.515,23.264,6.409,25.303,1.996
			c2.039-4.413-5.984-12.461-17.919-17.976C161.55,283.767,150.221,282.873,148.182,287.286z"/>
		<g>
			<g>
				<path style="fill:#B11118;" d="M174.608,306.446l10.142-5.678c1.091-0.611,1.767-1.764,1.767-3.014v-50.807l-11.549,6.668
					L174.608,306.446z"/>
				<path style="fill:#FF4A67;" d="M174.967,253.614l-22.957-13.047v50.656c0,1.276,0.678,2.456,1.781,3.099l20.816,12.124
					L174.967,253.614z"/>
				<g>
					<g>
						<g>
							<g>
								<path style="fill:#D5243A;" d="M171.984,275.898l-2.719-1.805l-0.065,10.108c-0.008,1.319-0.953,1.765-2.111,0.997l0,0
									c-1.157-0.768-2.088-2.46-2.08-3.779l0.065-10.108l-2.719-1.805l2.426-1.088l2.424-1.089l2.39,4.285L171.984,275.898z"/>
							</g>
						</g>
					</g>
					<g>
						<g>
							<g>
								<path style="fill:#D5243A;" d="M163.45,279.837l-2.719-1.805l0.065-10.108c0.008-1.319-0.923-3.011-2.08-3.779l0,0
									c-1.157-0.768-2.102-0.322-2.111,0.997l-0.065,10.108l-2.719-1.805l2.391,4.285l2.39,4.284l2.424-1.089L163.45,279.837z"/>
							</g>
						</g>
					</g>
				</g>
				<path style="fill:#D5243A;" d="M186.517,246.946l-21.519-12.261c-0.934-0.532-2.08-0.524-3.007,0.02l-9.981,5.862l22.957,13.047
					L186.517,246.946z"/>
			</g>
			<g>
				<polygon style="fill:#A0A0A0;" points="173.204,249.954 179.768,246.279 179.768,232.722 173.345,229.063 173.296,236.337 				
					"/>
				<polygon style="fill:#C6C6C6;" points="160.752,229.205 160.752,242.7 173.204,249.954 173.296,236.337 173.345,229.063 
					167.077,225.49 				"/>
				<polygon style="fill:#E5E5E5;" points="160.752,229.206 173.296,236.338 173.4,236.395 173.403,236.398 179.768,232.723 
					173.345,229.064 167.077,225.492 164.692,226.891 				"/>
				<polygon style="fill:#A0A0A0;" points="160.752,229.206 160.792,229.228 173.296,236.338 173.4,236.395 176.437,234.643 
					177.361,234.11 170.938,230.45 164.692,226.891 				"/>
				<polygon style="fill:#878787;" points="160.752,229.205 173.296,236.338 173.4,236.395 176.437,234.643 170.062,231.01 
					163.778,227.428 				"/>
			</g>
			<g>
				<polygon style="fill:#A0A0A0;" points="162.902,239.644 165.553,241.174 165.553,237.139 162.902,235.608 				"/>
				<polygon style="fill:#A0A0A0;" points="167.049,241.819 169.699,243.35 169.699,239.315 167.049,237.784 				"/>
			</g>
		</g>
	</g>
	<g>
		<path style="fill:#E5E5E5;" d="M307.968,395.844l12.892,7.224c1.782,1.182,1.7,3.825-0.152,4.894l-70.776,40.858
			c-2.639,1.523-5.891,1.517-8.524-0.015l-138.89-80.854c-1.305-0.755-1.337-2.627-0.06-3.427l13.341-8.26l127.322,73.517
			L307.968,395.844z"/>
		<g>
			<g>
				<path style="fill:#252B3D;" d="M247.766,438.802c0.928,0.025,1.948-0.121,2.98-0.581c0,0,0.002-0.002,0.003-0.002l1.306-0.759
					c0.002-0.002,0.005-0.004,0.007-0.004l0.539-0.313l60.371-35.086c1.089-0.634,1.757-1.796,1.757-3.056l0-6.685
					c-0.019-0.681-0.368-1.351-1.041-1.74l-6.333-3.656l-59.183,34.178l-0.228,9.92L247.766,438.802z"/>
				<path style="fill:#3A4059;" d="M111.222,352.039l0,6.409c0,1.649,0.877,3.171,2.305,3.996l130.196,75.178l0.294,0.168
					c0.009,0.004,0.018,0.009,0.026,0.014c0.607,0.32,2.009,0.952,3.722,1l0.179-7.784l0.228-9.92l-129.456-74.22h-0.002
					l-6.477,3.713C111.658,350.922,111.321,351.463,111.222,352.039z"/>
				<polygon style="fill:#FFFFFF;" points="290.043,388.954 232.517,422.378 120.663,357.79 178.574,324.597 				"/>
				<polygon style="fill:#FFFFFF;" points="290.043,388.954 232.517,422.378 120.663,357.79 178.574,324.597 				"/>
				<g>
					<g>
						<path style="fill:#6B749B;" d="M292.583,409.628l0,1.71c0,0.136-0.072,0.262-0.191,0.33l-16.437,9.488
							c-0.254,0.147-0.571-0.037-0.571-0.331l0-1.71c0-0.136,0.072-0.262,0.191-0.33l16.437-9.488
							C292.266,409.151,292.583,409.334,292.583,409.628z"/>
					</g>
					<g>
						<path style="fill:#51557C;" d="M292.583,409.628v0.971c0,0.136-0.072,0.262-0.191,0.33l-16.437,9.488
							c-0.254,0.147-0.571-0.037-0.571-0.33l0-0.971c0-0.136,0.072-0.262,0.191-0.33l16.437-9.488
							C292.266,409.151,292.583,409.334,292.583,409.628z"/>
					</g>
				</g>
				<g>
					<path style="fill:#6B749B;" d="M270.188,423.481c-0.05,1.007-0.51,1.801-1.026,1.776c-0.062-0.003-0.121-0.018-0.178-0.043
						c-0.421-0.184-0.711-0.939-0.667-1.825c0.043-0.854,0.38-1.557,0.797-1.733c0.074-0.033,0.151-0.047,0.229-0.043
						C269.859,421.638,270.238,422.475,270.188,423.481z"/>
					<path style="fill:#51557C;" d="M269.781,423.481c-0.042,0.854-0.38,1.556-0.797,1.733c-0.421-0.184-0.711-0.939-0.667-1.825
						c0.043-0.854,0.38-1.557,0.797-1.733C269.535,421.84,269.825,422.594,269.781,423.481z"/>
				</g>
				<g>
					<path style="fill:#51557C;" d="M111.223,352.759c0.097,0.575,0.433,1.112,1.009,1.445l130.89,75.576
						c1.491,0.862,3.16,1.275,4.823,1.238c1.542-0.03,3.079-0.447,4.46-1.249l61.29-35.586c0.669-0.39,1.015-1.058,1.036-1.735
						v-0.132c-0.02-0.68-0.367-1.351-1.042-1.74l-6.333-3.656l-24.557-14.18l-65.709-37.942l-37.461-21.632
						c-0.642-0.37-1.434-0.372-2.077-0.003l-58.833,33.714h-0.002l-6.478,3.713c-0.579,0.332-0.918,0.872-1.015,1.448
						C111.18,352.277,111.18,352.522,111.223,352.759z"/>
					<path style="fill:#3A4059;" d="M281.348,404.599c0.157,3.077-3.494,4.646-7.805,4.646c-4.31,0-7.994-1.379-7.804-4.731
						c0.125-2.209,3.494-3.282,7.805-3.282C277.854,401.233,281.236,402.39,281.348,404.599z"/>
					<ellipse style="fill:#6B749B;" cx="273.544" cy="404.515" rx="7.804" ry="4.006"/>
					<path style="opacity:0.3;fill:#6B749B;" d="M279.659,404.253c0,1.734-2.738,3.139-6.115,3.139c-3.378,0-6.115-1.406-6.115-3.14
						c0-1.734,2.738-3.139,6.116-3.139C276.921,401.114,279.659,402.519,279.659,404.253z"/>
					<path style="fill:#FFFFFF;" d="M125.17,353.481l3.101,1.79l10.296,5.947l23.078,13.33l25.061,14.464l10.057,5.809
						l18.309,10.578l15.971,9.215c1.566,0.903,3.495,0.901,5.058-0.005l2.049-1.188l20.695-12.04l10.06-5.826l19.502-11.34
						c1.199-0.697,1.195-2.429-0.005-3.122l-19.495-11.252l-10.059-5.809l-20.694-11.945l-23.078-13.328l-18.309-10.58
						l-10.058-5.807l-0.745-0.43l-3.812-2.195c-1.561-0.9-3.483-0.901-5.046-0.005l-15.459,8.86l-23.079,13.231l-13.39,7.672
						C123.644,350.385,123.639,352.596,125.17,353.481z"/>
					<g>
						<g>
							<path style="fill:#E5E5E5;" d="M236.63,402.103c0.233,0,0.47-0.06,0.686-0.186l35.545-20.652
								c0.654-0.38,0.876-1.218,0.496-1.871c-0.38-0.654-1.218-0.876-1.871-0.496l-35.545,20.652
								c-0.654,0.38-0.876,1.218-0.496,1.871C235.699,401.859,236.158,402.103,236.63,402.103z"/>
							<path style="fill:#E5E5E5;" d="M227.021,396.808c0.234,0,0.47-0.06,0.687-0.185l35.545-20.652
								c0.654-0.38,0.876-1.218,0.496-1.871s-1.218-0.876-1.871-0.496l-35.545,20.652c-0.654,0.38-0.876,1.218-0.496,1.871
								C226.091,396.564,226.55,396.808,227.021,396.808z"/>
							<path style="fill:#E5E5E5;" d="M217.413,391.513c0.234,0,0.47-0.06,0.686-0.186l35.545-20.652
								c0.654-0.38,0.876-1.218,0.496-1.871c-0.38-0.654-1.218-0.876-1.872-0.496l-35.545,20.652
								c-0.654,0.38-0.876,1.218-0.496,1.871C216.482,391.269,216.942,391.513,217.413,391.513z"/>
							<path style="fill:#E5E5E5;" d="M207.805,386.218c0.233,0,0.47-0.06,0.686-0.185l35.545-20.652
								c0.654-0.38,0.876-1.218,0.496-1.871c-0.38-0.654-1.218-0.876-1.872-0.496l-35.545,20.652
								c-0.654,0.38-0.876,1.218-0.496,1.871C206.874,385.974,207.333,386.218,207.805,386.218z"/>
							<path style="fill:#E5E5E5;" d="M198.197,380.923c0.234,0,0.47-0.06,0.687-0.186l35.545-20.652
								c0.654-0.38,0.876-1.218,0.496-1.872c-0.38-0.654-1.218-0.876-1.872-0.496l-35.545,20.652
								c-0.654,0.38-0.876,1.218-0.496,1.871C197.266,380.679,197.725,380.923,198.197,380.923z"/>
							<path style="fill:#E5E5E5;" d="M188.589,375.628c0.233,0,0.47-0.06,0.686-0.186l35.545-20.652
								c0.654-0.38,0.876-1.218,0.496-1.871c-0.38-0.654-1.218-0.876-1.872-0.496L187.9,373.075
								c-0.654,0.38-0.876,1.218-0.496,1.871C187.658,375.384,188.117,375.628,188.589,375.628z"/>
							<path style="fill:#E5E5E5;" d="M178.981,370.333c0.234,0,0.47-0.06,0.687-0.186l35.545-20.652
								c0.654-0.38,0.876-1.218,0.496-1.872c-0.38-0.654-1.218-0.876-1.871-0.496l-35.545,20.652
								c-0.654,0.38-0.876,1.218-0.496,1.871C178.05,370.089,178.509,370.333,178.981,370.333z"/>
							<path style="fill:#E5E5E5;" d="M169.373,365.038c0.234,0,0.47-0.06,0.687-0.186l35.545-20.652
								c0.654-0.38,0.876-1.218,0.496-1.872c-0.38-0.654-1.218-0.876-1.872-0.496l-35.545,20.652
								c-0.654,0.38-0.876,1.218-0.496,1.871C168.442,364.793,168.901,365.038,169.373,365.038z"/>
							<path style="fill:#E5E5E5;" d="M159.765,359.742c0.234,0,0.47-0.06,0.687-0.186l35.545-20.652
								c0.654-0.38,0.876-1.218,0.496-1.871c-0.38-0.654-1.218-0.876-1.871-0.496l-35.545,20.652
								c-0.654,0.38-0.876,1.218-0.496,1.872C158.834,359.498,159.293,359.742,159.765,359.742z"/>
							<path style="fill:#E5E5E5;" d="M150.157,354.447c0.234,0,0.47-0.06,0.687-0.186l35.545-20.652
								c0.654-0.38,0.876-1.218,0.496-1.871c-0.38-0.654-1.218-0.876-1.872-0.496l-35.545,20.652
								c-0.654,0.38-0.876,1.218-0.496,1.871C149.226,354.203,149.685,354.447,150.157,354.447z"/>
						</g>
					</g>
					<path style="fill:#51557C;" d="M125.17,353.481l3.101,1.79l57.691-33.329l-3.812-2.195c-1.561-0.9-3.483-0.901-5.046-0.005
						l-15.459,8.86l-23.079,13.231l-13.39,7.672C123.644,350.385,123.639,352.596,125.17,353.481z"/>
					<g>
						<g>
							<path style="fill:#6B749B;" d="M146.405,341.239c0.196-0.031,0.382-0.091,0.54-0.181l21.144-12.101
								c0.474-0.271,0.502-0.709,0.063-0.978c-0.439-0.269-1.18-0.268-1.653,0.003l-21.144,12.101
								c-0.474,0.271-0.502,0.709-0.063,0.978C145.585,341.241,146.012,341.3,146.405,341.239z"/>
						</g>
					</g>
				</g>
			</g>
		</g>
		<g>
			<path style="fill:#D5243A;" d="M238.34,363.221l-0.014-0.008c0.05,0.272-0.061,0.569-0.333,0.728l-36.896,21.301
				c-0.08,0.047-0.169,0.078-0.258,0.089c-0.153,0.019-0.314-0.014-0.45-0.097l-23.432-14.348c-0.228-0.139-0.336-0.378-0.331-0.611
				v-6.248l4.886,3.045l31.646-18.27c0.214-0.122,0.478-0.122,0.692,0l18.634,10.759l0.689,0.397l5.167-2.911V363.221z"/>
			<path style="fill:#B11118;" d="M238.34,363.221l-0.014-0.008c0.05,0.272-0.061,0.569-0.333,0.728l-36.896,21.301
				c-0.08,0.047-0.169,0.078-0.258,0.089v-7.242l31.646-18.529l0.689,0.397l5.167-2.911V363.221z"/>
			<path style="fill:#FF4A67;" d="M238.106,357.677c-0.033,0.031-0.072,0.058-0.114,0.083l-36.896,21.301
				c-0.05,0.03-0.103,0.053-0.158,0.069c-0.183,0.05-0.383,0.025-0.55-0.078l-0.564-0.344l-22.868-14.003
				c-0.1-0.061-0.178-0.142-0.228-0.233c-0.194-0.314-0.108-0.756,0.245-0.958l0.478-0.275l35.416-20.448l0.292-0.169
				c0.214-0.122,0.478-0.122,0.692,0l0.205,0.12l23.896,13.795l0.006,0.003l0.036,0.022
				C238.412,356.802,238.451,357.374,238.106,357.677z"/>
			<g>
				<g>
					<path style="fill:#D5243A;" d="M214.055,342.74l-3.42,10.059l-0.364,1.069l-1.831,5.386c-0.069,0.197-0.239,0.339-0.442,0.372
						l-7.506,1.164l-1.108,0.17l-22.657,3.511c-0.194-0.314-0.108-0.756,0.245-0.958l0.478-0.275l30.046-4.659l1.861-5.475
						c0-0.003,0.003-0.003,0.003-0.003l0.014-0.042c0-0.003,0-0.005,0.003-0.008l3.489-10.262l0.292-0.169
						c0.214-0.122,0.478-0.122,0.692,0L214.055,342.74z"/>
				</g>
				<g>
					<path style="fill:#D5243A;" d="M200.943,379.039c0,0.031,0,0.061-0.006,0.092c-0.183,0.05-0.383,0.025-0.55-0.078l-0.564-0.344
						l-0.439-17.748l-0.006-0.245c-0.008-0.308,0.236-0.561,0.542-0.57h0.014c0.3,0,0.547,0.239,0.556,0.542l0.003,0.103
						L200.943,379.039z"/>
				</g>
				<g>
					<path style="fill:#D5243A;" d="M238.106,357.677l-27.835-3.809l-0.456-0.061c-0.303-0.042-0.517-0.32-0.475-0.625
						c0.003-0.028,0.008-0.053,0.017-0.078c0-0.003,0.003-0.003,0.003-0.003l0.014-0.042c0-0.003,0-0.005,0.003-0.008
						c0.089-0.231,0.331-0.381,0.592-0.344l0.667,0.092l27.315,3.736l0.006,0.003l0.036,0.022
						C238.412,356.802,238.451,357.374,238.106,357.677z"/>
				</g>
			</g>
		</g>
	</g>
	<g>
		<ellipse style="fill:#E5E5E5;" cx="75.616" cy="437.821" rx="21.716" ry="6.168"/>
		<g>
			<g>
				<path style="fill:#51557C;" d="M97.132,404.123l-9.104,30.452c-0.376,1.517-1.408,2.781-2.806,3.48
					c-6.895,3.444-13.787,3.446-20.677,0.001c-1.397-0.699-2.429-1.963-2.804-3.479l-9.248-30.158l22.392-3.442L97.132,404.123z"/>
			</g>
			<g>
				<ellipse style="fill:#3A4059;" cx="74.884" cy="402.531" rx="22.448" ry="11.875"/>
			</g>
			<g>
				<path style="fill:#252B3D;" d="M90.408,402.531c0,3.829-6.95,6.932-15.524,6.932s-15.524-3.104-15.524-6.932
					c0-3.829,6.95-6.932,15.524-6.932S90.408,398.702,90.408,402.531z"/>
			</g>
			<g>
				<g>
					<path style="fill:#D5243A;" d="M65.904,403.166h11.968c5.287-1.672,21.35-11.819,18.533-20.454
						c-5.93-18.186,3.202-11.502,5.732-18.385c6.002-16.315-11.381-12.92,0.086-27.331s0.62-22.978-8.057-15.286
						c-8.679,7.692-7.128,19.158-15.496,25.359c-8.368,6.197,4.027,14.565-0.931,23.864c-4.958,9.299-9.299,6.817-11.778,17.356
						C64.466,394.647,63.912,400.174,65.904,403.166z"/>
				</g>
				<g>
					<path style="fill:#B11118;" d="M73.377,403.166h0.89c0.78-10.278,5.459-21.904,9.338-24.947
						c5.044-3.953,6.9-11.526,5.234-21.326c-1.533-9.005,4.415-18.281,4.478-18.373c0.133-0.205,0.074-0.48-0.131-0.617
						c-0.205-0.133-0.48-0.074-0.617,0.13c-0.252,0.391-6.2,9.655-4.608,19.007c1.61,9.465-0.13,16.736-4.904,20.478
						C79.028,380.674,74.174,392.645,73.377,403.166z"/>
				</g>
			</g>
			<g>
				<g>
					<path style="fill:#FF4A67;" d="M77.401,403.166H66.998c-4.596-1.454-18.557-10.273-16.109-17.779
						c5.155-15.807-2.784-9.998-4.982-15.98c-5.217-14.181,9.892-11.23-0.075-23.756c-9.967-12.526-0.539-19.972,7.003-13.286
						c7.544,6.686,6.196,16.652,13.469,22.042c7.273,5.387-3.5,12.66,0.809,20.743c4.309,8.083,8.083,5.925,10.237,15.086
						C78.651,395.761,79.133,400.565,77.401,403.166z"/>
				</g>
				<g>
					<path style="fill:#D5243A;" d="M70.906,403.166h-0.773c-0.678-8.933-4.745-19.039-8.116-21.684
						c-4.384-3.436-5.998-10.018-4.549-18.537c1.333-7.828-3.838-15.89-3.892-15.97c-0.116-0.178-0.064-0.418,0.113-0.536
						c0.178-0.116,0.418-0.064,0.536,0.113c0.219,0.34,5.389,8.392,4.005,16.521c-1.4,8.227,0.113,14.547,4.263,17.8
						C65.993,383.616,70.212,394.021,70.906,403.166z"/>
				</g>
			</g>
		</g>
	</g>
</g>
<g id="DESIGNED_BY_FREEPIK">
	<g>
		<g id="XMLID_1_">
			<g id="XMLID_20_">
				<path id="XMLID_28_" style="fill:#112129;" d="M260.104,465.465c-0.432,0.443-0.803,0.931-1.108,1.453l-0.465-0.241
					c-0.067-0.298-0.349-0.503-0.659-0.466c-0.331,0.039-0.568,0.339-0.529,0.67c0.039,0.331,0.339,0.568,0.67,0.529
					c0.065-0.008,0.127-0.026,0.183-0.052l0.452,0.234c-0.251,0.554-0.433,1.139-0.539,1.744l0.747,0.132
					c0.23-1.306,0.85-2.507,1.792-3.473L260.104,465.465z"/>
				<path id="XMLID_27_" style="fill:#112129;" d="M265.592,463.163c-0.171,0-0.341,0.006-0.51,0.017l-0.074-0.626
					c0.188-0.149,0.296-0.389,0.266-0.645c-0.046-0.393-0.402-0.674-0.795-0.628c-0.393,0.046-0.674,0.402-0.628,0.795
					c0.03,0.254,0.189,0.461,0.405,0.564l0.073,0.624c-0.714,0.116-1.403,0.332-2.06,0.646l0.327,0.684
					c0.934-0.447,1.942-0.673,2.995-0.673c0.496,0,0.993,0.053,1.475,0.158l0.161-0.741
					C266.692,463.222,266.142,463.163,265.592,463.163z"/>
				<path id="XMLID_26_" style="fill:#112129;" d="M272.194,465.711c0.331-0.04,0.566-0.341,0.526-0.672
					c-0.04-0.331-0.341-0.566-0.672-0.526c-0.309,0.038-0.535,0.304-0.53,0.609l-0.416,0.363c-0.418-0.43-0.89-0.813-1.408-1.139
					l-0.404,0.641c1.134,0.715,2.021,1.726,2.563,2.925l0.691-0.313c-0.251-0.554-0.568-1.072-0.942-1.545l0.402-0.351
					C272.065,465.716,272.129,465.719,272.194,465.711z"/>
				<path id="XMLID_25_" style="fill:#112129;" d="M265.044,473.372c-0.386,0.023-0.775,0.035-1.157,0.035
					c-0.88,0-1.733-0.061-2.478-0.179c-0.39-0.062-0.846-0.155-1.27-0.292c1.046,1.861,3.069,3.125,5.388,3.125
					c2.855,0,5.262-1.916,5.95-4.504c-0.682,0.449-1.505,0.825-2.459,1.123C267.839,473.047,266.464,473.286,265.044,473.372z"/>
				<path id="XMLID_21_" style="fill:#112129;" d="M265.592,464.68c-3.352,0-6.08,2.666-6.08,5.943c0,0.426,0.046,0.849,0.137,1.261
					c0.673,0.483,2.706,0.89,5.348,0.731c2.879-0.173,5.297-0.957,6.672-2.159c-0.005-0.195-0.021-0.39-0.045-0.582
					C271.244,466.913,268.65,464.68,265.592,464.68z M263.432,471.194c-1.02,0-1.85-0.83-1.85-1.85c0-1.02,0.83-1.85,1.85-1.85
					c1.02,0,1.85,0.83,1.85,1.85C265.282,470.365,264.452,471.194,263.432,471.194z M268.17,470.286c-0.75,0-1.36-0.61-1.36-1.36
					s0.61-1.361,1.36-1.361c0.75,0,1.361,0.61,1.361,1.361S268.92,470.286,268.17,470.286z"/>
			</g>
			<path id="XMLID_18_" style="fill:#112129;" d="M281.595,466.547c-0.295-0.116-0.805-0.309-1.382-0.237
				c-0.551,0.069-0.844,0.341-0.844,1.007v0.866h2.228v1.717h-2.228v5.455h-1.932v-5.455h-1.34v-1.717h1.34v-0.888
				c0-1.68,0.896-2.783,2.568-2.783c0.643,0,1.157,0.122,1.59,0.308L281.595,466.547z"/>
			<path id="XMLID_16_" style="fill:#112129;" d="M286.298,469.879c-0.177-0.03-0.358-0.046-0.526-0.046
				c-0.896,0-1.51,0.548-1.51,1.614v3.908h-1.932v-7.172h1.873v0.785c0.451-0.673,1.14-0.977,2.021-0.977
				c0.414,0,0.848,0.128,1.094,0.337L286.298,469.879z"/>
			<path id="XMLID_13_" style="fill:#112129;" d="M293.965,471.757c0,0.222-0.015,0.489-0.037,0.651h-5.085
				c0.207,1.036,0.933,1.488,1.843,1.488c0.622,0,1.295-0.252,1.813-0.688l1.132,1.243c-0.814,0.748-1.85,1.088-3.057,1.088
				c-2.198,0-3.723-1.495-3.723-3.753c0-2.258,1.48-3.797,3.627-3.797C292.544,467.99,293.958,469.522,293.965,471.757z
				 M288.851,471.091h3.175c-0.177-0.918-0.733-1.436-1.562-1.436C289.554,469.655,289.021,470.203,288.851,471.091z"/>
			<path id="XMLID_10_" style="fill:#112129;" d="M301.618,471.757c0,0.222-0.015,0.489-0.037,0.651h-5.085
				c0.207,1.036,0.933,1.488,1.843,1.488c0.622,0,1.295-0.252,1.813-0.688l1.132,1.243c-0.814,0.748-1.85,1.088-3.057,1.088
				c-2.198,0-3.723-1.495-3.723-3.753c0-2.258,1.48-3.797,3.627-3.797C300.197,467.99,301.611,469.522,301.618,471.757z
				 M296.504,471.091h3.175c-0.178-0.918-0.733-1.436-1.562-1.436C297.207,469.655,296.674,470.203,296.504,471.091z"/>
			<path id="XMLID_7_" style="fill:#112129;" d="M309.964,471.764c0,2.154-1.495,3.775-3.471,3.775
				c-0.962,0-1.643-0.378-2.109-0.933v3.708h-1.924v-10.133h1.887v0.792c0.466-0.585,1.155-0.984,2.139-0.984
				C308.469,467.99,309.964,469.61,309.964,471.764z M304.287,471.764c0,1.132,0.747,1.976,1.843,1.976
				c1.14,0,1.85-0.881,1.85-1.976c0-1.095-0.71-1.976-1.85-1.976C305.035,469.788,304.287,470.632,304.287,471.764z"/>
			<path id="XMLID_4_" style="fill:#112129;" d="M313.068,465.836c0,0.696-0.54,1.229-1.236,1.229c-0.696,0-1.229-0.533-1.229-1.229
				c0-0.696,0.533-1.243,1.229-1.243C312.527,464.592,313.068,465.14,313.068,465.836z M312.809,475.354h-1.932v-7.172h1.932
				V475.354z"/>
			<path id="XMLID_2_" style="fill:#112129;" d="M316.032,470.736l2.701-2.554h2.368l-3.479,3.375l3.501,3.797h-2.376l-2.716-2.901
				v2.901H314.1v-10.658h1.932V470.736z"/>
		</g>
		<g>
			<path style="fill:#112129;" d="M184.412,475.289v-1.055c-0.527,0.718-1.391,1.23-2.387,1.23c-1.846,0-3.149-1.406-3.149-3.706
				c0-2.256,1.289-3.721,3.149-3.721c0.952,0,1.816,0.469,2.387,1.245v-3.765h1.099v9.77H184.412z M184.412,473.37v-3.208
				c-0.395-0.615-1.245-1.143-2.124-1.143c-1.421,0-2.27,1.172-2.27,2.739c0,1.567,0.85,2.724,2.27,2.724
				C183.168,474.483,184.017,473.986,184.412,473.37z"/>
			<path style="fill:#112129;" d="M186.932,471.744c0-2.051,1.465-3.706,3.486-3.706c2.139,0,3.398,1.67,3.398,3.794v0.279h-5.727
				c0.088,1.333,1.025,2.446,2.549,2.446c0.805,0,1.626-0.322,2.182-0.894l0.527,0.718c-0.703,0.703-1.655,1.084-2.812,1.084
				C188.44,475.465,186.932,473.956,186.932,471.744z M190.403,468.947c-1.509,0-2.256,1.274-2.314,2.358h4.643
				C192.718,470.25,192.015,468.947,190.403,468.947z"/>
			<path style="fill:#112129;" d="M194.607,474.351l0.571-0.791c0.469,0.542,1.362,1.011,2.329,1.011c1.084,0,1.67-0.513,1.67-1.216
				c0-1.714-4.38-0.659-4.38-3.281c0-1.098,0.952-2.036,2.636-2.036c1.201,0,2.051,0.454,2.622,1.026l-0.513,0.762
				c-0.424-0.513-1.201-0.894-2.109-0.894c-0.967,0-1.567,0.483-1.567,1.113c0,1.552,4.38,0.527,4.38,3.281
				c0,1.187-0.952,2.138-2.783,2.138C196.306,475.465,195.325,475.113,194.607,474.351z"/>
			<path style="fill:#112129;" d="M201.477,466.471c0-0.41,0.337-0.747,0.732-0.747c0.41,0,0.747,0.337,0.747,0.747
				c0,0.41-0.337,0.732-0.747,0.732C201.814,467.203,201.477,466.881,201.477,466.471z M201.667,475.289v-7.075h1.099v7.075H201.667
				z"/>
			<path style="fill:#112129;" d="M204.582,477.105l0.556-0.82c0.586,0.703,1.289,0.967,2.3,0.967c1.172,0,2.27-0.571,2.27-2.124
				v-1.011c-0.513,0.718-1.377,1.26-2.373,1.26c-1.845,0-3.149-1.377-3.149-3.662c0-2.27,1.289-3.677,3.149-3.677
				c0.952,0,1.802,0.469,2.373,1.245v-1.069h1.098v6.87c0,2.344-1.641,3.076-3.369,3.076
				C206.237,478.16,205.417,477.926,204.582,477.105z M209.709,473.253v-3.091c-0.381-0.615-1.23-1.143-2.109-1.143
				c-1.421,0-2.27,1.128-2.27,2.695c0,1.553,0.849,2.695,2.27,2.695C208.478,474.41,209.328,473.868,209.709,473.253z"/>
			<path style="fill:#112129;" d="M217.413,475.289v-4.629c0-1.245-0.63-1.641-1.582-1.641c-0.865,0-1.685,0.527-2.095,1.099v5.17
				h-1.099v-7.075h1.099v1.025c0.498-0.586,1.465-1.201,2.519-1.201c1.48,0,2.256,0.747,2.256,2.285v4.966H217.413z"/>
			<path style="fill:#112129;" d="M219.932,471.744c0-2.051,1.465-3.706,3.486-3.706c2.139,0,3.398,1.67,3.398,3.794v0.279h-5.727
				c0.088,1.333,1.025,2.446,2.549,2.446c0.806,0,1.626-0.322,2.183-0.894l0.527,0.718c-0.703,0.703-1.655,1.084-2.812,1.084
				C221.441,475.465,219.932,473.956,219.932,471.744z M223.404,468.947c-1.509,0-2.256,1.274-2.314,2.358h4.643
				C225.718,470.25,225.015,468.947,223.404,468.947z"/>
			<path style="fill:#112129;" d="M233.35,475.289v-1.055c-0.527,0.718-1.392,1.23-2.388,1.23c-1.846,0-3.149-1.406-3.149-3.706
				c0-2.256,1.289-3.721,3.149-3.721c0.952,0,1.817,0.469,2.388,1.245v-3.765h1.098v9.77H233.35z M233.35,473.37v-3.208
				c-0.396-0.615-1.245-1.143-2.124-1.143c-1.421,0-2.27,1.172-2.27,2.739c0,1.567,0.849,2.724,2.27,2.724
				C232.105,474.483,232.954,473.986,233.35,473.37z"/>
			<path style="fill:#112129;" d="M239.692,475.289v-9.77h1.098v3.765c0.572-0.776,1.421-1.245,2.388-1.245
				c1.845,0,3.149,1.465,3.149,3.721c0,2.299-1.304,3.706-3.149,3.706c-0.996,0-1.86-0.513-2.388-1.23v1.055H239.692z
				 M242.9,474.483c1.436,0,2.285-1.157,2.285-2.724c0-1.568-0.85-2.739-2.285-2.739c-0.864,0-1.728,0.527-2.109,1.143v3.208
				C241.171,473.986,242.036,474.483,242.9,474.483z"/>
			<path style="fill:#112129;" d="M247.528,477.061c0.161,0.073,0.425,0.117,0.601,0.117c0.483,0,0.805-0.161,1.055-0.747
				l0.469-1.069l-2.959-7.148h1.187l2.358,5.8l2.344-5.8h1.201l-3.545,8.51c-0.425,1.025-1.143,1.421-2.08,1.435
				c-0.234,0-0.601-0.044-0.806-0.103L247.528,477.061z"/>
		</g>
	</g>
</g>
</svg>
