<?xml version="1.0" encoding="utf-8"?>
<!-- Generator: Adobe Illustrator 27.5.0, SVG Export Plug-In . SVG Version: 6.00 Build 0)  -->
<svg version="1.1" xmlns="http://www.w3.org/2000/svg" xmlns:xlink="http://www.w3.org/1999/xlink" x="0px" y="0px"
	 viewBox="0 0 500 500" style="enable-background:new 0 0 500 500;" xml:space="preserve">
<g id="BACKGROUND">
	<rect style="fill:#EFF2E6;" width="500" height="500"/>
</g>
<g id="OBJECTS">
	<g>
		<path style="fill:#E0E2D5;" d="M478.88,473.653H27.466c-5.141,0-9.308-4.168-9.308-9.309v-0.134c0-5.141,4.168-9.309,9.308-9.309
			H478.88c5.141,0,9.309,4.168,9.309,9.309v0.134C488.188,469.486,484.021,473.653,478.88,473.653z"/>
		<path style="opacity:0.29;fill:#E0E2D5;" d="M448.333,464.043c-11.556-11.776-11.39-30.362-10.475-46.836
			c1.272-22.913,2.648-46.306,11.229-67.59c7.839-19.444,21.807-38.345,18.597-59.064c-3.47-22.397-27.3-37.313-49.962-37.539
			c-22.663-0.226-43.876,10.861-62.645,23.563c-7.809,5.285-15.475,10.947-24.167,14.603c-10.21,4.296-21.539,5.645-32.572,4.656
			c-29.791-2.67-57.231-23.419-67.916-51.356c-8.752-22.882-6.635-48.234-6.019-72.725c0.616-24.491-0.947-50.69-15.416-70.46
			c-8.189-11.189-19.888-19.337-32.106-25.891c-15.566-8.35-33.379-14.551-50.722-11.203c-16.106,3.11-29.59,14.027-40.837,25.967
			c-38.003,40.346-57.975,97.082-53.624,152.337c1.978,25.128,8.689,49.603,14.778,74.063
			c8.859,35.584,16.511,72.039,14.216,108.638c-0.902,14.378-4.681,30.655-17.356,37.5L448.333,464.043z"/>
		<g>
			<rect x="415.101" y="305.247" style="fill:#0372D8;" width="5.321" height="156.303"/>
			<rect x="320.8" y="305.247" style="fill:#0372D8;" width="5.321" height="156.303"/>
			<path style="fill:#429EE2;" d="M425.684,308.109H321.16c-2.204,0-3.991-1.787-3.991-3.991l0,0c0-2.204,1.787-3.991,3.991-3.991
				h104.524c2.204,0,3.991,1.787,3.991,3.991l0,0C429.675,306.322,427.888,308.109,425.684,308.109z"/>
		</g>
		<g>
			<path style="fill:#00896C;" d="M68.456,422.85c0,0,22.841-17.169,40.111-70.637c0.294-0.91-0.661-1.722-1.51-1.283
				c-8.31,4.305-37.287,22.095-49.821,66.084L68.456,422.85z"/>
			<path style="fill:#017257;" d="M64.695,418.08c0,0,18.016-51.919,5.153-104.59c-0.512-2.097-3.465-2.192-4.123-0.136
				c-5.958,18.628-21.567,70.857-18.954,99.154L64.695,418.08z"/>
			<g>
				<defs>
					<path id="XMLID_10_" d="M71.797,407.539c-3.717-8.995-22.088-50.686-49.683-67.375c-2.47-1.494-5.502,0.748-4.741,3.533
						c4.564,16.695,17.535,59.544,36.181,83.292c1.276,1.625,3.731,1.636,5.008,0.012l12.796-16.289
						C72.068,409.809,72.235,408.599,71.797,407.539z"/>
				</defs>
				<use xlink:href="#XMLID_10_"  style="overflow:visible;fill:#00896C;"/>
				<clipPath id="XMLID_00000105420808946895494620000005265301644599986821_">
					<use xlink:href="#XMLID_10_"  style="overflow:visible;"/>
				</clipPath>
				<g style="clip-path:url(#XMLID_00000105420808946895494620000005265301644599986821_);">
					<g>
						<path style="fill:#028263;" d="M22.862,349.848c10.822,14.672,20.574,30.101,29.08,46.229
							c8.75,16.59,15.591,33.879,22.659,51.219c0.729,1.789,3.58,1.134,2.983-0.823c-10.757-35.281-30.988-68.615-53.417-97.632
							C23.597,348.102,22.301,349.087,22.862,349.848L22.862,349.848z"/>
					</g>
				</g>
			</g>
			<g>
				<defs>
					<path id="XMLID_7_" d="M33.267,419.601c0-2.875,2.33-5.205,5.205-5.205c-2.875,0-5.205-2.33-5.205-5.205
						c0-2.875,2.33-5.205,5.205-5.205h44.014c2.875,0,5.205,2.33,5.205,5.205c0,2.875-2.331,5.205-5.205,5.205
						c2.875,0,5.205,2.33,5.205,5.205s-2.331,5.205-5.205,5.205c2.875,0,5.205,2.33,5.205,5.205s-2.331,5.205-5.205,5.205
						c2.875,0,5.205,2.33,5.205,5.205s-2.331,5.205-5.205,5.205c2.875,0,5.205,2.33,5.205,5.205s-2.331,5.205-5.205,5.205H38.472
						c-2.875,0-5.205-2.33-5.205-5.205s2.33-5.205,5.205-5.205c-2.875,0-5.205-2.33-5.205-5.205s2.33-5.205,5.205-5.205
						c-2.875,0-5.205-2.33-5.205-5.205s2.33-5.205,5.205-5.205C35.598,424.806,33.267,422.476,33.267,419.601z"/>
				</defs>
				<use xlink:href="#XMLID_7_"  style="overflow:visible;fill:#FFB502;"/>
				<clipPath id="XMLID_00000101066698974874171780000016541529758572650152_">
					<use xlink:href="#XMLID_7_"  style="overflow:visible;"/>
				</clipPath>
				<g style="clip-path:url(#XMLID_00000101066698974874171780000016541529758572650152_);">
					<g>
						<path style="fill:#FFEBBD;" d="M124.417,426.456c-14.162-1.911-28.185,1.612-42.237,2.861
							c-13.636,1.212-27.388-0.392-40.318-4.933c-5.966-2.095-11.825-4.74-17.114-8.227c-2.547-1.679-4.954-3.577-7.112-5.737
							c-1.035-1.036-2.012-2.13-2.913-3.284c-0.841-1.076-1.966-2.392-1.986-3.837c-0.023-1.706,2.275-1.886,3.554-2.066
							c1.538-0.216,3.108-0.206,4.649-0.024c3.216,0.379,6.33,1.544,9.139,3.129c5.662,3.196,10.094,8.101,14.518,12.767
							c8.919,9.404,18.659,18.085,29.542,25.165c11.036,7.179,23.258,12.671,36.175,15.385c3.14,0.66,6.316,1.153,9.51,1.468
							c3.207,0.316,6.584,0.641,9.798,0.273c2.722-0.312,5.429-1.476,6.589-4.125c0.47-1.074,0.602-2.304,0.197-3.421
							c-0.464-1.279-1.487-2.211-2.552-3.003c-5.293-3.932-11.795-6.099-18.107-7.75c-6.696-1.751-13.58-2.799-20.493-3.134
							c-6.95-0.336-13.898,0.095-20.77,1.164c-7.079,1.101-14.049,2.777-21.054,4.257c-7.061,1.492-14.16,2.636-21.35,3.286
							c-7.238,0.654-14.506,0.914-21.771,1.047c-3.523,0.064-7.047,0.098-10.571,0.132c-0.543,0.005-0.544,0.85,0,0.844
							c14.466-0.138,28.998-0.286,43.326-2.51c14.01-2.175,27.647-6.548,41.866-7.339c7.093-0.395,14.233-0.029,21.247,1.099
							c6.703,1.078,13.493,2.724,19.74,5.424c1.474,0.637,2.918,1.346,4.313,2.144c1.399,0.8,2.851,1.664,4.042,2.759
							c1.136,1.045,1.811,2.411,1.408,3.961c-0.344,1.324-1.276,2.477-2.435,3.185c-2.754,1.682-6.451,1.31-9.53,1.153
							c-3.293-0.168-6.574-0.535-9.824-1.09c-13.123-2.239-25.617-7.412-36.906-14.401c-11.075-6.856-21.018-15.407-30.057-24.755
							c-4.47-4.622-8.719-9.566-14.056-13.231c-4.972-3.415-11.179-5.648-17.259-4.603c-1.162,0.2-2.754,0.414-3.415,1.536
							c-0.604,1.026-0.229,2.309,0.264,3.296c0.625,1.248,1.595,2.375,2.492,3.435c0.945,1.118,1.959,2.176,3.027,3.177
							c4.367,4.093,9.575,7.202,14.976,9.726c12.112,5.66,25.43,8.706,38.796,8.911c14.142,0.217,27.943-3.495,42.046-3.823
							c3.47-0.081,6.947,0.058,10.388,0.522C124.724,427.341,124.954,426.528,124.417,426.456L124.417,426.456z"/>
					</g>
				</g>
			</g>
		</g>
		<g>
			<g>
				
					<ellipse transform="matrix(0.7796 -0.6262 0.6262 0.7796 42.598 292.9689)" style="fill:#FFE98F;" cx="437.58" cy="85.957" rx="24.039" ry="24.039"/>
				
					<polyline style="fill:none;stroke:#FFDE52;stroke-width:1.5831;stroke-linecap:round;stroke-linejoin:round;stroke-miterlimit:10;" points="
					437.58,66.817 437.58,85.957 453.584,85.957 				"/>
			</g>
			<g>
				<path style="fill:#FFFDE9;" d="M283.434,208.113H31.013c-4.307,0-7.799-3.492-7.799-7.799V51.922
					c0-4.307,3.492-7.799,7.799-7.799h252.421c4.307,0,7.799,3.492,7.799,7.799v148.391
					C291.233,204.621,287.741,208.113,283.434,208.113z"/>
				<g>
					<rect x="67.108" y="95.421" style="fill:#FFE98F;" width="16.478" height="64.735"/>
					<rect x="99.656" y="64.23" style="fill:#FFDE52;" width="16.478" height="95.925"/>
					<rect x="132.205" y="119.902" style="fill:#FFE98F;" width="16.478" height="40.254"/>
					<rect x="164.754" y="76.629" style="fill:#FFDE52;" width="16.478" height="83.527"/>
					<rect x="197.303" y="105.977" style="fill:#FFE98F;" width="16.478" height="54.179"/>
					<rect x="229.851" y="75.225" style="fill:#FFDE52;" width="16.478" height="84.93"/>
					
						<line style="fill:none;stroke:#FFDE52;stroke-width:0.923;stroke-miterlimit:10;" x1="56.515" y1="160.156" x2="262.264" y2="160.156"/>
				</g>
				
					<ellipse transform="matrix(0.2288 -0.9735 0.9735 0.2288 -120.65 210.7798)" style="fill:#FFDE52;" cx="72.705" cy="181.536" rx="9.837" ry="9.837"/>
				<path style="fill:#FFE98F;" d="M244.199,175.96H100.36c-1.177,0-2.13-0.954-2.13-2.13l0,0c0-1.177,0.954-2.13,2.13-2.13h143.839
					c1.177,0,2.13,0.954,2.13,2.13l0,0C246.329,175.006,245.375,175.96,244.199,175.96z"/>
				<path style="fill:#FFE98F;" d="M244.199,183.667H100.36c-1.177,0-2.13-0.954-2.13-2.13l0,0c0-1.177,0.954-2.13,2.13-2.13
					h143.839c1.177,0,2.13,0.954,2.13,2.13l0,0C246.329,182.713,245.375,183.667,244.199,183.667z"/>
				<path style="fill:#FFE98F;" d="M244.199,191.373H100.36c-1.177,0-2.13-0.954-2.13-2.13l0,0c0-1.177,0.954-2.13,2.13-2.13
					h143.839c1.177,0,2.13,0.954,2.13,2.13l0,0C246.329,190.419,245.375,191.373,244.199,191.373z"/>
			</g>
			<g>
				<path style="fill:#FFFAD9;" d="M394.437,126.113H260.249c-2.487,0-4.504-2.016-4.504-4.504V28.263
					c0-2.487,2.016-4.504,4.504-4.504h134.187c2.487,0,4.504,2.016,4.504,4.504v93.346
					C398.94,124.096,396.924,126.113,394.437,126.113z"/>
				<g>
					<path style="fill:#FFF3B6;" d="M304.464,38.036c-12.156-4.244-25.684,1.616-30.789,13.638
						c-5.105,12.022,0.072,25.826,11.567,31.626L304.464,38.036z"/>
					<path style="fill:#FFEB97;" d="M318.674,71.594l-21.685-9.209c-0.089-0.038-0.168-0.082-0.239-0.131l-9.347,22.01
						c12.141,4.745,25.895-0.806,31.341-12.648C318.721,71.608,318.698,71.605,318.674,71.594z"/>
					<path style="fill:#FFE98F;" d="M297.914,60.207l21.685,9.209c0.011,0.005,0.018,0.011,0.029,0.016
						c4.179-11.934-1.391-25.191-12.97-30.51l-9.005,21.204C297.738,60.143,297.825,60.169,297.914,60.207z"/>
				</g>
				<path style="fill:#FFE98F;" d="M382.628,102.961H274.157c-1.038,0-1.879-0.841-1.879-1.879V98.01
					c0-1.038,0.841-1.879,1.879-1.879h108.472c1.038,0,1.879,0.841,1.879,1.879v3.072
					C384.507,102.12,383.666,102.961,382.628,102.961z"/>
				<path style="fill:#FFE98F;" d="M382.628,114.367H274.157c-1.038,0-1.879-0.841-1.879-1.879v-3.072
					c0-1.038,0.841-1.879,1.879-1.879h108.472c1.038,0,1.879,0.841,1.879,1.879v3.072
					C384.507,113.526,383.666,114.367,382.628,114.367z"/>
				<rect x="328.392" y="36.66" style="fill:#FFE98F;" width="7.885" height="52.378"/>
				<rect x="343.505" y="36.66" style="fill:#FFE98F;" width="7.885" height="52.378"/>
				<rect x="358.619" y="36.66" style="fill:#FFE98F;" width="7.885" height="52.378"/>
				<rect x="373.732" y="36.66" style="fill:#FFE98F;" width="7.885" height="52.378"/>
				<rect x="328.392" y="55.009" style="fill:#FFDE52;" width="7.885" height="34.028"/>
				<rect x="343.505" y="66.605" style="fill:#FFDE52;" width="7.885" height="22.432"/>
				<rect x="358.619" y="44.744" style="fill:#FFDE52;" width="7.885" height="44.294"/>
				<rect x="373.732" y="57.85" style="fill:#FFDE52;" width="7.885" height="31.187"/>
			</g>
		</g>
		<g>
			<g>
				<path style="fill:#FFB8AE;" d="M376.481,190.063c-2.541,1.51-47.401,23.918-63.931,14.233
					c-14.287-8.355-20.707-57.312-20.707-57.312s-6.356-5.137-7.792-14.132c-0.969-6.07-4.778-11.071-4.043-12.322
					c0.402-0.684,1.815-1,3.172,0.103c0.045,0.036,0.099,0.081,0.154,0.136c-0.651-2.857-0.66-5.136,0.696-5.706
					c0.633-0.271,1.447,0.588,2.243,1.818c0.344,0.534,0.723,1.23,1.112,2.044c-0.977-3.933-1.157-7.243,0.633-7.957
					c1.157-0.461,2.794,2.143,4.395,5.606c-0.19-1.836,0.136-3.219,1.366-3.617c2.125-0.696,6.755,14.839,6.755,14.839
					s4.705,0.663,5.31,3.071c1.27,5.053,1.329,12.363,1.329,12.363l17.631,37.22c34.316-21.241,47.021-19.062,47.021-19.062
					L376.481,190.063z"/>
				<path style="fill:#FFB8AE;" d="M296.322,135.984c-0.332-0.332-0.453-3.764,2.541-8.082c2.994-4.318,2.109-9.045,4.544-9.394
					c2.436-0.349,2.978,15.06,2.978,15.06"/>
				
					<path style="fill:none;stroke:#42210B;stroke-width:0.9412;stroke-linecap:round;stroke-linejoin:round;stroke-miterlimit:10;" d="
					M303.408,118.509c0,0-1.543-0.861-2.709,5.539s-4.48,4.374-4.539,10.868"/>
				
					<path style="fill:none;stroke:#42210B;stroke-width:0.9412;stroke-linecap:round;stroke-linejoin:round;stroke-miterlimit:10;" d="
					M286.445,132.852c0,0,1.006-6.159,8.25-8.711"/>
				<g>
					<path style="fill:#FF958A;" d="M356.241,171.493c-2.69,5.983-4.699,12.128-6.252,18.455c-0.212,2.164-0.324,4.344-0.318,6.543
						c0.004,1.541,0.016,3.199,0.125,4.873c13.585-4.579,25.419-10.548,26.688-11.304l-4.662-28.671c0,0-3.486-0.587-11.71,1.884
						C358.797,166.001,357.483,168.73,356.241,171.493z"/>
					<path style="fill:#FF958A;" d="M327.734,206.515c-5.997,0.545-11.355,0.028-15.188-2.216c-1.137-0.665-2.223-1.589-3.261-2.724
						C314.935,197.382,324.976,200.057,327.734,206.515z"/>
					
						<path style="fill:none;stroke:#42210B;stroke-width:0.9412;stroke-linecap:round;stroke-linejoin:round;stroke-miterlimit:10;" d="
						M315.06,159.16c0,0,11.496,21.921,14.383,32.726"/>
				</g>
				
					<path style="fill:none;stroke:#42210B;stroke-width:0.9412;stroke-linecap:round;stroke-linejoin:round;stroke-miterlimit:10;" d="
					M288.018,110.967c0,0-4.128,1.619,2.366,15.151"/>
				
					<path style="fill:none;stroke:#42210B;stroke-width:0.9412;stroke-linecap:round;stroke-linejoin:round;stroke-miterlimit:10;" d="
					M293.778,112.957c0,0-3.508,0.252,0.207,11.184"/>
				
					<path style="fill:none;stroke:#42210B;stroke-width:0.9412;stroke-linecap:round;stroke-linejoin:round;stroke-miterlimit:10;" d="
					M284.03,115.064c0,0-3.563,3.031,3.777,13.435"/>
				
					<path style="fill:none;stroke:#42210B;stroke-width:0.9412;stroke-linecap:round;stroke-linejoin:round;stroke-miterlimit:10;" d="
					M281.209,119.915c0,0-2.512,0-0.157,4.226c1.098,1.968,2.4,5.545,2.838,7.847"/>
			</g>
			<g>
				<g>
					<g>
						<path style="fill:#8C6239;" d="M387.299,100.43c-0.587,6.088-1.205,12.498-4.104,17.996
							c-3.024,5.734-8.746,9.54-14.957,11.107c-1.741,0.439-3.528,0.664-5.325,0.568c-1.811-0.097-3.568-0.604-5.248-1.268
							c-0.594-0.234-0.827,0.628-0.4,0.949c2.731,2.054,6.498,2.086,9.73,1.508c3.326-0.595,6.574-1.969,9.434-3.754
							c2.889-1.803,5.366-4.175,7.141-7.092c1.66-2.728,2.679-5.812,3.341-8.922c0.777-3.651,1.07-7.374,1.319-11.092
							C388.272,99.827,387.356,99.841,387.299,100.43L387.299,100.43z"/>
					</g>
				</g>
				<path style="fill:#8C6239;" d="M377.205,143.549c5.134,1.523,10.432,2.372,15.7,3.284c6.554,1.134,13.147,1.502,19.753,0.531
					c3.255-0.478,6.459-1.224,9.571-2.29c0.436-0.149,0.867-0.311,1.3-0.469c-0.675-2.968-0.758-6.477,0.209-10.912
					c4.428-20.279-10.667-31.613-11.137-31.956c-0.007-0.011-0.005-0.02-0.017-0.013c-3.571-2.985-8.378-4.68-14.349-4.333
					c-2.805,0.162-5.437,0.943-7.811,2.217c0,0-5.03,1.456-5.701,4.441c-3.935,4.342-6.223,10.297-5.868,16.375
					c0.026,0.495,0.08,0.995,0.147,1.478c-2.672,6.051-6.255,11.807-10.929,15.09c-0.635,0.445-1.251,0.966-1.846,1.551
					C369.569,140.781,373.303,142.392,377.205,143.549z"/>
				<path style="fill:#FFB8AE;" d="M383.21,144.156l2.184-6.845l-4.726,0.753c-3.947,0.629-7.233-3.014-6.203-6.875l6.811-25.223
					c0.49-1.814,2.101-3.115,3.978-3.196c26.891-1.161,17.766,27.95,17.766,27.95l-3.52,16.618
					c-0.509,2.404-0.751,6.906,0.781,8.827l4.098,6.476l-26.214,19.924l-2.276-24.064
					C379.831,156.173,381.819,148.516,383.21,144.156z"/>
				<path style="fill:#8C6239;" d="M405.405,98.051c-20.763-5.28-23.612,5.999-23.612,5.999l-1.656,6.131
					c0,0,1.349-0.245,3.923-2.815l-0.02-0.03c7.161,8.674,21.114,13.125,21.114,13.125
					C412.726,119.42,423.003,102.526,405.405,98.051z"/>
				<path style="fill:#FF7664;" d="M387.726,123.897c0.157,2.694,2.469,4.75,5.163,4.593c2.694-0.157,4.75-2.469,4.593-5.162
					c-0.157-2.694-2.469-4.75-5.163-4.593C389.625,118.892,387.569,121.204,387.726,123.897z"/>
				<path style="fill:#42210B;" d="M385.394,137.311l5.794-2.395c0,0-0.177,6.963-7.682,8.314L385.394,137.311z"/>
				<path style="fill:#FFB8AE;" d="M398.892,124.959c0.16,2.739,2.51,4.83,5.25,4.67c2.739-0.16,4.831-2.511,4.67-5.25
					c-0.16-2.739-2.51-4.83-5.25-4.67C400.823,119.869,398.732,122.22,398.892,124.959z"/>
				<g>
					
						<path style="fill:none;stroke:#E87163;stroke-width:0.793;stroke-linecap:round;stroke-linejoin:round;stroke-miterlimit:10;" d="
						M402.722,122.011c0,0,4.475-0.27,3.544,4.069"/>
					
						<path style="fill:none;stroke:#E87163;stroke-width:0.793;stroke-linecap:round;stroke-linejoin:round;stroke-miterlimit:10;" d="
						M405.301,122.986c0,0-0.88,3.734-3.573,3.676"/>
				</g>
				
					<path style="fill:#FFFFFF;stroke:#42210B;stroke-width:0.9412;stroke-linecap:round;stroke-linejoin:round;stroke-miterlimit:10;" d="
					M379.501,127.389c4.476,9.642,5.18-1.467,5.18-1.467L379.501,127.389z"/>
				<path style="fill:#603813;" d="M389.238,118.715c-0.276,1.389-0.965,2.424-1.538,2.31c-0.573-0.114-0.813-1.333-0.536-2.722
					c0.276-1.39,0.965-2.424,1.537-2.31C389.275,116.107,389.515,117.326,389.238,118.715z"/>
				<path style="fill:#603813;" d="M381.344,117.145c-0.276,1.389-0.965,2.423-1.538,2.31c-0.573-0.114-0.813-1.333-0.536-2.722
					c0.276-1.389,0.965-2.423,1.538-2.31C381.38,114.536,381.62,115.755,381.344,117.145z"/>
				<path style="fill:#8C6239;" d="M408.254,94.771c-1.275,6.409,2.887,12.639,9.296,13.914c6.41,1.275,12.639-2.887,13.914-9.296
					c1.275-6.41-2.887-12.639-9.296-13.914C415.759,84.199,409.53,88.362,408.254,94.771z"/>
				<path style="fill:#FF7664;" d="M383.97,117.11c0.051-0.191-0.196-0.317-0.313-0.157c-0.963,1.321-2.944,3.949-4.241,5.053
					c-0.866,0.738,1.631,2.128,2.359,2.509c0.102,0.053,0.22-0.005,0.25-0.116L383.97,117.11z"/>
				<path style="fill:#FFB502;" d="M409.255,131.65c0,1.804-1.462,3.266-3.266,3.266c-1.804,0-3.267-1.462-3.267-3.266
					s1.462-3.266,3.267-3.266C407.792,128.383,409.255,129.846,409.255,131.65z"/>
			</g>
			<g>
				<g>
					<defs>
						<path id="XMLID_9_" d="M403.042,156.586c0,0,9.046,4.273,20.418,10.513c0,0-9.188,20.59-8.823,32.342
							c0.365,11.752,3.861,27.221-8.639,39.365h-57.184c0,0-1.917-26.439,5.228-52.509c7.924-28.913,13.966-26.899,20.232-28.807
							L403.042,156.586z"/>
					</defs>
					<use xlink:href="#XMLID_9_"  style="overflow:visible;fill:#FFB500;"/>
					<clipPath id="XMLID_00000155845025736373409790000006309572080527258532_">
						<use xlink:href="#XMLID_9_"  style="overflow:visible;"/>
					</clipPath>
					<g style="clip-path:url(#XMLID_00000155845025736373409790000006309572080527258532_);">
						<g>
							<path style="fill:#FFD985;" d="M353.512,231.642c14.728,0,14.752-22.889,0-22.889
								C338.784,208.753,338.76,231.642,353.512,231.642L353.512,231.642z"/>
						</g>
					</g>
					<g style="clip-path:url(#XMLID_00000155845025736373409790000006309572080527258532_);">
						<g>
							<path style="fill:#FFD985;" d="M380.094,203.543c15.587,0,15.613-24.224,0-24.224
								C364.507,179.319,364.481,203.543,380.094,203.543L380.094,203.543z"/>
						</g>
					</g>
					<g style="clip-path:url(#XMLID_00000155845025736373409790000006309572080527258532_);">
						<g>
							<path style="fill:#FFD985;" d="M408.363,236.45c0.121-0.121,0.243-0.243,0.364-0.364c0.986-0.916,1.683-2,2.09-3.253
								c0.633-1.205,0.923-2.503,0.871-3.895c0.052-1.392-0.238-2.69-0.871-3.895c-0.408-1.253-1.104-2.338-2.09-3.253
								c-0.682-0.527-1.364-1.054-2.046-1.581c-1.577-0.915-3.277-1.375-5.102-1.38c-0.896,0.12-1.792,0.241-2.688,0.361
								c-1.713,0.48-3.199,1.347-4.461,2.6c-0.121,0.121-0.243,0.243-0.364,0.364c-0.986,0.916-1.683,2-2.09,3.253
								c-0.633,1.205-0.923,2.503-0.871,3.895c-0.052,1.392,0.238,2.69,0.871,3.895c0.408,1.253,1.104,2.338,2.09,3.253
								c0.682,0.527,1.364,1.054,2.046,1.581c1.577,0.914,3.277,1.375,5.102,1.38c0.896-0.12,1.792-0.241,2.688-0.361
								C405.615,238.569,407.102,237.702,408.363,236.45L408.363,236.45z"/>
						</g>
					</g>
					<g style="clip-path:url(#XMLID_00000155845025736373409790000006309572080527258532_);">
						<g>
							<path style="fill:#FFD985;" d="M417.965,187.521c15.587,0,15.613-24.224,0-24.224
								C402.378,163.297,402.352,187.521,417.965,187.521L417.965,187.521z"/>
						</g>
					</g>
					<g style="clip-path:url(#XMLID_00000155845025736373409790000006309572080527258532_);">
						<g>
							<path style="fill:#FFD985;" d="M364.436,170.042c15.587,0,15.613-24.224,0-24.224
								C348.849,145.818,348.824,170.042,364.436,170.042L364.436,170.042z"/>
						</g>
					</g>
					<path style="opacity:0.43;clip-path:url(#XMLID_00000155845025736373409790000006309572080527258532_);fill:#FF9803;" d="
						M419.878,163.382c0,0-23.135,2.367-11.112,41.869C420.788,244.754,448.276,163.382,419.878,163.382z"/>
				</g>
				<path style="fill:#FFE7B8;" d="M400.322,152.34c0,0-6.456,3.501-14.302,4.352l7.924,7.377c0.911,1.509,2.93,1.895,4.334,0.829
					l9.887-6.716L400.322,152.34z"/>
				<path style="fill:#FFE7B8;" d="M379.924,152.34c0,0,1.693,4.246,6.096,4.352l-7.855,4.829c-1.341,0.824-3.095,0.415-3.933-0.917
					l-1.819-2.893L379.924,152.34z"/>
				<path style="fill:#FFE7B8;" d="M385.496,162.941c0,0.55-0.446,0.995-0.995,0.995c-0.55,0-0.995-0.446-0.995-0.995
					s0.446-0.995,0.995-0.995C385.051,161.946,385.496,162.392,385.496,162.941z"/>
				<circle style="fill:#FFE7B8;" cx="383.506" cy="168.029" r="0.995"/>
			</g>
			<g>
				<g>
					<path style="fill:#FFB8AE;" d="M352.863,380.712l24.889,64.1c0,0-23.525,6.59-31.574,10.439c0,0-6.974,1.495-8.945,4.483
						c-0.513,0.778,0.035,1.816,0.967,1.816h67.82c7.232,0,1.75-8.399,0-13.298l-14.071-65.654L352.863,380.712z"/>
				</g>
				<g>
					<path style="fill:#FFE7B8;" d="M400.66,423.24h-31.283l8.376,21.572c0,0-23.525,6.59-31.574,10.439
						c0,0-6.974,1.495-8.945,4.483c-0.513,0.778,0.035,1.816,0.967,1.816h67.82c7.232,0,1.75-8.399,0-13.298L400.66,423.24z"/>
				</g>
				<g>
					<path style="fill:#FFB502;" d="M406.02,448.253c0.573,1.605,1.548,3.587,2.344,5.525c1.634,3.977,2.518,7.773-2.344,7.773
						h-67.82c-0.932,0-1.48-1.038-0.967-1.816c1.97-2.989,8.945-4.483,8.945-4.483c3.046-1.457,8.309-3.306,13.675-5.042
						c0,0,7.672-3.229,9.912,2.5h30.615L406.02,448.253z"/>
				</g>
			</g>
			<g>
				<g>
					<path style="fill:#FFB8AE;" d="M272.587,380.712l-22.157,64.1c0,0-23.525,6.59-31.574,10.439c0,0-6.974,1.495-8.945,4.483
						c-0.513,0.778,0.035,1.816,0.967,1.816h67.82c7.232,0,1.75-8.399,0-13.298l32.975-65.654L272.587,380.712z"/>
				</g>
				<g>
					<path style="fill:#FFE7B8;" d="M291.457,422.85h-33.435l-7.591,21.962c0,0-23.525,6.59-31.574,10.439
						c0,0-6.974,1.495-8.945,4.483c-0.513,0.778,0.035,1.816,0.967,1.816h67.82c7.232,0,1.75-8.399,0-13.298L291.457,422.85z"/>
				</g>
				<g>
					<path style="fill:#FFB502;" d="M278.698,448.253c0.573,1.605,1.548,3.587,2.344,5.525c1.634,3.977,2.518,7.773-2.344,7.773
						h-67.82c-0.932,0-1.48-1.038-0.967-1.816c1.971-2.989,8.945-4.483,8.945-4.483c3.046-1.457,8.309-3.306,13.675-5.042
						c0,0,7.672-3.229,9.912,2.5h30.615L278.698,448.253z"/>
				</g>
			</g>
			<g>
				<rect x="349.671" y="236.7" style="fill:#FF6700;" width="65.43" height="7.148"/>
				<g>
					<defs>
						<path id="XMLID_2_" d="M415.105,243.848l-71.22,92.85l-3.2,4.17l-14.22,41.29v0.01l-9.62,27.91h-63.69
							c0,0,42.94-104.65,59.46-130.03c9.09-13.96,35.96-29.91,35.96-29.91l1.1-6.29H415.105z"/>
					</defs>
					<use xlink:href="#XMLID_2_"  style="overflow:visible;fill:#FF9100;"/>
					<clipPath id="XMLID_00000062165337268378763850000018055619984550989956_">
						<use xlink:href="#XMLID_2_"  style="overflow:visible;"/>
					</clipPath>
					<g style="clip-path:url(#XMLID_00000062165337268378763850000018055619984550989956_);">
						<g>
							<path style="fill:#FFD8A9;" d="M237.532,404.004c28.734,0,57.468,0,86.202,0c8.139,0,16.277,0,24.415,0c1.93,0,1.934-3,0-3
								c-28.734,0-57.468,0-86.202,0c-8.138,0-16.277,0-24.415,0C235.601,401.004,235.598,404.004,237.532,404.004L237.532,404.004z
								"/>
						</g>
					</g>
					<g style="clip-path:url(#XMLID_00000062165337268378763850000018055619984550989956_);">
						<g>
							<path style="fill:#FFD8A9;" d="M244.989,398.089c29.275,0,58.55,0,87.825,0c8.288,0,16.576,0,24.863,0c1.93,0,1.934-3,0-3
								c-29.275,0-58.55,0-87.825,0c-8.288,0-16.576,0-24.863,0C243.058,395.089,243.055,398.089,244.989,398.089L244.989,398.089z"
								/>
						</g>
					</g>
				</g>
				<path style="fill:#42210B;" d="M343.885,336.698l-3.2,4.17l-14.22,41.29c-31.31-43.37,11.878-113.919,11.878-113.919
					L343.885,336.698z"/>
				<g>
					<defs>
						<path id="XMLID_1_" d="M429.675,410.078h-68.5c0,0-13.99-40.21-20.49-69.21c-3.06-13.67-28.14-75.45,20.49-87.48l54.05-9.54
							l5.86,16.71c0,0,7.65,18.23,2.13,31.41h-0.01c-3.01,7.21-9.97,12.91-24.29,13.28h-0.03L429.675,410.078z"/>
					</defs>
					<use xlink:href="#XMLID_1_"  style="overflow:visible;fill:#FF9100;"/>
					<clipPath id="XMLID_00000002352495162296057740000003327400020193044667_">
						<use xlink:href="#XMLID_1_"  style="overflow:visible;"/>
					</clipPath>
					<g style="clip-path:url(#XMLID_00000002352495162296057740000003327400020193044667_);">
						<g>
							<path style="fill:#FFD8A9;" d="M345.663,405.367c29.915,0,59.831,0,89.746,0c8.476,0,16.952,0,25.428,0c1.93,0,1.933-3,0-3
								c-29.916,0-59.831,0-89.746,0c-8.476,0-16.952,0-25.428,0C343.733,402.367,343.729,405.367,345.663,405.367L345.663,405.367z
								"/>
						</g>
					</g>
					<g style="clip-path:url(#XMLID_00000002352495162296057740000003327400020193044667_);">
						<g>
							<path style="fill:#FFD8A9;" d="M339.863,400.01c32.279,0,64.557,0,96.836,0c9.151,0,18.302,0,27.453,0c1.93,0,1.934-3,0-3
								c-32.278,0-64.557,0-96.835,0c-9.151,0-18.302,0-27.453,0C337.932,397.01,337.929,400.01,339.863,400.01L339.863,400.01z"/>
						</g>
					</g>
				</g>
				
					<line style="fill:none;stroke:#42210B;stroke-width:0.9412;stroke-linecap:round;stroke-linejoin:round;stroke-miterlimit:10;" x1="395.389" y1="294.171" x2="405.988" y2="329.443"/>
				<path style="fill:#42210B;" d="M423.205,291.968c-3.01,7.21-9.97,12.91-24.29,13.28l-2.8-8.66
					C397.335,296.288,405.385,298.767,423.205,291.968z"/>
				
					<path style="fill:none;stroke:#42210B;stroke-width:0.9412;stroke-linecap:round;stroke-linejoin:round;stroke-miterlimit:10;" d="
					M352.031,257.102c0,0-38.47,12.538-10.823,86.051"/>
				
					<path style="fill:none;stroke:#42210B;stroke-width:0.9412;stroke-linecap:round;stroke-linejoin:round;stroke-miterlimit:10;" d="
					M405.988,247.051c0,0,8.929,19.58,2.476,26.7"/>
				
					<path style="fill:none;stroke:#42210B;stroke-width:0.9412;stroke-linecap:round;stroke-linejoin:round;stroke-miterlimit:10;" d="
					M397.34,249.053c0,0,0.883,17.852,13.466,18.245"/>
			</g>
			<g>
				<path style="fill:#FFB8AE;" d="M372.296,241.116c0,0,61.642,2.583,71.567-7.342c15.399-15.399-10.184-72.445-26.516-67.288
					c-16.176,5.108,0,51.887,0,51.887l-46.848,11.583c0,0-9.913-1.144-15.788,1.351c-4.018,1.706-8.999,4.188-11.893,6.597
					c-1.305,1.087-0.523,3.212,1.175,3.212h10.085c0.41,0,0.811-0.108,1.166-0.314c1.587-0.92,6.275-3.52,7.923-3.145
					C365.166,238.11,364.909,241.116,372.296,241.116z"/>
				<path style="fill:#FF958A;" d="M444.959,225.439c-2.308,0.837-4.486,2.087-6.53,3.435c-1.801,1.188-3.353,2.435-4.684,4.192
					c-1.2,1.585-2.317,3.561-3.065,5.662c6.139-1.138,10.961-2.732,13.185-4.955c2.249-2.249,3.618-5.39,4.276-9.092
					C447.051,224.743,445.976,225.07,444.959,225.439z"/>
				
					<path style="fill:none;stroke:#42210B;stroke-width:0.9412;stroke-linecap:round;stroke-linejoin:round;stroke-miterlimit:10;" d="
					M400.654,222.5c0.628-0.155,20.993-4.866,30.025-7.536"/>
				
					<path style="fill:none;stroke:#42210B;stroke-width:0.9412;stroke-linecap:round;stroke-linejoin:round;stroke-miterlimit:10;" d="
					M343.994,241.116c0,0-3.129,0.409-1.762-2.309s14.521-8.188,14.521-8.188"/>
				
					<path style="fill:none;stroke:#42210B;stroke-width:0.9412;stroke-linecap:round;stroke-linejoin:round;stroke-miterlimit:10;" d="
					M357.611,235.646c0,0-5.011,2.304-6.325,3.713c-0.624,0.669-0.017,1.778,0.899,1.778h1.895"/>
				
					<path style="fill:none;stroke:#42210B;stroke-width:0.9412;stroke-linecap:round;stroke-linejoin:round;stroke-miterlimit:10;" d="
					M357.611,232.284c0,0-9.031,4.954-10.963,7.444c-0.438,0.564,0.188,1.389,0.902,1.389h2.915"/>
			</g>
		</g>
		<g>
			<g>
				<defs>
					<path id="XMLID_6_" d="M338.54,241.418h-11.455l-3.618-27.058c-0.066-0.491,0.316-0.927,0.812-0.927h17.068
						c0.495,0,0.877,0.436,0.811,0.927L338.54,241.418z"/>
				</defs>
				<use xlink:href="#XMLID_6_"  style="overflow:visible;fill:#FF9102;"/>
				<clipPath id="XMLID_00000052069394611145245660000008122340889959794111_">
					<use xlink:href="#XMLID_6_"  style="overflow:visible;"/>
				</clipPath>
				<g style="clip-path:url(#XMLID_00000052069394611145245660000008122340889959794111_);">
					<g>
						<path style="fill:#FFE0BB;" d="M321.065,218.956c5.069,0.054,10.137,0.115,15.206,0.176
							c5.051,0.061,10.168,0.359,15.206-0.051c0.793-0.065,0.795-1.17,0-1.234c-5.038-0.41-10.155-0.112-15.206-0.051
							c-5.069,0.061-10.137,0.122-15.206,0.176C320.432,217.978,320.431,218.949,321.065,218.956L321.065,218.956z"/>
					</g>
				</g>
				<g style="clip-path:url(#XMLID_00000052069394611145245660000008122340889959794111_);">
					<g>
						<path style="fill:#FFE0BB;" d="M321.289,222.95c5.408,0.492,10.897,0.305,16.324,0.305c5.429,0,10.902,0.199,16.324-0.086
							c0.874-0.046,0.876-1.313,0-1.359c-5.421-0.285-10.895-0.086-16.324-0.086c-5.427,0-10.915-0.187-16.324,0.305
							C320.697,222.081,320.695,222.896,321.289,222.95L321.289,222.95z"/>
					</g>
				</g>
			</g>
			<g>
				<path style="fill:#FFE0BB;" d="M336.226,190.141c-1.558,1.382-3.02,2.941-3.88,4.645c-0.406,0.856-0.656,1.731-0.617,2.571
					c0.027,0.419,0.107,0.829,0.236,1.233c0.141,0.408,0.338,0.767,0.609,1.239c0.522,0.887,1.054,1.768,1.643,2.678
					c0.289,0.46,0.568,0.945,0.836,1.479c0.259,0.534,0.517,1.151,0.578,1.859c0.069,0.709-0.087,1.438-0.367,2.016
					c-0.285,0.583-0.65,1.059-1.028,1.491c-0.78,0.846-1.63,1.536-2.542,2.147c-0.124,0.083-0.292,0.05-0.375-0.074
					c-0.064-0.096-0.056-0.222,0.007-0.311c0.624-0.879,1.286-1.718,1.785-2.593c0.516-0.868,0.82-1.732,0.631-2.409
					c-0.165-0.709-0.746-1.543-1.354-2.403c-0.592-0.876-1.239-1.785-1.777-2.76c-0.255-0.459-0.571-1.046-0.766-1.658
					c-0.196-0.615-0.303-1.27-0.288-1.922c0.023-1.312,0.482-2.535,1.128-3.535c1.324-1.998,3.159-3.367,5.185-4.296
					c0.176-0.081,0.385-0.003,0.466,0.173c0.066,0.144,0.027,0.309-0.086,0.409L336.226,190.141z"/>
			</g>
		</g>
		<g>
			<g>
				<g>
					<path style="fill:#FFB8AE;" d="M231.279,123.02c0,0,2.23,0.09,2.2,2c-0.02,1.79-0.59,2.51-0.66,2.6c0.12,0,1.26,0.04,1.61,1.36
						c0.37,1.4-0.99,2.85-0.99,2.85s1.16,0.05,1.21,1.62c0.04,1.58-5.49,7.96-11.58,9.8c0,0-16.01,52.57-36.33,48.64
						c-6.44-1.25-12.66-6.66-18.09-13.3c-10.53-12.88-18.09-30.4-18.44-31.22c-0.01-0.02-0.01-0.03-0.01-0.03l-4.79-39.08
						c0.14,0,0.5-0.09,1.05-0.19c0.631-0.115,1.522-0.248,2.633-0.27c1.109-0.023,2.437,0.065,3.947,0.39
						c0.46,0.1,0.93,0.22,1.42,0.36c0.49,0.15,0.99,0.32,1.51,0.51c0.17,0.07,0.35,0.14,0.52,0.21c0.53,0.21,1.07,0.45,1.63,0.74
						c0.19,0.1,0.37,0.19,0.56,0.29c0.38,0.21,0.76,0.42,1.15,0.65c0.19,0.12,0.39,0.24,0.58,0.36c0.37,0.24,0.74,0.48,1.12,0.74
						c0.23,0.16,0.46,0.33,0.69,0.5c0.2,0.15,0.41,0.31,0.62,0.47c0.64,0.49,1.3,1.04,1.97,1.63c0.4,0.36,0.81,0.73,1.21,1.13
						c0.43,0.42,0.87,0.86,1.32,1.32c0.43,0.46,0.87,0.94,1.32,1.44c0.68,0.77,1.37,1.59,2.06,2.47c0.23,0.29,0.46,0.59,0.69,0.89
						c0.22,0.28,0.43,0.57,0.65,0.86c0.25,0.34,0.5,0.68,0.75,1.04c0.45,0.64,0.91,1.3,1.37,1.99c1.2,1.81,2.42,3.8,3.65,5.98
						c0.23,0.41,0.46,0.83,0.69,1.26c0.27,0.49,0.54,1,0.81,1.51c0.21,0.41,0.43,0.82,0.64,1.24c0.49,0.95,0.97,1.93,1.46,2.94
						c0.24,0.5,0.49,1.02,0.73,1.54c0.98,2.11,1.97,4.35,2.96,6.73c0.48,1.16,0.96,2.36,1.44,3.59c0.73,1.88,1.46,3.84,2.19,5.88
						c0.56,1.56,1.12,3.16,1.67,4.82l20.07-23.54c0,0,3.41-11.48,15.55-17.27s12.72-5.74,13.11-4.4
						C239.729,118.07,231.279,123.02,231.279,123.02z"/>
					<path style="fill:#FF958A;" d="M195.55,189.926c-1.529-1.544-3.425-2.866-5.421-3.734c-3.727-1.621-8.238-0.435-11.53,2.008
						c2.642,1.843,5.37,3.153,8.139,3.69c3.111,0.602,6.121-0.126,8.989-1.782C195.667,190.044,195.607,189.983,195.55,189.926z"/>
					<path style="fill:#FF958A;" d="M188.749,156.46c-2.84,3.28-6.01,6.31-8.9,9.53c-2.68,3.01-7.41,8.37-11.2,12.6
						c-10.53-12.88-18.09-30.4-18.44-31.22c-0.01-0.02-0.01-0.03-0.01-0.03l-4.79-39.08c0.14,0,0.5-0.09,1.05-0.19
						c1.27-0.23,3.56-0.53,6.58,0.12c0.46,0.1,0.93,0.22,1.42,0.36c0.49,0.15,0.99,0.32,1.51,0.51c0.17,0.07,0.35,0.14,0.52,0.21
						c0.53,0.22,1.07,0.46,1.63,0.74c0.19,0.1,0.37,0.19,0.56,0.29c0.38,0.21,0.76,0.42,1.15,0.65c0.19,0.12,0.39,0.24,0.58,0.36
						c0.37,0.24,0.74,0.48,1.12,0.74c0.23,0.16,0.46,0.33,0.69,0.5c0.2,0.15,0.41,0.31,0.62,0.47c0.64,0.49,1.3,1.04,1.97,1.63
						c0.4,0.36,0.8,0.74,1.21,1.13c0.43,0.42,0.87,0.86,1.32,1.32c0.43,0.46,0.87,0.94,1.32,1.44c0.68,0.77,1.37,1.59,2.06,2.47
						c0.23,0.29,0.46,0.59,0.69,0.89c0.22,0.28,0.43,0.57,0.65,0.86c0.25,0.34,0.5,0.68,0.75,1.04c0.45,0.64,0.91,1.3,1.37,1.99
						c1.2,1.81,2.42,3.8,3.65,5.98c0.23,0.41,0.46,0.83,0.69,1.26c0.27,0.49,0.54,1,0.81,1.51c0.21,0.41,0.43,0.82,0.64,1.24
						c0.49,0.95,0.97,1.93,1.46,2.94c0.24,0.5,0.49,1.02,0.73,1.54c0.98,2.11,1.97,4.35,2.96,6.73c0.48,1.16,0.96,2.36,1.44,3.59
						C187.289,152.46,188.019,154.42,188.749,156.46z"/>
					
						<path style="fill:none;stroke:#42210B;stroke-width:1.1821;stroke-linecap:round;stroke-linejoin:round;stroke-miterlimit:10;" d="
						M205.703,143.075c-1.223,1.456-17.691,20.202-23.298,27.591"/>
					
						<path style="fill:none;stroke:#42210B;stroke-width:1.1821;stroke-linecap:round;stroke-linejoin:round;stroke-miterlimit:10;" d="
						M214.391,146.207"/>
					
						<path style="fill:none;stroke:#42210B;stroke-width:1.1821;stroke-linecap:round;stroke-linejoin:round;stroke-miterlimit:10;" d="
						M219.92,126.503c0,0,2.042-1.222,4.071-1.282c2.029-0.06,6.863-1.747,7.434,0.361c0.472,1.741-2.667,2.402-4.881,3.297
						c0,0-0.719,3.755-4.648,5.531"/>
					
						<path style="fill:none;stroke:#42210B;stroke-width:1.1821;stroke-linecap:round;stroke-linejoin:round;stroke-miterlimit:10;" d="
						M226.528,130.186c0,0,1.104,1.513,6.285-2.571"/>
					
						<path style="fill:none;stroke:#42210B;stroke-width:1.1821;stroke-linecap:round;stroke-linejoin:round;stroke-miterlimit:10;" d="
						M227.826,131.014c0,0-1.07,3.444,4.727,1.388"/>
					
						<path style="fill:none;stroke:#42210B;stroke-width:1.1821;stroke-linecap:round;stroke-linejoin:round;stroke-miterlimit:10;" d="
						M229.428,133.513c0,0-0.477,2.827,2.915,2.104"/>
					
						<path style="fill:none;stroke:#42210B;stroke-width:1.1821;stroke-linecap:round;stroke-linejoin:round;stroke-miterlimit:10;" d="
						M239.147,116.073c0,0,0.373,2.275-7.867,6.951"/>
				</g>
				<path style="fill:#FFB502;" d="M157.697,109.812c14.595-1.617,24.494,28.058,30.661,41.987l-22.943,24.363
					c0,0-10.252-10.349-16.097-24.391C149.318,151.771,133.722,112.469,157.697,109.812z"/>
				<path style="fill:#42210B;" d="M164.085,165.698c3.291-8.774,5.084-18.118,4.692-27.507c-0.392-9.387-3.082-18.486-7.361-26.821
					c-0.216-0.421-0.242-0.828-0.152-1.193c-0.037-0.048-0.072-0.098-0.11-0.146c-1.123-0.256-2.273-0.35-3.457-0.219
					c-23.975,2.657-8.379,41.959-8.379,41.959c3.542,8.508,8.698,15.655,12.214,19.971
					C162.493,169.78,163.318,167.743,164.085,165.698z"/>
			</g>
			<g>
				<path style="fill:#8C6239;" d="M176.261,52.57c-6.228-1.13-30.466,11.429-18.777,35.376l23.609-21.541L176.261,52.57z"/>
				<path style="fill:#FFB8AE;" d="M167.303,103.565l3.173-6.447l2.883,3.82c2.408,3.19,7.302,2.844,9.237-0.653l12.581-22.898
					c0.905-1.647,0.646-3.701-0.65-5.061c-18.572-19.482-32.181,7.821-32.181,7.821l-8.987,14.415
					c-1.3,2.085-4.247,5.496-6.683,5.819l-7.443,1.825l5.074,32.532l20.523,2.372l1.838-20.457
					C165.44,112.243,165.282,107.672,167.303,103.565z"/>
				<path style="fill:#FF7664;" d="M178.096,85.837c-1.981,1.832-5.072,1.711-6.904-0.27c-1.832-1.981-1.711-5.072,0.27-6.904
					c1.981-1.832,5.072-1.711,6.904,0.27C180.198,80.913,180.077,84.005,178.096,85.837z"/>
				<path style="fill:#42210B;" d="M170.476,97.119l-2.514-5.743c0,0-4.701,5.14-0.229,11.318L170.476,97.119z"/>
				<path style="fill:#FFB8AE;" d="M169.314,78.86c-2.015,1.863-5.158,1.74-7.021-0.275c-1.863-2.015-1.74-5.158,0.275-7.021
					c2.015-1.863,5.158-1.74,7.021,0.275C171.451,73.853,171.328,76.997,169.314,78.86z"/>
				<g>
					
						<path style="fill:none;stroke:#E87163;stroke-width:0.793;stroke-linecap:round;stroke-linejoin:round;stroke-miterlimit:10;" d="
						M168.599,74.08c0,0-3.038-3.298-5.375,0.475"/>
					
						<path style="fill:none;stroke:#E87163;stroke-width:0.793;stroke-linecap:round;stroke-linejoin:round;stroke-miterlimit:10;" d="
						M166.064,72.994c0,0-1.955,3.3,0.026,5.126"/>
				</g>
				<path style="fill:#603813;" d="M180.599,81.054c-0.764,1.193-0.985,2.415-0.493,2.73s1.51-0.397,2.274-1.59
					c0.764-1.193,0.985-2.415,0.493-2.73C182.382,79.15,181.363,79.861,180.599,81.054z"/>
				<path style="fill:#603813;" d="M187.377,85.396c-0.764,1.193-0.985,2.415-0.493,2.73c0.492,0.315,1.51-0.397,2.274-1.59
					c0.764-1.193,0.985-2.415,0.493-2.73C189.159,83.492,188.141,84.203,187.377,85.396z"/>
				<path style="fill:#FF7664;" d="M185.509,83.551c0.096-0.173,0.361-0.092,0.334,0.104c-0.222,1.619-0.617,4.887-0.448,6.581
					c0.113,1.132-2.65,0.402-3.439,0.172c-0.11-0.032-0.155-0.156-0.1-0.256L185.509,83.551z"/>
				<path style="fill:#8C6239;" d="M199.443,75.933c-1.493,1.011-2.959,1.449-4.301,1.522c-4.044,0.207-7.039-2.846-7.039-2.846
					c-5.198,0.84-8.662-3.44-12.204-4.262c-1.619-0.38-2.68,1.071-3.357,2.76c-0.815,2.021-0.396,3.172-0.396,3.172l-1.643,0.727
					c1.614-4.967-3.124-6.547-3.124-6.547c-4.731-6,0.113-24.482,15.899-15.504c1.118,0.639,2.145,1.272,3.094,1.892
					c8.132,0.091,7.592,6.827,7.592,6.827C202.924,63.909,205.462,71.855,199.443,75.933z"/>
				
					<path style="fill:none;stroke:#42210B;stroke-width:0.9412;stroke-linecap:round;stroke-linejoin:round;stroke-miterlimit:10;" d="
					M179.55,90.087c0,0,0.628,2.171,2.974,2.171"/>
			</g>
			<g>
				<g>
					<path style="fill:#FFAEA6;" d="M159.774,380.712l-24.889,64.1c0,0,23.525,6.59,31.574,10.439c0,0,6.974,1.495,8.945,4.483
						c0.513,0.778-0.035,1.816-0.967,1.816h-67.82c-7.232,0-1.75-8.399,0-13.298l14.071-65.654L159.774,380.712z"/>
				</g>
				<g>
					<defs>
						<path id="XMLID_5_" d="M175.403,459.735c-1.971-2.989-8.945-4.483-8.945-4.483c-8.049-3.849-31.574-10.439-31.574-10.439
							l6.998-18.023h-30.666l-4.6,21.463c-1.75,4.899-7.232,13.298,0,13.298h67.82C175.368,461.551,175.916,460.513,175.403,459.735
							z"/>
					</defs>
					<use xlink:href="#XMLID_5_"  style="overflow:visible;fill:#FFFBDC;"/>
					<clipPath id="XMLID_00000072281032055130574080000017101644350241456313_">
						<use xlink:href="#XMLID_5_"  style="overflow:visible;"/>
					</clipPath>
					<g style="clip-path:url(#XMLID_00000072281032055130574080000017101644350241456313_);">
						<g>
							<path style="fill:#007BFF;" d="M120.871,432.982c10.774,0,21.548,0,32.322,0c1.93,0,1.933-3,0-3c-10.774,0-21.548,0-32.322,0
								C118.941,429.982,118.937,432.982,120.871,432.982L120.871,432.982z"/>
						</g>
					</g>
				</g>
				<g>
					<path style="fill:#0372D8;" d="M134.885,444.813c0,0,23.525,6.59,31.574,10.439c0,0,6.974,1.495,8.945,4.483
						c0.513,0.778-0.035,1.816-0.967,1.816h-67.82c-7.232,0-1.75-8.399,0-13.298C106.617,448.253,123.203,454.246,134.885,444.813z"
						/>
				</g>
				<g>
					<polygon style="fill:#FF8B85;" points="147.091,413.375 159.774,380.712 120.688,382.599 114.092,413.375 					"/>
				</g>
			</g>
			<g>
				<g>
					<path style="fill:#FFB8AE;" d="M126.081,380.712l-4.054,64.1c0,0,23.525,6.59,31.574,10.439c0,0,6.974,1.495,8.945,4.483
						c0.513,0.778-0.035,1.816-0.967,1.816h-67.82c-7.232,0-1.75-8.399,0-13.298l-6.764-67.54H126.081z"/>
				</g>
				<g>
					<defs>
						<path id="XMLID_4_" d="M153.6,455.252c-8.049-3.849-31.574-10.439-31.574-10.439l1.14-18.023H91.609l2.149,21.463
							c-1.75,4.899-7.232,13.298,0,13.298h67.82c0.932,0,1.48-1.038,0.967-1.816C160.574,456.746,153.6,455.252,153.6,455.252z"/>
					</defs>
					<use xlink:href="#XMLID_4_"  style="overflow:visible;fill:#FFFDE9;"/>
					<clipPath id="XMLID_00000137113772757909074760000006676651471309074876_">
						<use xlink:href="#XMLID_4_"  style="overflow:visible;"/>
					</clipPath>
					<g style="clip-path:url(#XMLID_00000137113772757909074760000006676651471309074876_);">
						<g>
							<path style="fill:#4AA9FF;" d="M86.028,432.753c17.498,0,34.996,0,52.494,0c1.93,0,1.933-3,0-3c-17.498,0-34.996,0-52.494,0
								C84.097,429.753,84.094,432.753,86.028,432.753L86.028,432.753z"/>
						</g>
					</g>
				</g>
				<g>
					<polygon style="fill:#FF958A;" points="124.015,413.375 126.081,380.712 86.995,380.712 90.266,413.375 					"/>
				</g>
				<g>
					<path style="fill:#007BFF;" d="M122.026,444.813c0,0,23.525,6.59,31.574,10.439c0,0,6.974,1.495,8.945,4.483
						c0.513,0.778-0.035,1.816-0.967,1.816h-67.82c-7.232,0-1.75-8.399,0-13.298C93.759,448.253,110.345,454.246,122.026,444.813z"
						/>
				</g>
			</g>
			<g>
				<path style="fill:#007BFF;" d="M153.429,410.08h-42.54l25.23-115.91l-5.15-6.3l-9.69-11.87l-66.17-80.99h80.6
					c0,0,42.08,60.81,45.63,89.29C185.849,320.46,153.429,410.08,153.429,410.08z"/>
				<path style="fill:#42210B;" d="M133.299,275.54c-0.37,4.14-1.02,8.36-2.33,12.33l-9.69-11.87c-0.05-3.41-0.14-6.83-0.15-10.24
					c-0.01-4.41-0.02-8.82-0.23-13.22c-0.22-4.39-0.83-8.76-1.46-13.11c-0.67-4.65-1.34-9.29-1.63-13.97
					c6.13,3.54,10.05,10.42,12.27,17.14C133.559,253.09,134.299,264.58,133.299,275.54z"/>
				<path style="fill:#42210B;" d="M139.122,404.885c-0.326-5.602-0.729-11.192-1.006-16.798
					c-0.446-8.998-0.829-18.035-2.261-26.942c-0.611-3.797-1.524-7.519-2.321-11.277c-0.64-3.019-1.287-6.038-2.092-9.019
					c-0.828-3.065-1.818-6.562-3.382-9.654l-17.169,78.883h28.398C139.293,408.344,139.222,406.609,139.122,404.885z"/>
				<path style="fill:#007BFF;" d="M55.113,195.012c0,0-8.722,21.336,0,44.231c15.244,40.015,20.858,66.005,20.858,66.005
					l7.871,104.83h46.715l-2.882-104.357l-8.751-86.989"/>
				
					<path style="fill:none;stroke:#42210B;stroke-width:0.9412;stroke-linecap:round;stroke-linejoin:round;stroke-miterlimit:10;" d="
					M119.388,223.355c0,0,5.416,37.467,7.162,71.195"/>
				<path style="fill:#4AA9FF;" d="M73.233,195.01c0,0-8.618,17.934-7.754,32.53c0.948,16.014,18.244,63.281,20.525,77.708
					c2.281,14.427,7.298,104.83,7.298,104.83h13.227c0.181,2.222-2.517-80.844-6.842-104.83c-2.856-15.84-14.955-61.4-17.332-79.787
					c-1.807-13.972,5.017-30.45,5.017-30.45H73.233z"/>
				
					<path style="fill:none;stroke:#42210B;stroke-width:0.9412;stroke-linecap:round;stroke-linejoin:round;stroke-miterlimit:10;" d="
					M97.116,201.364c0,0,1.829,25.374-10.373,33.707"/>
				
					<path style="fill:none;stroke:#42210B;stroke-width:0.9412;stroke-linecap:round;stroke-linejoin:round;stroke-miterlimit:10;" d="
					M125.09,250c0,0,18.966,20.868,24.633,40.443c5.585,19.295-17.271,111.74-17.271,111.74"/>
			</g>
			<g>
				<defs>
					<path id="XMLID_3_" d="M140.864,99.955c-1.662-2.986-11.801-2.229-39.229,32.032c-18.227,22.768-44.393,46.814-46.522,63.024
						h84.399c0,0,27.414-34.835,27.155-78.359C166.667,116.653,166.067,145.239,140.864,99.955z"/>
				</defs>
				<use xlink:href="#XMLID_3_"  style="overflow:visible;fill:#FFB502;"/>
				<clipPath id="XMLID_00000168099898250071197730000008991123914999144880_">
					<use xlink:href="#XMLID_3_"  style="overflow:visible;"/>
				</clipPath>
				<g style="clip-path:url(#XMLID_00000168099898250071197730000008991123914999144880_);">
					<g>
						<path style="fill:#FFD985;" d="M71.75,146.456c44.18,0,88.359,0,132.539,0c5.818,0,5.828-9.042,0-9.042
							c-44.18,0-88.359,0-132.539,0C65.932,137.414,65.922,146.456,71.75,146.456L71.75,146.456z"/>
					</g>
				</g>
				<g style="clip-path:url(#XMLID_00000168099898250071197730000008991123914999144880_);">
					<g>
						<path style="fill:#FFD985;" d="M62.339,163.71c49.016,0,98.032,0,147.048,0c5.818,0,5.828-9.043,0-9.043
							c-49.016,0-98.032,0-147.048,0C56.521,154.667,56.511,163.71,62.339,163.71L62.339,163.71z"/>
					</g>
				</g>
			</g>
			<g>
				<path style="fill:#FFB8AE;" d="M205.369,238.48h-10.08c-0.42,0-0.82-0.11-1.18-0.32c-1.61-0.93-6.27-3.51-7.91-3.14
					c-2,0.45-4.86,2.83-10.21,1.67c-6.99-1.52-13.75-11.46-13.75-11.46s-15.66-14.76-26.97-29.05c-4.49-5.68-8.3-11.29-10.15-15.87
					c-0.22-0.52-0.4-1.03-0.56-1.51c-0.05-0.16-0.1-0.33-0.15-0.51c-3.43-11.93,0.15-47.42,0.15-47.42l23.83-6.2l2.68,46.59
					l26.66,50.25c0.92,1.94,2.69,3.35,4.79,3.81c3.62,0.8,9.3,2.15,12.13,3.35c4.01,1.71,8.97,4.18,11.88,6.58
					C207.849,236.34,207.079,238.48,205.369,238.48z"/>
				<path style="fill:#FF958A;" d="M150.632,163.652l-2.242-38.982l-23.83,6.2c0,0-2.903,28.764-0.976,43.206
					C132.982,171.825,141.837,167.674,150.632,163.652z"/>
				<path style="fill:#FF958A;" d="M135.709,195.4c-0.14,0.27-0.28,0.53-0.44,0.78c-4.49-5.68-8.3-11.29-10.15-15.87
					c-0.22-0.52-0.4-1.03-0.56-1.51c-0.05-0.16-0.1-0.33-0.15-0.51c3.65-0.99,7.19,0.78,9.47,4.04
					C136.479,186.04,137.709,191.34,135.709,195.4z"/>
				<g>
					
						<path style="fill:none;stroke:#42210B;stroke-width:0.9412;stroke-linecap:round;stroke-linejoin:round;stroke-miterlimit:10;" d="
						M205.37,238.48c0,0,3.129,0.409,1.762-2.309c-1.366-2.718-14.521-8.188-14.521-8.188"/>
					
						<path style="fill:none;stroke:#42210B;stroke-width:0.9412;stroke-linecap:round;stroke-linejoin:round;stroke-miterlimit:10;" d="
						M191.754,233.01c0,0,5.011,2.304,6.325,3.713c0.624,0.669,0.017,1.779-0.899,1.779h-1.895"/>
					
						<path style="fill:none;stroke:#42210B;stroke-width:0.9412;stroke-linecap:round;stroke-linejoin:round;stroke-miterlimit:10;" d="
						M191.754,229.648c0,0,9.031,4.954,10.963,7.444c0.438,0.564-0.188,1.389-0.902,1.389h-2.915"/>
				</g>
			</g>
			<path style="fill:#FFB502;" d="M137.872,98.886c21.009-2.247,15.728,48.903,12.528,62.702l-27.871,10.382
				C122.529,171.97,107.489,102.135,137.872,98.886z"/>
			
				<path style="fill:none;stroke:#42210B;stroke-width:1.0409;stroke-linecap:round;stroke-linejoin:round;stroke-miterlimit:10;" d="
				M120.848,117.146c0,0-5.297,23.973,1.68,54.824"/>
		</g>
		<g>
			<path style="fill:#2084CE;" d="M299.784,241.418H174.544v-1.376c0-1.846,1.497-3.343,3.343-3.343h121.896V241.418z"/>
			<path style="fill:#429EE2;" d="M299.784,241.418h-85.393l14.277-53.643c0.365-1.373,1.608-2.328,3.029-2.328h78.906
				c2.059,0,3.559,1.951,3.029,3.941L299.784,241.418z"/>
			
				<path style="fill:none;stroke:#42210B;stroke-width:0.9412;stroke-linecap:round;stroke-linejoin:round;stroke-miterlimit:10;" d="
				M272.874,216.545c-1.645,6.246-5.892,10.542-9.484,9.596c-3.593-0.946-5.171-6.777-3.526-13.023
				c1.646-6.246,5.892-10.542,9.484-9.596C272.941,204.468,274.519,210.299,272.874,216.545z"/>
		</g>
		<g>
			<rect x="151.746" y="244.094" style="fill:#FFB502;" width="5.193" height="217.457"/>
			<rect x="436.813" y="244.094" style="fill:#FFB502;" width="5.193" height="217.457"/>
			<path style="fill:#603813;" d="M444.747,247.051H138.166c-1.633,0-2.956-1.324-2.956-2.956l0,0c0-1.633,1.324-2.956,2.956-2.956
				h306.581c1.633,0,2.956,1.324,2.956,2.956l0,0C447.703,245.727,446.38,247.051,444.747,247.051z"/>
		</g>
		<g>
			<path style="fill:#FFE7B8;" d="M272.055,156.34v20.573c0,0.621,0.75,0.933,1.19,0.495l5.472-5.438h26.368c2.21,0,4-1.79,4-4.01
				v-11.61c0-2.22-1.79-4.01-4-4.01h-29.03C273.846,152.34,272.055,154.131,272.055,156.34z"/>
			<circle style="fill:#FFFDE9;" cx="280.423" cy="163.016" r="2.449"/>
			<path style="fill:#FFFDE9;" d="M293.019,163.016c0,1.353-1.096,2.449-2.449,2.449c-1.353,0-2.449-1.097-2.449-2.449
				c0-1.353,1.097-2.449,2.449-2.449C291.923,160.566,293.019,161.663,293.019,163.016z"/>
			<circle style="fill:#FFFDE9;" cx="300.301" cy="163.016" r="2.449"/>
		</g>
	</g>
</g>
</svg>
