<svg xmlns="http://www.w3.org/2000/svg" viewBox="0 0 500 500"><g id="freepik--background-complete--inject-15"><rect y="382.4" width="500" height="0.25" style="fill:#ebebeb"></rect><rect x="52.46" y="391.92" width="33.12" height="0.25" style="fill:#ebebeb"></rect><rect x="145.33" y="389.21" width="34.5" height="0.25" style="fill:#ebebeb"></rect><rect x="76.08" y="396.75" width="55.42" height="0.25" style="fill:#ebebeb"></rect><rect x="405.64" y="397.67" width="43.19" height="0.25" style="fill:#ebebeb"></rect><rect x="370.43" y="391.42" width="22.9" height="0.25" style="fill:#ebebeb"></rect><rect x="195.63" y="395.43" width="93.68" height="0.25" style="fill:#ebebeb"></rect><path d="M237,337.8H43.91a5.71,5.71,0,0,1-5.7-5.71V60.66A5.71,5.71,0,0,1,43.91,55H237a5.71,5.71,0,0,1,5.71,5.71V332.09A5.71,5.71,0,0,1,237,337.8ZM43.91,55.2a5.46,5.46,0,0,0-5.45,5.46V332.09a5.46,5.46,0,0,0,5.45,5.46H237a5.47,5.47,0,0,0,5.46-5.46V60.66A5.47,5.47,0,0,0,237,55.2Z" style="fill:#ebebeb"></path><path d="M453.31,337.8H260.21a5.72,5.72,0,0,1-5.71-5.71V60.66A5.72,5.72,0,0,1,260.21,55h193.1A5.71,5.71,0,0,1,459,60.66V332.09A5.71,5.71,0,0,1,453.31,337.8ZM260.21,55.2a5.47,5.47,0,0,0-5.46,5.46V332.09a5.47,5.47,0,0,0,5.46,5.46h193.1a5.47,5.47,0,0,0,5.46-5.46V60.66a5.47,5.47,0,0,0-5.46-5.46Z" style="fill:#ebebeb"></path><rect x="132.28" y="256.92" width="15.21" height="58.93" transform="translate(279.76 572.78) rotate(180)" style="fill:#e6e6e6"></rect><polygon points="91.05 315.85 141.52 315.85 149.14 246.88 98.67 246.88 91.05 315.85" style="fill:#f0f0f0"></polygon><polygon points="85.58 315.85 137.71 315.85 145.33 246.88 93.2 246.88 85.58 315.85" style="fill:#f5f5f5"></polygon><polygon points="133.95 310.42 140.37 252.31 96.97 252.31 90.55 310.42 133.95 310.42" style="fill:#fff"></polygon><path d="M125,296.33l.27-2.36c1.61-14.58-7.5-27.57-19.32-27.57h0l-.26,2.37c-1.61,14.57,7.49,27.56,19.31,27.56Z" style="fill:#f5f5f5"></path><rect x="107.73" y="92.4" width="299.05" height="108.46" transform="translate(514.51 293.26) rotate(180)" style="fill:#e6e6e6"></rect><rect x="102.28" y="92.4" width="301.95" height="108.46" transform="translate(506.52 293.26) rotate(180)" style="fill:#f0f0f0"></rect><rect x="107.73" y="200.86" width="299.05" height="10.11" transform="translate(514.51 411.83) rotate(180)" style="fill:#e6e6e6"></rect><rect x="93.22" y="200.86" width="301.95" height="10.11" transform="translate(488.39 411.83) rotate(180)" style="fill:#f0f0f0"></rect><rect x="206.65" y="3.27" width="93.23" height="286.72" transform="translate(399.89 -106.63) rotate(90)" style="fill:#fafafa"></rect><polygon points="365.96 193.25 328.69 100.02 295.98 100.02 333.25 193.25 365.96 193.25" style="fill:#fff"></polygon><polygon points="204.44 193.25 167.17 100.02 134.45 100.02 171.72 193.25 204.44 193.25" style="fill:#fff"></polygon><polygon points="326.22 193.25 288.95 100.02 276.19 100.02 313.46 193.25 326.22 193.25" style="fill:#fff"></polygon><rect x="63.77" y="146.15" width="93.23" height="0.97" transform="translate(257.02 36.25) rotate(90)" style="fill:#e6e6e6"></rect><rect x="57.38" y="315.85" width="44.84" height="66.55" transform="translate(159.6 698.25) rotate(180)" style="fill:#e6e6e6"></rect><polygon points="61.89 382.4 57.38 382.4 57.38 369.57 66.62 369.57 61.89 382.4" style="fill:#f0f0f0"></polygon><rect x="183.05" y="315.85" width="44.84" height="66.55" transform="translate(410.94 698.25) rotate(180)" style="fill:#e6e6e6"></rect><rect x="57.38" y="315.85" width="129.61" height="58.67" transform="translate(244.37 690.38) rotate(180)" style="fill:#f0f0f0"></rect><polygon points="182.48 382.4 186.99 382.4 186.99 369.57 177.75 369.57 182.48 382.4" style="fill:#f0f0f0"></polygon><rect x="60.88" y="319.52" width="122.61" height="23.68" transform="translate(244.37 662.72) rotate(180)" style="fill:#e6e6e6"></rect><path d="M114,335h16.35a25.87,25.87,0,0,0,18.78-8.08H95.23A25.84,25.84,0,0,0,114,335Z" style="fill:#f0f0f0"></path><rect x="60.88" y="347.02" width="122.61" height="23.68" transform="translate(244.37 717.72) rotate(180)" style="fill:#e6e6e6"></rect><path d="M114,362.46h16.35a25.87,25.87,0,0,0,18.78-8.08H95.23A25.84,25.84,0,0,0,114,362.46Z" style="fill:#f0f0f0"></path><path d="M344.92,288.12a.94.94,0,0,0-.93-.75H308a.93.93,0,0,0-.92.75L294.28,382.4h1.93l12.54-93.14h34.46l12.54,93.14h1.94Z" style="fill:#f0f0f0"></path><path d="M414.64,288.12a.94.94,0,0,0-.93-.75h-36a.94.94,0,0,0-.93.75L364,382.4h1.93l12.54-93.14h34.47l12.54,93.14h1.93Z" style="fill:#f0f0f0"></path><path d="M415.67,280.17H302.41c-5.41,0-9.8,2.6-9.8,5.82v.2c0,1.17,1.6,2.12,3.57,2.12H421.89c2,0,3.58-.95,3.58-2.12V286C425.47,282.77,421.08,280.17,415.67,280.17Z" style="fill:#e0e0e0"></path><polygon points="422.6 233.5 347.71 233.5 336.86 277.73 411.75 277.73 422.6 233.5" style="fill:#e6e6e6"></polygon><polygon points="411.75 277.73 411.44 280.17 336.55 280.17 336.85 277.73 411.75 277.73" style="fill:#e6e6e6"></polygon><polygon points="420.3 233.5 345.41 233.5 334.55 277.73 409.44 277.73 420.3 233.5" style="fill:#f0f0f0"></polygon><polygon points="407.86 275.7 417.72 235.52 346.99 235.52 337.13 275.7 407.86 275.7" style="fill:#fff"></polygon><polygon points="389.93 277.73 389.63 280.17 307.16 280.17 307.46 277.73 389.93 277.73" style="fill:#f0f0f0"></polygon><path d="M178.78,313.14h1.15c0-2.39,0-8.44.13-22.31.2-25.15.6-26.68.6-26.68l-2.76,11.61C176.16,288.61,178.41,301.53,178.78,313.14Z" style="fill:#e6e6e6"></path><path d="M176.49,274c-4-4.73-12.45-6.11-21.14-7.29-3.41-.46,9,7.33,15,12.86,4.69,4.3,7.69,5.49,9,9.77C180,284,179.91,278.1,176.49,274Z" style="fill:#e6e6e6"></path><path d="M181.75,282.48c4-4.73,12.45-6.1,21.14-7.28,3.41-.46-9,7.33-15,12.86-4.69,4.3-7.7,5.49-9,9.77C178.22,292.49,178.33,286.56,181.75,282.48Z" style="fill:#e6e6e6"></path><path d="M180.05,263c3-5.66,10.47-11,18.87-13,3.3-.79-7.64,10.44-11.8,17.69-3.23,5.62-7.52,12.24-8.18,17C177.93,275.31,177.08,268.69,180.05,263Z" style="fill:#e6e6e6"></path><path d="M179.7,315.85h0c-3.54,0-6.48-1.77-6.68-4.05l-.59-3.88H187l-.59,3.88C186.18,314.08,183.25,315.85,179.7,315.85Z" style="fill:#f0f0f0"></path><polygon points="187.91 309.41 171.49 309.41 171.02 305.08 188.38 305.08 187.91 309.41" style="fill:#f0f0f0"></polygon></g><g id="freepik--Shadow--inject-15"><ellipse id="freepik--path--inject-15" cx="250" cy="416.24" rx="193.89" ry="11.32" style="fill:#f5f5f5"></ellipse></g><g id="freepik--Notebook--inject-15"><path d="M303.52,269.93H112.4a10.07,10.07,0,0,1-9.86-9.21L94,138.84a8.49,8.49,0,0,1,8.56-9.21H293.64a10.08,10.08,0,0,1,9.86,9.21l8.58,121.88A8.49,8.49,0,0,1,303.52,269.93Z" style="fill:#263238"></path><path d="M358.19,369.4H142.84c-5.71,0-11.47-3.69-12.78-8.16l-24.94-84.76c-1.07-3.62,2.22-6.55,7.28-6.55H303.52c5.07,0,10.86,2.93,12.89,6.55L364,361.24C366.5,365.71,363.9,369.4,358.19,369.4Z" style="fill:#263238"></path><path d="M305.82,269.93H114.71a10.06,10.06,0,0,1-9.86-9.21L96.26,138.84a8.5,8.5,0,0,1,8.56-9.21H295.94a10.07,10.07,0,0,1,9.86,9.21l8.59,121.88A8.5,8.5,0,0,1,305.82,269.93Z" style="fill:#F97316"></path><path d="M116.27,262.26a4,4,0,0,1-3.9-3.64l-8.29-117.68a3.35,3.35,0,0,1,3.38-3.63H294.38a4,4,0,0,1,3.89,3.63l8.29,117.68a3.36,3.36,0,0,1-3.38,3.64Z" style="fill:#fff"></path><ellipse cx="200.67" cy="133.68" rx="1.37" ry="1.47" transform="translate(-34.9 185.14) rotate(-45.99)" style="opacity:0.2"></ellipse><path d="M360.5,369.4H145.14c-5.71,0-11.46-3.69-12.78-8.16l-24.94-84.76c-1.06-3.62,2.22-6.55,7.29-6.55H305.82c5.07,0,10.86,2.93,12.89,6.55l47.58,84.76C368.8,365.71,366.21,369.4,360.5,369.4Z" style="fill:#F97316"></path><path d="M133.54,324.13c-2.14,0-4.29-1.32-4.78-2.92L115.62,278c-.44-1.43.85-2.6,2.87-2.6H306.7a6.29,6.29,0,0,1,5.1,2.6l23.85,43.23c.88,1.6-.14,2.92-2.28,2.92Z" style="opacity:0.2"></path><path d="M219.76,361.86a3.5,3.5,0,0,1-3.1-1.86l-11-28.16c-.37-.95.35-1.73,1.61-1.73h57.5a3.62,3.62,0,0,1,3.09,1.73L280.93,360c.48,1-.2,1.86-1.5,1.86Z" style="opacity:0.2"></path><polygon points="198.01 167.12 202.4 173.87 206.79 180.63 222.38 180.63 225.78 173.88 229.19 167.14 224.8 160.38 220.41 153.63 204.82 153.63 201.41 160.37 198.01 167.12" style="fill:none"></polygon><polygon points="229.46 166.97 245.04 166.97 248.45 160.22 251.85 153.48 247.46 146.72 243.07 139.97 227.49 139.97 224.08 146.72 220.68 153.46 225.06 160.21 229.46 166.97" style="fill:none"></polygon><polygon points="256.09 208.26 252.68 215 249.28 221.75 253.67 228.5 258.06 235.26 273.64 235.26 277.05 228.51 280.46 221.77 276.07 215.01 271.68 208.26 256.09 208.26" style="fill:none"></polygon><polygon points="254.11 180.94 250.71 187.69 247.3 194.43 251.69 201.19 256.08 207.94 271.67 207.94 275.07 201.2 278.48 194.45 274.09 187.7 269.7 180.94 254.11 180.94" style="fill:none"></polygon><polygon points="245.32 167.12 249.71 173.87 254.1 180.63 269.69 180.63 273.09 173.88 276.5 167.14 272.11 160.38 267.72 153.63 252.13 153.63 248.73 160.37 245.32 167.12" style="fill:none"></polygon><polygon points="152.4 194.28 155.8 187.54 159.21 180.79 154.82 174.04 150.43 167.28 134.84 167.28 131.44 174.03 128.03 180.78 132.42 187.53 136.81 194.28 152.4 194.28" style="fill:none"></polygon><polygon points="150.7 167.12 155.09 173.87 159.48 180.63 175.06 180.63 178.47 173.88 181.88 167.14 177.49 160.38 173.1 153.63 157.51 153.63 154.1 160.37 150.7 167.12" style="fill:none"></polygon><polygon points="140.77 248.92 156.35 248.92 159.76 242.17 163.17 235.43 158.78 228.67 154.39 221.92 138.8 221.92 135.4 228.66 131.99 235.41 136.38 242.16 140.77 248.92" style="fill:none"></polygon><polygon points="182.14 166.97 197.73 166.97 201.14 160.22 204.54 153.48 200.15 146.72 195.76 139.97 180.18 139.97 176.77 146.72 173.36 153.46 177.75 160.21 182.14 166.97" style="fill:none"></polygon><polygon points="154.38 221.6 157.78 214.85 161.19 208.11 156.8 201.35 152.41 194.6 136.82 194.6 133.42 201.35 130.01 208.09 134.4 214.84 138.79 221.6 154.38 221.6" style="fill:none"></polygon><polygon points="206.8 180.94 203.39 187.69 199.99 194.43 204.38 201.19 208.77 207.94 224.35 207.94 227.76 201.2 231.17 194.45 226.78 187.7 222.39 180.94 206.8 180.94" style="fill:none"></polygon><polygon points="228.04 201.35 224.63 208.09 229.02 214.84 233.41 221.6 249 221.6 252.41 214.85 255.81 208.11 251.42 201.35 247.03 194.6 231.44 194.6 228.04 201.35" style="fill:none"></polygon><polygon points="199.72 194.6 184.13 194.6 180.73 201.35 177.32 208.09 181.71 214.84 186.1 221.6 201.69 221.6 205.09 214.85 208.5 208.11 204.11 201.35 199.72 194.6" style="fill:none"></polygon><polygon points="150.42 166.97 153.82 160.22 157.23 153.48 152.84 146.72 148.45 139.97 132.86 139.97 129.46 146.72 126.05 153.46 130.44 160.21 134.83 166.97 150.42 166.97" style="fill:none"></polygon><polygon points="185.83 221.77 181.44 215.01 177.06 208.26 161.47 208.26 158.06 215 154.66 221.75 159.04 228.5 163.43 235.26 179.02 235.26 182.43 228.51 185.83 221.77" style="fill:none"></polygon><polygon points="253.83 180.79 249.44 174.04 245.05 167.28 229.47 167.28 226.06 174.03 222.66 180.78 227.04 187.53 231.43 194.28 247.02 194.28 250.43 187.54 253.83 180.79" style="fill:none"></polygon><polygon points="249.01 221.92 233.42 221.92 230.02 228.66 226.61 235.41 231 242.16 235.39 248.92 250.98 248.92 254.38 242.17 257.79 235.43 253.4 228.67 249.01 221.92" style="fill:none"></polygon><polygon points="201.7 221.92 186.11 221.92 182.71 228.66 179.3 235.41 183.69 242.16 188.08 248.92 203.67 248.92 207.07 242.17 210.48 235.43 206.09 228.67 201.7 221.92" style="fill:none"></polygon><polygon points="233.15 221.77 228.75 215.01 224.37 208.26 208.78 208.26 205.37 215 201.97 221.75 206.36 228.5 210.75 235.26 226.33 235.26 229.74 228.51 233.15 221.77" style="fill:none"></polygon><polygon points="197.74 167.28 182.15 167.28 178.75 174.03 175.34 180.78 179.73 187.53 184.12 194.28 199.71 194.28 203.12 187.54 206.52 180.79 202.13 174.04 197.74 167.28" style="fill:none"></polygon><polygon points="159.49 180.94 156.08 187.69 152.68 194.43 157.07 201.19 161.46 207.94 177.04 207.94 180.45 201.2 183.85 194.45 179.47 187.7 175.08 180.94 159.49 180.94" style="fill:none"></polygon><path d="M111.41,244.93l4.72-9.36h15.59l4.39,6.76,4.39,6.75-3.41,6.75-3.24,6.43h.35l3.17-6.28,3.41-6.75h15.59l4.39,6.76,4.07,6.27h.38L161,255.82l-4.39-6.76,3.41-6.74,3.41-6.75H179l4.39,6.76,4.39,6.75-3.4,6.75-3.25,6.43h.35l3.18-6.28,3.4-6.75h15.59l4.39,6.76,4.07,6.27h.38l-4.18-6.44L204,249.06l3.4-6.74,3.41-6.75h15.58l4.39,6.76,4.39,6.75-3.4,6.75-3.25,6.43h.35L232,256l3.4-6.75H251l4.39,6.76,4.07,6.27h.38l-4.18-6.44-4.39-6.76,3.4-6.74,3.41-6.75h15.59l4.39,6.76,4.39,6.75L279,255.83l-3.25,6.43h.36l3.17-6.28,3.4-6.75H298.3l4.39,6.76,3.2,4.92.2-.27L303,255.82l-4.39-6.76,3.4-6.74,3-6,0-.61-3.25,6.44-3.41,6.75H282.7l-4.39-6.76-4.39-6.75,3.41-6.75,3.4-6.74h15.59l8.59,13.21-.05-.65-8.27-12.73,6.47-12.82,0-.62-6.71,13.29H280.72l-4.39-6.75-4.39-6.76,3.41-6.74,3.41-6.75h15.58L303,207.91l-.05-.65-8.33-12.83,6.52-12.91,0-.61-6.76,13.38H278.75l-4.39-6.76L270,180.78l3.4-6.75,3.41-6.74h15.59l8.7,13.39,0-.65-8.4-12.91,6.57-13,0-.61L292.35,167H276.77l-4.39-6.76L268,153.46l3.4-6.75L274.8,140h15.59l4.39,6.75,4.37,6.74,0-.65L295,146.56l-4.39-6.76,1.26-2.49h-.35l-1.18,2.34H274.79l-1.53-2.34h-.37l1.63,2.51-3.41,6.75-3.4,6.74H252.12l-4.39-6.75-4.39-6.76,1.26-2.49h-.35l-1.19,2.34H227.48L226,137.31h-.37l1.63,2.51-3.41,6.75-3.4,6.74H204.81l-4.39-6.75L196,139.8l1.26-2.49h-.35l-1.19,2.34H180.16l-1.52-2.34h-.38l1.64,2.51-3.41,6.75-3.4,6.74H157.5l-4.39-6.75-4.39-6.76,1.26-2.49h-.35l-1.19,2.34H132.85l-1.52-2.34H131l1.64,2.51-3.41,6.75-3.41,6.74H110.19l-5.87-9,0,.65,5.56,8.55-4.35,8.61.05.61,4.58-9.07h15.59l4.38,6.75,4.39,6.76-3.4,6.74-3.41,6.75H112.16l-4.38-6.76-1.54-2.37,0,.65,1.23,1.89,4.39,6.75-3.41,6.75-1,2,0,.61,1.22-2.42,3.41-6.75h15.58l4.39,6.76,4.39,6.75-3.4,6.75-3.41,6.74H114.14l-4.39-6.75-1.6-2.46,0,.64,1.29,2,4.39,6.75-3.41,6.74-1,2.06,0,.61,1.27-2.52,3.41-6.74h15.58l4.39,6.75,4.39,6.76-3.4,6.74-3.41,6.75H116.12L110.07,226l.05.65,5.74,8.83-4.49,8.89ZM179,235.26H163.43L159,228.5l-4.38-6.75,3.4-6.75,3.41-6.74h15.58l4.39,6.75,4.39,6.76-3.4,6.74Zm68-41H231.43L227,187.53l-4.39-6.75,3.41-6.75,3.41-6.74h15.58l4.39,6.75,4.39,6.75-3.4,6.75Zm0,.31,4.39,6.76,4.39,6.75-3.4,6.74L249,221.6H233.41L229,214.85l-4.39-6.76,3.41-6.74,3.4-6.75Zm-20.25-6.9,4.39,6.75-3.41,6.75-3.41,6.74H208.77l-4.39-6.75L200,194.43l3.4-6.74,3.41-6.75h15.59ZM208.5,208.11l-3.41,6.74-3.4,6.75H186.1l-4.39-6.75-4.39-6.76,3.41-6.74,3.4-6.75h15.59l4.39,6.76Zm-5.38-20.57-3.41,6.75H184.12l-4.39-6.76-4.39-6.75,3.41-6.75,3.4-6.74h15.59l4.39,6.75,4.39,6.75Zm-23.65.16,4.38,6.75-3.4,6.75L177,207.94H161.46l-4.39-6.75-4.39-6.76,3.4-6.74,3.41-6.75h15.59Zm27.6,54.47-3.4,6.75H188.08l-4.39-6.76-4.39-6.75,3.41-6.75,3.4-6.74H201.7l4.39,6.75,4.39,6.76Zm19.26-6.91H210.75l-4.39-6.76L202,221.75l3.4-6.75,3.41-6.74h15.59l4.39,6.75,4.38,6.76-3.4,6.74Zm28,6.91-3.4,6.75H235.39L231,242.16l-4.39-6.75,3.41-6.75,3.4-6.74H249l4.39,6.75,4.39,6.76ZM276.07,215l4.39,6.76-3.41,6.74-3.41,6.75H258.06l-4.39-6.76-4.39-6.75,3.4-6.75,3.41-6.74h15.59Zm-2-27.31,4.39,6.75-3.41,6.75-3.4,6.74H256.08l-4.39-6.75-4.39-6.76,3.41-6.74,3.4-6.75H269.7Zm-22-34.07h15.59l4.39,6.75,4.39,6.76-3.41,6.74-3.4,6.75H254.1l-4.39-6.76-4.39-6.75,3.41-6.75Zm-28-6.92,3.41-6.74h15.59l4.38,6.75,4.39,6.76-3.4,6.74L245,167H229.45l-4.38-6.76-4.39-6.75Zm-19.26,6.92h15.59l4.39,6.75,4.39,6.76-3.41,6.74-3.4,6.75H206.79l-4.39-6.76L198,167.12l3.4-6.75Zm-28-6.92,3.41-6.74h15.58l4.39,6.75,4.39,6.76-3.4,6.74L197.73,167H182.14l-4.39-6.76-4.39-6.75Zm-19.26,6.92H173.1l4.39,6.75,4.39,6.76-3.41,6.74-3.41,6.75H159.48l-4.39-6.76-4.39-6.75,3.4-6.75Zm-27.07,6.58-4.39-6.75,3.41-6.75,3.4-6.74h15.59l4.39,6.75,4.39,6.76-3.41,6.74-3.4,6.75H134.83Zm2,27.32L128,180.78l3.41-6.75,3.4-6.74h15.59l4.39,6.75,4.39,6.75-3.41,6.75-3.4,6.75H136.81Zm2,27.32L130,208.09l3.41-6.74,3.4-6.75h15.59l4.39,6.76,4.39,6.75-3.41,6.74-3.4,6.75H138.79Zm1,13.81,3.41-6.74h15.59l4.39,6.75,4.39,6.76-3.41,6.74-3.4,6.75H140.77l-4.39-6.76L132,235.41Z" style="fill:#e0e0e0"></path><polygon points="117.9 262.26 111.99 253.17 112.03 253.82 117.52 262.26 117.9 262.26" style="fill:#e0e0e0"></polygon><path d="M245.16,249.85H176a5.54,5.54,0,0,1-5.45-5.16l-2.65-47.58a4.84,4.84,0,0,1,4.87-5.16h69.18a5.53,5.53,0,0,1,5.44,5.16L250,244.69A4.84,4.84,0,0,1,245.16,249.85Z" style="fill:#F97316"></path><path d="M172.76,192a4.84,4.84,0,0,0-4.87,5.16l2.65,47.58a5.54,5.54,0,0,0,5.45,5.16h34.58L207.35,192Z" style="opacity:0.2"></path><path d="M203.55,236.2l.8-15.12a9,9,0,0,1-4.2-7,7.89,7.89,0,0,1,8-8.43A9,9,0,0,1,217,214a7.88,7.88,0,0,1-3.41,7l2.47,15.12Z" style="opacity:0.2"></path><path d="M215.7,214a7.62,7.62,0,0,0-7.52-7.12,6.66,6.66,0,0,0-6.72,7.12,7.6,7.6,0,0,0,4.24,6.33l-.76,14.52h9.6l-2.37-14.52A6.65,6.65,0,0,0,215.7,214Z" style="fill:#263238"></path><path d="M240.15,188.54H231l-.56-9.93a25.55,25.55,0,0,0-25.16-23.84,22.34,22.34,0,0,0-22.51,23.84l.55,9.93h-9.15l-.55-9.93a30.9,30.9,0,0,1,31.15-33c18.19,0,33.81,14.8,34.83,33Z" style="fill:#F97316"></path></g></svg>