<?xml version="1.0" encoding="utf-8"?>
<!-- Generator: Adobe Illustrator 27.5.0, SVG Export Plug-In . SVG Version: 6.00 Build 0)  -->
<svg version="1.1" xmlns="http://www.w3.org/2000/svg" xmlns:xlink="http://www.w3.org/1999/xlink" x="0px" y="0px"
	 viewBox="0 0 750 500" style="enable-background:new 0 0 750 500;" xml:space="preserve">
<g id="Background_Complete">
	<g>
		<g>
			<polygon style="fill:#F5F5F5;" points="127.811,85.28 88.019,165.55 99.9,166.001 66.184,229.785 83.893,229.785 56.267,286.453 
				210.688,286.453 176.687,229.785 192.979,229.076 160.395,165.324 172.437,164.616 			"/>
			<g>
				<path style="fill:#E0E0E0;" d="M134.389,165.197c0.196,0.002-0.073,41.597-0.6,92.894
					c-0.527,51.314-1.113,192.826-1.308,192.824c-0.196-0.002,0.073-141.517,0.6-192.831
					C133.607,206.788,134.193,165.196,134.389,165.197z"/>
			</g>
		</g>
		<g>
			<path style="fill:#E0E0E0;" d="M150.632,182.909c0.155,0.119-3.25,4.795-7.603,10.441c-4.355,5.649-8.01,10.13-8.165,10.01
				c-0.155-0.119,3.249-4.794,7.604-10.442C146.821,187.271,150.477,182.789,150.632,182.909z"/>
		</g>
		<g>
			<path style="fill:#E0E0E0;" d="M134.066,201.895c-0.12,0.154-3.485-2.267-7.514-5.407c-4.031-3.141-7.2-5.812-7.079-5.966
				c0.12-0.154,3.484,2.266,7.515,5.408C131.017,199.07,134.186,201.741,134.066,201.895z"/>
		</g>
		<g>
			<path style="fill:#E0E0E0;" d="M133.159,235.69c-0.069,0.074-1.012-0.698-2.515-1.963c-1.502-1.266-3.573-3.016-5.893-4.908
				c-2.322-1.891-4.454-3.566-5.997-4.782c-1.543-1.216-2.488-1.984-2.43-2.067c0.055-0.077,1.104,0.547,2.727,1.664
				c1.624,1.117,3.815,2.736,6.147,4.636c2.331,1.9,4.359,3.719,5.78,5.084C132.401,234.719,133.224,235.62,133.159,235.69z"/>
		</g>
		<g>
			<path style="fill:#E0E0E0;" d="M150.652,214.8c0.152,0.123-3.579,5.019-8.333,10.935c-4.755,5.918-8.733,10.615-8.885,10.492
				c-0.152-0.122,3.578-5.018,8.334-10.936C146.522,219.375,150.5,214.678,150.652,214.8z"/>
		</g>
	</g>
	<g>
		<g>
			<path style="fill:#EBEBEB;" d="M569.555,418.348c-18.135-13.407-21.572-37.288-20.146-58.605
				c0.238-3.56-0.035-7.328,1.783-10.397c1.819-3.069,5.894-5.072,9.077-3.464c2.64,1.333,3.708,4.45,5.126,7.045
				c1.885,3.452,4.766,6.353,8.206,8.261c2.26,1.254,5.08,2.067,7.39,0.907c3.169-1.592,3.674-5.825,3.767-9.371
				c0.173-6.604,0.346-13.209,0.518-19.814c0.093-3.544,0.199-7.161,1.425-10.488c1.226-3.326,3.793-6.368,7.239-7.199
				c3.446-0.831,7.607,1.253,8.215,4.744c0.253,1.454-0.094,2.942-0.042,4.415c0.052,1.473,0.694,3.125,2.096,3.582
				c1.419,0.462,2.888-0.496,3.995-1.496c3.821-3.456,6.486-7.98,8.984-12.486c2.499-4.505,4.932-9.121,8.421-12.912
				c3.489-3.791,8.241-6.729,13.39-6.846c5.151-0.117,10.527,3.197,11.664,8.221c1.141,5.038-1.977,10.008-5.322,13.945
				c-4.961,5.842-10.773,10.96-17.193,15.145c-1.158,0.755-2.412,1.572-2.888,2.869c-0.856,2.335,1.336,4.758,3.673,5.613
				c2.648,0.967,5.56,0.789,8.349,1.208c2.789,0.418,5.782,1.736,6.757,4.382c1.352,3.672-1.84,7.365-4.94,9.751
				c-6.208,4.778-13.241,8.483-20.693,10.902c-2.672,0.868-5.478,1.612-7.667,3.372c-2.189,1.762-3.578,4.903-2.373,7.44
				c1.206,2.542,4.483,3.449,7.266,3.035c2.782-0.414,5.307-1.815,7.975-2.709c4.993-1.675,11.353-1.128,14.376,3.185
				c1.987,2.835,2.045,6.693,0.887,9.955c-1.157,3.263-3.379,6.032-5.726,8.576c-8.204,8.895-18.567,15.931-30.138,19.468
				C591.433,422.121,580.795,422.829,569.555,418.348"/>
		</g>
		<g>
			<g>
				<path style="fill:#E0E0E0;" d="M567.848,451.874c-0.266-4.735-0.132-9.278,0.952-17.708c1.063-8.425,3.27-18.343,6.825-28.995
					c3.534-10.661,8.391-22.03,13.881-33.751c1.384-2.924,2.751-5.814,4.1-8.663c1.351-2.841,2.69-5.656,4.173-8.33
					c2.943-5.362,6.185-10.295,9.412-14.885c3.227-4.591,6.458-8.833,9.509-12.779c3.06-3.939,5.981-7.559,8.787-10.745
					c5.593-6.395,10.711-11.018,14.355-14.052c1.821-1.523,3.27-2.66,4.263-3.419c0.483-0.365,0.859-0.649,1.133-0.856
					c0.257-0.191,0.397-0.277,0.397-0.277s-0.117,0.116-0.363,0.32c-0.266,0.216-0.632,0.515-1.101,0.897
					c-0.969,0.786-2.398,1.948-4.194,3.493c-3.598,3.08-8.662,7.731-14.204,14.142c-2.781,3.195-5.68,6.821-8.721,10.768
					c-3.033,3.955-6.247,8.201-9.456,12.791c-3.21,4.586-6.434,9.511-9.357,14.852c-1.473,2.664-2.8,5.46-4.152,8.308
					c-1.347,2.848-2.713,5.737-4.096,8.66c-5.487,11.714-10.347,23.055-13.898,33.681c-3.571,10.617-5.81,20.494-6.918,28.887
					C568.047,442.613,567.646,447.145,567.848,451.874"/>
			</g>
		</g>
		<g>
			<g>
				<path style="fill:#E0E0E0;" d="M597.915,354.379c-0.037,0.005-0.134-0.539-0.278-1.526c-0.149-0.986-0.321-2.419-0.511-4.191
					c-0.382-3.546-0.749-8.458-1.139-13.877c-0.391-5.422-0.841-10.317-1.3-13.845c-0.224-1.765-0.422-3.192-0.574-4.176
					c-0.146-0.984-0.21-1.533-0.173-1.541c0.036-0.007,0.169,0.529,0.378,1.504c0.216,0.974,0.472,2.396,0.743,4.16
					c0.557,3.525,1.069,8.432,1.46,13.858c0.38,5.372,0.723,10.233,0.981,13.882c0.138,1.699,0.253,3.112,0.342,4.204
					C597.925,353.822,597.952,354.374,597.915,354.379z"/>
			</g>
		</g>
		<g>
			<g>
				<path style="fill:#E0E0E0;" d="M644.347,347.394c0,0.019-0.165,0.039-0.478,0.061c-0.377,0.02-0.827,0.044-1.37,0.072
					c-1.189,0.056-2.908,0.135-5.03,0.301c-4.242,0.298-10.091,0.924-16.508,1.898c-6.419,0.987-12.187,2.131-16.334,3.084
					c-2.077,0.462-3.747,0.882-4.902,1.168c-0.528,0.128-0.967,0.235-1.333,0.323c-0.307,0.069-0.47,0.096-0.476,0.078
					c-0.005-0.018,0.148-0.079,0.446-0.182c0.358-0.114,0.789-0.254,1.307-0.419c1.14-0.348,2.799-0.826,4.87-1.337
					c4.133-1.049,9.907-2.255,16.342-3.244c6.433-0.978,12.304-1.544,16.566-1.747c2.129-0.118,3.856-0.14,5.048-0.132
					c0.544,0.011,0.996,0.02,1.373,0.028C644.181,347.359,644.347,347.375,644.347,347.394z"/>
			</g>
		</g>
		<g>
			<g>
				<path style="fill:#E0E0E0;" d="M576.165,404.334c-0.017,0.007-0.115-0.19-0.286-0.57c-0.189-0.437-0.429-0.992-0.726-1.678
					c-0.625-1.459-1.479-3.592-2.499-6.241c-2.047-5.296-4.649-12.695-7.416-20.898c-2.769-8.205-5.311-15.616-7.264-20.94
					c-0.97-2.61-1.763-4.745-2.339-6.297c-0.259-0.701-0.468-1.268-0.632-1.714c-0.139-0.394-0.204-0.605-0.187-0.612
					c0.017-0.007,0.115,0.19,0.287,0.571c0.188,0.436,0.428,0.991,0.725,1.678c0.625,1.459,1.478,3.592,2.499,6.241
					c2.048,5.296,4.65,12.695,7.417,20.901c2.768,8.202,5.31,15.612,7.263,20.937c0.97,2.609,1.763,4.745,2.339,6.297
					c0.259,0.701,0.468,1.269,0.632,1.715C576.118,404.116,576.182,404.327,576.165,404.334z"/>
			</g>
		</g>
		<g>
			<g>
				<path style="fill:#E0E0E0;" d="M638.132,386.856c0.004,0.017-0.209,0.091-0.619,0.216c-0.467,0.134-1.065,0.306-1.804,0.518
					c-1.634,0.459-3.887,1.091-6.642,1.865c-5.605,1.581-13.322,3.859-21.841,6.397c-8.522,2.538-16.261,4.762-21.896,6.25
					c-2.818,0.746-5.103,1.327-6.689,1.7c-0.75,0.173-1.356,0.313-1.829,0.422c-0.42,0.09-0.642,0.129-0.647,0.111
					c-0.005-0.018,0.209-0.092,0.62-0.216c0.466-0.134,1.063-0.306,1.803-0.518c1.633-0.459,3.886-1.09,6.641-1.864
					c5.606-1.58,13.323-3.861,21.845-6.398c8.519-2.537,16.258-4.761,21.892-6.249c2.818-0.745,5.104-1.327,6.69-1.7
					c0.749-0.173,1.356-0.313,1.829-0.422C637.905,386.876,638.127,386.837,638.132,386.856z"/>
			</g>
		</g>
	</g>
	<g>
		<path style="fill:#EBEBEB;" d="M519.998,105.751h135.04c0,0-11.941-21.731-46.701-18.568
			c-33.197,3.021-34.885-10.691-51.765-12.379C539.691,73.117,525.625,86.058,519.998,105.751z"/>
	</g>
	<g>
		<path style="fill:#EBEBEB;" d="M429.059,143.422h74.02c0,0-6.546-11.911-25.599-10.178c-18.196,1.656-19.122-5.86-28.374-6.785
			C439.853,125.534,432.143,132.628,429.059,143.422z"/>
	</g>
</g>
<g id="Background_Simple" style="display:none;">
	<path style="display:inline;fill:#EBEBEB;" d="M554.54,110.869c25.853,57.247,19.263,127.005-15.952,179.02
		c-35.215,52.015-93.801,85.691-155.407,97.954c-43.976,8.754-91.285,6.971-131.467-12.928
		c-40.181-19.899-71.777-59.934-74.186-104.708c-0.91-16.912,2.677-34.87,13.963-47.498c18.02-20.163,48.785-20.873,75.814-20.041
		c27.03,0.832,57.773,0.201,75.882-19.883c13.914-15.432,15.963-37.818,23.295-57.26c12.467-33.059,42.545-58.871,77.113-66.178
		c25.144-5.315,52.079-0.714,74.431,11.882c14.926,8.411,27.118,21.06,34.912,36.318C553.5,108.647,554.038,109.758,554.54,110.869z
		"/>
</g>
<g id="Floor">
	<g>
		<g>
			<path style="fill:#263238;" d="M639.395,450.657c0,0.144-118.383,0.26-264.382,0.26c-146.05,0-264.408-0.117-264.408-0.26
				c0-0.144,118.358-0.26,264.408-0.26C521.012,450.397,639.395,450.513,639.395,450.657z"/>
		</g>
	</g>
</g>
<g id="Seat">
	<g>
		<path style="fill:#455A64;" d="M548.256,357.319h-340.33c-2.689,0-4.869-2.18-4.869-4.869l0,0c0-2.689,2.18-4.869,4.869-4.869
			h340.33c2.689,0,4.869,2.18,4.869,4.869l0,0C553.126,355.139,550.946,357.319,548.256,357.319z"/>
		<rect x="242.036" y="357.319" style="fill:#455A64;" width="9.628" height="93.375"/>
		<rect x="479.735" y="357.319" style="fill:#455A64;" width="9.628" height="93.375"/>
	</g>
</g>
<g id="Character_2">
	<g>
		<g>
			<path style="fill:#263238;" d="M429.67,183.827c-3.918-2.703-9.43-2.866-13.501-0.399c-4.07,2.467-6.477,7.429-5.895,12.152
				c0.304,2.467,1.344,4.954,0.711,7.357c-1.187,4.503-7.538,6.261-8.375,10.842c-0.33,1.806,0.312,3.628,0.797,5.399
				c0.485,1.771,0.791,3.768-0.123,5.361c-0.677,1.18-1.904,1.917-2.866,2.878c-3.095,3.09-3.038,8.513-0.447,12.036
				c2.591,3.524,7.176,5.214,11.548,5.073c4.372-0.142,8.549-1.906,12.278-4.192"/>
		</g>
		<g>
			<g>
				<path style="fill:#263238;" d="M425.585,185.354c1.252-4.207,5.106-7.357,9.375-8.378c4.269-1.021,9.567-2.417,13.476-0.421
					c2.443,1.247,4.785,3.052,5.745,5.621c1.138,3.046-0.612,8.729-1.486,11.861c-0.873,3.132-1.531,6.704,0.196,9.46
					c1.68,2.682,5.099,3.723,7.223,6.07c2.945,3.254,2.517,8.96-0.88,11.738c3.775-0.22,6.963,3.63,6.831,7.408
					c-0.131,3.779-2.898,7.096-6.269,8.808c-3.371,1.712-7.263,2.07-11.044,2.076c-4.686,0.008-9.374-0.478-13.959-1.447
					c-3.781-0.799-7.724-2.073-10.184-5.053c-2.261-2.738-2.886-6.48-2.893-10.031c-0.024-12.566,6.572-25.022,3.713-37.258"/>
			</g>
		</g>
		<g>
			<g>
				<path style="fill:#B78876;" d="M448.152,278.584l4.842,15.173c1.859,6.266,7.116,10.975,13.611,12.194l32.387,6.079l8.81-0.283
					l-8.81-10.905l-24.346-8.301c-2.391-0.527-4.285-2.326-4.912-4.664l-9.692-21.084l-12.276,7.529L448.152,278.584z"/>
			</g>
			<g>
				<path style="fill:#455A64;" d="M400.398,263.727c0.454,2.349,7.305,19.448,7.305,19.448s26.657-9.028,26.303-10.36
					c-0.286-1.074-5.403-18.195-11.543-27.677c-2.381-3.677-6.306-6.15-10.678-6.427c-1.202-0.076-3.803,1.167-4.516,1.57
					C401.657,243.455,396.887,245.575,400.398,263.727z"/>
			</g>
			<g>
				<g>
					<g>
						<path style="fill:#E8505B;" d="M438.022,230.598c12.06,1.352,14.013,9.539,19.639,17.608l8.129,15.006l-14.949,9.168
							l0.518,23.034l7.124,21.956l-56.25-5.291l5.192-18.84l-7.497-29.581c-0.569-4.03-2.12-11.524-1.071-15.49
							c3.279-12.394,16.165-16.016,25.024-18.318c1.827-0.475,10.649-0.445,12.178-0.07"/>
					</g>
				</g>
				<g>
					<g>
						<path style="fill:#263238;" d="M400.885,263.488c0.007-0.002,0.048,0.107,0.121,0.32c0.077,0.233,0.181,0.548,0.313,0.948
							c0.272,0.856,0.66,2.078,1.154,3.631c0.986,3.165,2.39,7.675,4.095,13.148l-0.188-0.093
							c6.987-2.579,15.659-5.781,25.035-9.242c0.214-0.089,0.428-0.177,0.625-0.258l-0.104,0.208
							c-1.625-5.992-3.651-11.572-5.862-16.462c-2.221-4.88-4.704-9.087-7.444-12.069c-1.365-1.488-2.8-2.651-4.208-3.407
							c-1.401-0.764-2.767-1.129-3.89-1.15c-0.28-0.006-0.547-0.055-0.795-0.023c-0.247,0.026-0.479,0.051-0.696,0.074
							c-0.215,0.027-0.417,0.034-0.596,0.071c-0.175,0.047-0.336,0.09-0.481,0.129c-0.274,0.071-0.49,0.127-0.656,0.169
							c-0.149,0.036-0.226,0.052-0.228,0.047c-0.002-0.006,0.071-0.033,0.216-0.081c0.164-0.051,0.379-0.119,0.649-0.204
							c0.145-0.044,0.306-0.093,0.481-0.146c0.179-0.043,0.383-0.056,0.6-0.089c0.219-0.028,0.454-0.059,0.704-0.091
							c0.251-0.037,0.522,0.007,0.807,0.007c1.143,0.001,2.543,0.352,3.977,1.113c1.441,0.753,2.907,1.919,4.298,3.412
							c2.793,2.992,5.311,7.211,7.558,12.103c2.238,4.905,4.276,10.488,5.911,16.51l0.04,0.149l-0.145,0.06
							c-0.198,0.082-0.413,0.17-0.627,0.259c-9.379,3.509-18.079,6.629-25.071,9.183l-0.144,0.053l-0.044-0.146
							c-1.655-5.487-3.019-10.01-3.976-13.184c-0.461-1.563-0.824-2.792-1.079-3.654c-0.115-0.406-0.205-0.724-0.272-0.961
							C400.905,263.603,400.878,263.49,400.885,263.488z"/>
					</g>
				</g>
				<g>
					<g>
						<path style="fill:#263238;" d="M430.975,268.746c0.031,0.094-5.751,2.092-12.914,4.463
							c-7.164,2.372-12.996,4.218-13.027,4.125c-0.031-0.093,5.75-2.091,12.915-4.463
							C425.111,270.5,430.944,268.653,430.975,268.746z"/>
					</g>
				</g>
			</g>
			<g style="opacity:0.3;">
				<g>
					<path d="M407.792,281.116c0.998,4.198,2.527,10.439,4.154,14.437c1.197,2.943,2.518,5.887,4.545,8.333
						c2.762,3.331,6.72,5.55,10.904,6.654c4.184,1.104,8.592,1.147,12.889,0.633l-21.417-12.099l-5.696-19.796L407.792,281.116z"/>
				</g>
			</g>
			<g>
				<path style="fill:#B78876;" d="M410.246,280.014l5.282,17.274c1.859,6.345,7.116,11.113,13.611,12.348l32.387,6.155l8.81-0.287
					l-8.81-11.043l-24.346-8.406c-2.391-0.534-4.285-2.355-4.912-4.723l-4.508-17.393L410.246,280.014z"/>
			</g>
			<g>
				<g>
					<path style="fill:#263238;" d="M451.344,294.783c-0.036,0.001-0.088-0.582-0.151-1.636c-0.056-1.144-0.129-2.648-0.218-4.464
						c-0.161-3.77-0.348-8.979-0.522-14.732c-0.174-5.756-0.303-10.967-0.37-14.74c-0.021-1.818-0.039-3.324-0.052-4.469
						c-0.001-1.056,0.016-1.641,0.052-1.642s0.088,0.58,0.151,1.633c0.056,1.144,0.129,2.647,0.218,4.463
						c0.161,3.77,0.348,8.98,0.523,14.738c0.174,5.755,0.303,10.967,0.37,14.74c0.021,1.818,0.039,3.323,0.053,4.469
						C451.396,294.198,451.379,294.782,451.344,294.783z"/>
				</g>
			</g>
			<g style="opacity:0.3;">
				<g>
					<path d="M447.766,280.014c0.592,0.378-0.93,3.761-4.08,6.97c-3.138,3.223-6.485,4.821-6.876,4.237
						c-0.42-0.603,2.076-3.034,5.014-6.057C444.78,282.159,447.154,279.608,447.766,280.014z"/>
				</g>
			</g>
			<g style="opacity:0.3;">
				<g>
					<path style="fill:none;stroke:#000000;stroke-width:0.25;stroke-miterlimit:10;" d="M429.139,279.866"/>
				</g>
			</g>
			<g>
				<g>
					<path style="fill:#263238;" d="M463.599,259.218c0.073,0.124-2.754,1.92-6.313,4.012c-3.56,2.092-6.505,3.687-6.578,3.563
						c-0.073-0.124,2.753-1.92,6.314-4.012C460.581,260.689,463.526,259.094,463.599,259.218z"/>
				</g>
			</g>
			<g>
				<g>
					<path style="fill:#FAFAFA;" d="M427.741,260.242c-0.011,0.049-0.397-0.06-1.092-0.024c-0.693,0.025-1.684,0.308-2.734,0.98
						c-1.071,0.656-2.119,1.713-3.271,2.949c-1.16,1.182-2.551,2.628-4.573,3.116c-2.035,0.447-3.906-0.256-5.488-0.708
						c-1.592-0.491-3.081-0.774-4.29-0.527c-1.208,0.242-2.047,0.893-2.451,1.44c-0.414,0.556-0.476,0.962-0.525,0.947
						c-0.018-0.004-0.009-0.102,0.025-0.292c0.053-0.182,0.131-0.461,0.333-0.77c0.38-0.623,1.245-1.376,2.539-1.685
						c1.303-0.317,2.888-0.044,4.501,0.425c1.604,0.44,3.411,1.073,5.238,0.661c1.823-0.431,3.177-1.78,4.348-2.944
						c1.156-1.203,2.286-2.29,3.422-2.928c1.12-0.662,2.193-0.908,2.922-0.869c0.364,0.006,0.644,0.061,0.826,0.117
						C427.654,260.188,427.746,260.225,427.741,260.242z"/>
				</g>
			</g>
			<g>
				<g>
					<path style="fill:#FAFAFA;" d="M450.956,256.557c-0.02,0.049-0.346-0.164-0.989-0.163c-0.64-0.004-1.557,0.282-2.488,0.982
						c-0.476,0.338-0.974,0.757-1.576,1.146c-0.599,0.389-1.343,0.71-2.155,0.811c-1.638,0.23-3.41-0.264-5.067-1.024
						c-1.656-0.771-3.14-1.641-4.606-2.102c-1.456-0.5-2.863-0.487-3.956-0.114c-1.094,0.352-1.839,0.98-2.194,1.512
						c-0.369,0.528-0.454,0.896-0.503,0.88c-0.017-0.004-0.006-0.096,0.033-0.27c0.039-0.173,0.123-0.428,0.3-0.72
						c0.323-0.6,1.089-1.329,2.244-1.75c1.139-0.447,2.693-0.496,4.219,0.005c1.542,0.459,3.06,1.334,4.681,2.087
						c1.61,0.74,3.289,1.209,4.787,1.021c1.519-0.149,2.587-1.131,3.585-1.785c0.996-0.691,2.018-0.953,2.705-0.881
						c0.344,0.029,0.601,0.121,0.759,0.205C450.893,256.48,450.963,256.544,450.956,256.557z"/>
				</g>
			</g>
			<g>
				<g>
					<path style="fill:#FAFAFA;" d="M449.695,261.556c-0.01-0.099,0.794-0.064,1.834-0.683c1.052-0.597,2.176-1.876,3.31-3.386
						c1.153-1.526,2.538-2.728,3.791-3.128c1.262-0.414,2.075-0.042,2.041-0.011c-0.007,0.103-0.799-0.111-1.912,0.355
						c-1.114,0.449-2.379,1.61-3.507,3.101c-1.135,1.513-2.365,2.832-3.547,3.392C450.526,261.778,449.675,261.598,449.695,261.556z
						"/>
				</g>
			</g>
		</g>
		<g>
			<g>
				<g>
					<g>
						<g>
							<g>
								<g>
									<g>
										<path style="fill:#E8505B;" d="M538.882,428.283l-0.159-10.18l-19.071,0.176l0.075,14.896l1.183,0.065
											c5.265,0.243,26.788,0.867,30.297-0.232C555.119,431.783,538.882,428.283,538.882,428.283z"/>
									</g>
								</g>
							</g>
						</g>
					</g>
					<g style="opacity:0.4;">
						<g>
							<g>
								<g>
									<path style="fill:#FFFFFF;" d="M546.818,430.275c0,0,5.694,1.586,4.995,2.528c-0.7,0.942-22.474,1.13-32.086,0.373
										l0.027-0.426l25.4-0.003C545.154,432.746,545.708,430.332,546.818,430.275z"/>
								</g>
							</g>
						</g>
					</g>
					<g>
						<g>
							<g>
								<g>
									<g>
										<path style="fill:#263238;" d="M519.454,432.74c0,0.008,0.113,0.019,0.328,0.033c0.283,0.015,0.593,0.031,0.942,0.049
											c0.942,0.033,2.101,0.072,3.468,0.119c2.928,0.08,6.976,0.137,11.446,0.102c4.471-0.036,8.518-0.156,11.445-0.283
											c1.366-0.069,2.523-0.127,3.465-0.174c0.349-0.024,0.659-0.044,0.941-0.064c0.215-0.017,0.328-0.03,0.327-0.038
											c0-0.008-0.114-0.011-0.329-0.009c-0.283,0.006-0.593,0.013-0.943,0.02c-0.942,0.027-2.1,0.061-3.467,0.1
											c-2.927,0.084-6.972,0.179-11.441,0.215c-4.468,0.034-8.513,0.004-11.441-0.035c-1.367-0.018-2.526-0.033-3.468-0.046
											c-0.35-0.002-0.66-0.004-0.943-0.005C519.568,432.728,519.454,432.732,519.454,432.74z"/>
									</g>
								</g>
							</g>
						</g>
					</g>
					<g>
						<g>
							<g>
								<g>
									<g>
										<path style="fill:#263238;" d="M545.151,433.043c0.071,0.008,0.118-0.82,0.633-1.66c0.501-0.85,1.211-1.279,1.17-1.337
											c-0.014-0.057-0.828,0.309-1.368,1.218C545.036,432.166,545.094,433.057,545.151,433.043z"/>
									</g>
								</g>
							</g>
						</g>
					</g>
					<g>
						<g>
							<g>
								<g>
									<g>
										<path style="fill:#263238;" d="M539.5,430.236c0.054,0.034,0.32-0.296,0.595-0.737c0.275-0.441,0.453-0.825,0.399-0.859
											c-0.054-0.034-0.32,0.296-0.595,0.737C539.624,429.818,539.445,430.203,539.5,430.236z"/>
									</g>
								</g>
							</g>
						</g>
					</g>
					<g>
						<g>
							<g>
								<g>
									<g>
										<path style="fill:#263238;" d="M537.948,429.433c0.043,0.047,0.343-0.156,0.668-0.454
											c0.326-0.298,0.555-0.578,0.513-0.625c-0.043-0.047-0.342,0.156-0.669,0.454
											C538.135,429.106,537.905,429.386,537.948,429.433z"/>
									</g>
								</g>
							</g>
						</g>
					</g>
					<g>
						<g>
							<g>
								<g>
									<g>
										<path style="fill:#263238;" d="M536.956,427.642c0,0.064,0.446,0.117,0.996,0.118c0.55,0.001,0.996-0.049,0.997-0.113
											c0-0.064-0.446-0.116-0.996-0.118C537.403,427.527,536.957,427.578,536.956,427.642z"/>
									</g>
								</g>
							</g>
						</g>
					</g>
					<g>
						<g>
							<g>
								<g>
									<g>
										<path style="fill:#263238;" d="M536.61,426.375c-0.021,0.057,0.466,0.272,1.113,0.313
											c0.647,0.045,1.158-0.103,1.145-0.163c-0.011-0.066-0.515-0.024-1.13-0.068
											C537.124,426.419,536.63,426.311,536.61,426.375z"/>
									</g>
								</g>
							</g>
						</g>
					</g>
					<g>
						<g>
							<g>
								<g>
									<g>
										<path style="fill:#263238;" d="M540.132,428.567c-0.001,0.026,0.47,0.079,1.226-0.018
											c0.377-0.048,0.823-0.142,1.302-0.299c0.238-0.087,0.487-0.153,0.744-0.314c0.12-0.082,0.254-0.197,0.3-0.383
											c0.049-0.184-0.051-0.39-0.19-0.488c-1.177-0.597-2.344,0.072-2.773,0.681c-0.237,0.311-0.344,0.613-0.393,0.821
											c-0.047,0.21-0.042,0.33-0.029,0.331c0.043,0.016,0.079-0.483,0.549-1.05c0.232-0.278,0.585-0.55,1.041-0.689
											c0.432-0.132,1.047-0.172,1.461,0.087c0.196,0.143,0.122,0.372-0.093,0.503c-0.201,0.132-0.461,0.213-0.686,0.3
											c-0.462,0.164-0.893,0.271-1.259,0.34C540.599,428.524,540.131,428.529,540.132,428.567z"/>
									</g>
								</g>
							</g>
						</g>
					</g>
					<g>
						<g>
							<g>
								<g>
									<g>
										<path style="fill:#263238;" d="M540.45,428.625c0.018,0.013,0.196-0.301,0.134-0.852c-0.032-0.27-0.134-0.59-0.342-0.892
											c-0.219-0.27-0.5-0.642-1.026-0.616c-0.283,0.039-0.419,0.363-0.373,0.569c0.024,0.215,0.122,0.398,0.213,0.546
											c0.185,0.305,0.393,0.55,0.585,0.736c0.388,0.372,0.692,0.513,0.706,0.49c0.021-0.03-0.246-0.218-0.587-0.603
											c-0.17-0.192-0.354-0.437-0.519-0.731c-0.171-0.257-0.29-0.722,0.017-0.78c0.307-0.032,0.622,0.27,0.812,0.513
											c0.195,0.264,0.304,0.548,0.353,0.794C540.521,428.297,540.409,428.616,540.45,428.625z"/>
									</g>
								</g>
							</g>
						</g>
					</g>
					<g>
						<g>
							<g>
								<g>
									<g>
										<path style="fill:#263238;" d="M519.798,427.519c0.005,0.043,0.546-0.057,1.409,0.037c0.855,0.088,2.045,0.428,3.085,1.24
											c1.039,0.815,1.655,1.889,1.945,2.698c0.298,0.815,0.331,1.364,0.374,1.358c0.014-0.001,0.02-0.138-0.003-0.385
											c-0.022-0.247-0.084-0.602-0.217-1.027c-0.257-0.844-0.873-1.977-1.956-2.827c-1.084-0.848-2.332-1.174-3.213-1.221
											c-0.444-0.027-0.804-0.002-1.049,0.036C519.928,427.466,519.796,427.505,519.798,427.519z"/>
									</g>
								</g>
							</g>
						</g>
					</g>
					<g>
						<g>
							<g>
								<g>
									<g>
										<path style="fill:#263238;" d="M521.706,419.565c-0.064,0-0.123,1.754-0.131,3.918c-0.009,2.165,0.036,3.92,0.1,3.92
											c0.064,0,0.123-1.754,0.131-3.919C521.815,421.32,521.77,419.565,521.706,419.565z"/>
									</g>
								</g>
							</g>
						</g>
					</g>
					<g>
						<g>
							<g>
								<g>
									<g>
										<path style="fill:#263238;" d="M529.024,431.082c-0.008,0.06,1.237,0.253,2.786,0.252c1.55,0.004,2.795-0.188,2.787-0.248
											c-0.007-0.067-1.251,0.02-2.787,0.016C530.276,431.104,529.031,431.015,529.024,431.082z"/>
									</g>
								</g>
							</g>
						</g>
					</g>
					<g>
						<g>
							<g>
								<g>
									<g>
										<path style="fill:#263238;" d="M525.286,431.108c-0.046,0.047,0.104,0.263,0.234,0.548
											c0.134,0.283,0.202,0.537,0.267,0.533c0.062-0.001,0.096-0.302-0.057-0.63
											C525.579,431.231,525.327,431.062,525.286,431.108z"/>
									</g>
								</g>
							</g>
						</g>
					</g>
					<g>
						<g>
							<g>
								<g>
									<g>
										<path style="fill:#263238;" d="M523.863,429.368c-0.045,0.045,0.08,0.243,0.279,0.441
											c0.199,0.198,0.397,0.322,0.442,0.277c0.045-0.045-0.08-0.243-0.279-0.441
											C524.106,429.447,523.908,429.323,523.863,429.368z"/>
									</g>
								</g>
							</g>
						</g>
					</g>
					<g>
						<g>
							<g>
								<g>
									<g>
										<path style="fill:#263238;" d="M521.84,428.584c0.014,0.065,0.267,0.06,0.548,0.156c0.283,0.09,0.484,0.244,0.534,0.2
											c0.051-0.035-0.112-0.305-0.462-0.419C522.112,428.405,521.82,428.525,521.84,428.584z"/>
									</g>
								</g>
							</g>
						</g>
					</g>
					<g>
						<g>
							<g>
								<g>
									<g>
										<path style="fill:#263238;" d="M520.402,428.219c-0.023,0.06,0.088,0.157,0.247,0.217c0.159,0.06,0.306,0.06,0.328,0.001
											c0.023-0.06-0.088-0.157-0.247-0.217C520.571,428.159,520.424,428.159,520.402,428.219z"/>
									</g>
								</g>
							</g>
						</g>
					</g>
				</g>
			</g>
			<g style="opacity:0.3;">
				<g>
					<polygon points="519.82,427.008 538.869,426.526 538.819,424.23 519.683,424.528 					"/>
				</g>
			</g>
		</g>
		<g>
			<g>
				<g>
					<path style="fill:#263238;" d="M461.53,318.238l55.725,1.042c8.909,0.167,16.338,6.862,17.426,15.706l11.05,89.803h-30.265
						l-9.241-77.565h-43.94L461.53,318.238z"/>
				</g>
				<g>
					<g>
						<path style="fill:#455A64;" d="M545.354,419.081c0.001,0.144-6.629,0.302-14.807,0.353c-8.18,0.051-14.81-0.024-14.811-0.168
							c-0.001-0.144,6.628-0.301,14.808-0.353C538.721,418.862,545.353,418.937,545.354,419.081z"/>
					</g>
				</g>
			</g>
			<g>
				<g>
					<g>
						<path style="fill:#263238;" d="M409.29,347.581c-22.243-7.364-7.058-37.14-7.058-37.14l97.212,9.143
							c7.805-0.053,14.159,6.26,14.159,14.064l0,0c0,7.768-6.297,14.065-14.065,14.065L409.29,347.581"/>
					</g>
					<g>
						<g>
							<polygon style="fill:#455A64;" points="438.942,316.018 439.219,313.92 464.1,312.942 476.312,282.15 522.827,285.308 
								507.131,319.489 							"/>
						</g>
						<g>
							<path style="fill:#FFFFFF;" d="M494.616,302.124c-0.72,1.137-2.227,1.475-3.364,0.755c-1.137-0.721-1.475-2.227-0.755-3.364
								c0.721-1.137,2.227-1.475,3.364-0.755C494.999,299.481,495.337,300.987,494.616,302.124z"/>
						</g>
					</g>
				</g>
				<g>
					<g>
						<path style="fill:#455A64;" d="M429.521,315.406c0-0.009,0.098-0.013,0.289-0.011c0.22,0.005,0.499,0.012,0.847,0.02
							c0.781,0.03,1.87,0.073,3.253,0.126c2.863,0.134,6.938,0.326,11.958,0.561c10.127,0.526,24.055,1.249,39.439,2.048
							c1.925,0.087,3.83,0.245,5.701,0.27c1.883,0.028,3.736,0.102,5.554,0.206c1.819,0.105,3.603,0.233,5.349,0.412
							c1.73,0.191,3.488,0.367,5.083,0.988c1.593,0.588,3.051,1.45,4.227,2.565c1.179,1.116,2.021,2.492,2.563,3.897
							c0.55,1.408,0.85,2.838,1.044,4.212c0.189,1.375,0.289,2.707,0.279,3.982c-0.01,2.546-0.48,4.862-1.342,6.705
							c-0.853,1.85-2.042,3.2-3.161,4.079c-1.124,0.887-2.163,1.328-2.878,1.54c-0.719,0.215-1.116,0.228-1.116,0.228
							c-0.007-0.032,0.384-0.083,1.083-0.328c0.696-0.241,1.702-0.705,2.783-1.597c1.077-0.885,2.217-2.226,3.023-4.042
							c0.816-1.811,1.251-4.081,1.239-6.586c-0.002-1.253-0.112-2.568-0.309-3.924c-0.201-1.353-0.507-2.75-1.048-4.11
							c-0.535-1.359-1.346-2.663-2.477-3.723c-1.13-1.061-2.535-1.885-4.078-2.447c-1.539-0.593-3.23-0.756-4.968-0.943
							c-1.735-0.172-3.515-0.296-5.327-0.397c-1.813-0.1-3.659-0.171-5.533-0.197c-1.885-0.024-3.782-0.181-5.71-0.268
							c-15.385-0.859-29.313-1.636-39.441-2.201c-5.017-0.305-9.09-0.553-11.951-0.727c-1.381-0.095-2.468-0.17-3.248-0.224
							c-0.347-0.029-0.624-0.053-0.844-0.071C429.618,315.429,429.52,315.415,429.521,315.406z"/>
					</g>
				</g>
			</g>
		</g>
		<g>
			<g>
				<path style="fill:none;stroke:#FFFFFF;stroke-width:0.05;stroke-miterlimit:10;" d="M471.027,245.891"/>
			</g>
		</g>
		<g>
			<g>
				<g>
					<g>
						<g>
							<g>
								<g>
									<path style="fill:#B78876;" d="M417.63,187.281l0.059,2.988l0.6,44.735c0.07,5.194,10.738,10.575,16.298,10.458l0,0
										c5.615-0.118,3.611-6.096,4.045-11.018c0.485-5.486,0.135-11.306,0.135-11.306s7.095-1.178,8.565-10.435
										c0.731-4.604,0.5-12.152,0.111-18.322c-0.35-5.554-5.249-9.699-10.782-9.114L417.63,187.281z"/>
								</g>
							</g>
							<g>
								<g>
									<g>
										<path style="fill:#263238;" d="M445.039,200.374c0.022,0.627-0.49,1.163-1.145,1.198c-0.653,0.035-1.202-0.443-1.224-1.07
											c-0.022-0.627,0.49-1.163,1.143-1.199C444.469,199.268,445.017,199.747,445.039,200.374z"/>
									</g>
								</g>
								<g>
									<g>
										<g>
											<path style="fill:#263238;" d="M445.807,198.308c-0.147,0.155-1.047-0.511-2.324-0.507
												c-1.276-0.015-2.214,0.642-2.352,0.486c-0.068-0.069,0.082-0.349,0.49-0.646c0.402-0.296,1.087-0.584,1.883-0.58
												c0.796,0.004,1.465,0.297,1.85,0.597C445.746,197.959,445.879,198.239,445.807,198.308z"/>
										</g>
									</g>
								</g>
							</g>
							<g>
								<g>
									<g>
										<path style="fill:#263238;" d="M432.55,200.374c0.022,0.627-0.491,1.163-1.145,1.198c-0.653,0.035-1.202-0.443-1.224-1.07
											c-0.022-0.627,0.491-1.163,1.144-1.199C431.979,199.268,432.528,199.747,432.55,200.374z"/>
									</g>
								</g>
								<g>
									<g>
										<g>
											<path style="fill:#263238;" d="M433.249,198.547c-0.147,0.155-1.048-0.511-2.324-0.507
												c-1.276-0.015-2.214,0.642-2.353,0.486c-0.068-0.069,0.081-0.348,0.49-0.646c0.402-0.296,1.087-0.584,1.883-0.581
												c0.796,0.005,1.465,0.297,1.85,0.597C433.187,198.197,433.321,198.477,433.249,198.547z"/>
										</g>
									</g>
								</g>
							</g>
							<g>
								<g>
									<g>
										<path style="fill:#263238;" d="M437.885,208.021c-0.006-0.073,0.788-0.21,2.075-0.374c0.326-0.034,0.635-0.098,0.69-0.321
											c0.077-0.236-0.06-0.587-0.218-0.967c-0.307-0.789-0.628-1.617-0.965-2.484c-1.34-3.537-2.31-6.445-2.167-6.498
											c0.143-0.053,1.345,2.771,2.685,6.308c0.322,0.872,0.631,1.703,0.924,2.499c0.123,0.371,0.336,0.791,0.169,1.28
											c-0.088,0.244-0.327,0.421-0.536,0.477c-0.209,0.064-0.393,0.067-0.554,0.077
											C438.694,208.088,437.89,208.094,437.885,208.021z"/>
									</g>
								</g>
							</g>
							<g>
								<g>
									<path style="fill:#AA6550;" d="M438.768,223.139c0,0-6.228,0.401-12.398-3.307c0,0,3.008,6.359,12.273,5.493
										L438.768,223.139z"/>
								</g>
							</g>
							<g>
								<g>
									<path style="fill:#AA6550;" d="M437.345,211.1c-0.46-0.608-1.264-0.941-2.064-0.855c-0.554,0.06-1.115,0.327-1.451,0.778
										c-0.337,0.451-0.407,1.092-0.101,1.523c0.345,0.485,1.065,0.597,1.675,0.424c0.61-0.173,1.134-0.575,1.633-0.975
										c0.138-0.111,0.279-0.226,0.365-0.378c0.086-0.152,0.104-0.35-0.002-0.476"/>
								</g>
							</g>
							<g>
								<g>
									<g>
										<path style="fill:#263238;" d="M434.126,208.905c0.208-0.012,0.21,1.375,1.397,2.359c1.185,0.988,2.663,0.832,2.674,1.026
											c0.019,0.087-0.329,0.269-0.953,0.286c-0.612,0.021-1.506-0.176-2.232-0.778c-0.724-0.604-1.035-1.409-1.083-1.978
											C433.876,209.24,434.031,208.897,434.126,208.905z"/>
									</g>
								</g>
							</g>
						</g>
					</g>
				</g>
				<g>
					<g>
						<path style="fill:#263238;" d="M425.161,182.945c0.048-0.109,0.151-0.17,0.229-0.135c0.079,0.035,0.103,0.151,0.055,0.26
							c-0.048,0.109-0.151,0.17-0.229,0.135C425.138,183.171,425.113,183.055,425.161,182.945z"/>
					</g>
				</g>
				<g>
					<path style="fill:#263238;" d="M417.146,231.078c2.733-0.95,4.885-3.273,5.911-5.979c1.027-2.706,0.99-5.748,0.198-8.531
						c-0.367-1.289-0.884-2.698-0.317-3.912c0.412-0.881,1.298-1.42,2.019-2.072c1.622-1.467,2.484-3.654,2.628-5.837
						c0.144-2.183-0.376-4.366-1.175-6.403c-0.439-1.121-0.971-2.348-0.566-3.482c0.287-0.802,0.986-1.369,1.608-1.95
						c1.316-1.228,2.411-2.694,3.215-4.304c0.57-1.142,0.991-2.517,0.439-3.668c-0.666-1.389-2.418-1.825-3.954-1.942
						c-3.664-0.279-7.718,0.53-10.049,3.37c-2.091,2.547-2.331,6.092-2.479,9.384c-0.466,10.37-0.926,20.84,0.867,31.064"/>
				</g>
				<g>
					<g>
						<path style="fill:#263238;" d="M450.954,186.25c-0.455,0.391-1.094,0.534-1.583,0.859c-0.494,0.318-0.85,0.716-1.336,1.163
							c-0.238,0.229-0.499,0.485-0.728,0.751c-0.062,0.067-0.1,0.132-0.17,0.204l-0.261,0.262c-0.209,0.198-0.423,0.402-0.643,0.61
							c-0.493,0.445-1.111,0.987-1.983,1.563c-0.851,0.565-2.035,1.185-3.443,1.504c-2.785,0.62-5.228,0.006-7.022-0.857
							c-1.848-0.901-3.034-2.058-3.853-3.092c-1.577-2.1-1.82-3.8-1.095-4.724c0.745-0.952,2.551-0.793,4.597-0.291
							c1.01,0.229,2.094,0.506,3.028,0.6c0.965,0.117,1.852,0.073,2.408-0.066c0.256-0.055,0.591-0.157,1.121-0.4
							c0.516-0.23,1.166-0.576,1.912-0.929c0.372-0.176,0.768-0.354,1.192-0.518c0.205-0.082,0.429-0.16,0.644-0.234
							c0.234-0.077,0.493-0.163,0.734-0.222c0.977-0.247,1.906-0.31,2.772-0.227c1.734,0.146,3.218,1.017,3.788,1.975
							C451.625,185.145,451.391,185.884,450.954,186.25z"/>
					</g>
				</g>
				<g>
					<g>
						<path style="fill:#263238;" d="M433.579,193.54c-0.126,0.347-1.402,0.183-2.9,0.363c-1.503,0.15-2.711,0.589-2.91,0.278
							c-0.089-0.149,0.122-0.476,0.611-0.812c0.484-0.336,1.257-0.655,2.157-0.755c0.9-0.098,1.724,0.044,2.27,0.267
							C433.356,193.102,433.633,193.375,433.579,193.54z"/>
					</g>
				</g>
				<g>
					<g>
						<path style="fill:#263238;" d="M445.337,194.611c-0.225,0.29-1.105-0.011-2.163-0.025c-1.058-0.051-1.954,0.195-2.161-0.109
							c-0.09-0.147,0.051-0.438,0.442-0.713c0.386-0.274,1.031-0.497,1.758-0.475c0.727,0.023,1.357,0.286,1.725,0.583
							C445.313,194.171,445.436,194.469,445.337,194.611z"/>
					</g>
				</g>
			</g>
		</g>
	</g>
</g>
<g id="Character_1">
	<g>
		<g>
			<g>
				<g>
					<g>
						<g>
							<g>
								<g>
									<g>
										<path style="fill:#E8505B;" d="M171.931,329.747l9.876-2.475l4.754,18.47l-14.41,3.773l-0.368-1.126
											c-1.595-5.024-7.754-25.656-7.599-29.329C164.358,314.964,171.931,329.747,171.931,329.747z"/>
									</g>
								</g>
							</g>
						</g>
					</g>
					<g style="opacity:0.4;">
						<g>
							<g>
								<g>
									<path style="fill:#FFFFFF;" d="M167.958,322.594c0,0-3.002-5.092-3.731-4.172c-0.729,0.919,4.711,22.004,7.924,31.094
										l0.405-0.136l-6.555-24.539C166.001,324.84,168.19,323.681,167.958,322.594z"/>
								</g>
							</g>
						</g>
					</g>
					<g>
						<g>
							<g>
								<g>
									<g>
										<path style="fill:#263238;" d="M172.642,349.667c-0.008,0.002-0.048-0.104-0.116-0.309
											c-0.087-0.27-0.183-0.565-0.29-0.898c-0.275-0.902-0.612-2.011-1.01-3.319c-0.833-2.808-1.933-6.704-3.054-11.031
											c-1.12-4.329-2.048-8.27-2.682-11.13c-0.286-1.337-0.529-2.471-0.727-3.392c-0.067-0.344-0.127-0.648-0.182-0.926
											c-0.039-0.212-0.056-0.324-0.048-0.326c0.008-0.002,0.04,0.107,0.093,0.316c0.067,0.275,0.141,0.576,0.224,0.916
											c0.217,0.917,0.483,2.045,0.798,3.375c0.674,2.85,1.627,6.782,2.746,11.109c1.12,4.325,2.194,8.225,2.987,11.044
											c0.37,1.316,0.684,2.432,0.94,3.339c0.092,0.338,0.174,0.637,0.249,0.91C172.624,349.554,172.65,349.664,172.642,349.667z
											"/>
									</g>
								</g>
							</g>
						</g>
					</g>
					<g>
						<g>
							<g>
								<g>
									<g>
										<path style="fill:#263238;" d="M165.715,324.919c-0.026-0.066,0.762-0.325,1.44-1.04c0.691-0.703,0.923-1.5,0.99-1.476
											c0.059-0.001-0.085,0.88-0.823,1.636C166.592,324.804,165.716,324.978,165.715,324.919z"/>
									</g>
								</g>
							</g>
						</g>
					</g>
					<g>
						<g>
							<g>
								<g>
									<g>
										<path style="fill:#263238;" d="M169.885,329.655c-0.047-0.044,0.204-0.386,0.558-0.765
											c0.355-0.379,0.68-0.651,0.727-0.607c0.047,0.044-0.203,0.386-0.558,0.765
											C170.257,329.427,169.932,329.698,169.885,329.655z"/>
									</g>
								</g>
							</g>
						</g>
					</g>
					<g>
						<g>
							<g>
								<g>
									<g>
										<path style="fill:#263238;" d="M171.062,330.946c-0.057-0.03,0.063-0.371,0.266-0.763
											c0.204-0.392,0.415-0.686,0.471-0.656c0.057,0.03-0.063,0.371-0.266,0.763
											C171.329,330.681,171.118,330.975,171.062,330.946z"/>
									</g>
								</g>
							</g>
						</g>
					</g>
					<g>
						<g>
							<g>
								<g>
									<g>
										<path style="fill:#263238;" d="M173.049,331.441c-0.062,0.017-0.228-0.401-0.372-0.932
											c-0.143-0.531-0.21-0.975-0.148-0.992c0.062-0.017,0.228,0.4,0.371,0.932C173.044,330.981,173.11,331.425,173.049,331.441
											z"/>
									</g>
								</g>
							</g>
						</g>
					</g>
					<g>
						<g>
							<g>
								<g>
									<g>
										<path style="fill:#263238;" d="M174.361,331.449c-0.05,0.035-0.383-0.38-0.59-0.995c-0.21-0.613-0.199-1.146-0.138-1.148
											c0.066-0.006,0.157,0.492,0.357,1.074C174.186,330.964,174.418,331.413,174.361,331.449z"/>
									</g>
								</g>
							</g>
						</g>
					</g>
					<g>
						<g>
							<g>
								<g>
									<g>
										<path style="fill:#263238;" d="M171.335,328.613c-0.025,0.008-0.198-0.433-0.299-1.189
											c-0.051-0.377-0.075-0.831-0.048-1.335c0.023-0.253,0.022-0.51,0.111-0.8c0.048-0.138,0.125-0.296,0.293-0.389
											c0.165-0.095,0.389-0.051,0.521,0.057c0.88,0.983,0.535,2.283,0.058,2.855c-0.239,0.309-0.504,0.49-0.692,0.591
											c-0.191,0.1-0.308,0.126-0.313,0.113c-0.026-0.038,0.446-0.201,0.873-0.802c0.209-0.296,0.38-0.707,0.397-1.184
											c0.016-0.451-0.104-1.056-0.461-1.389c-0.188-0.152-0.391-0.022-0.462,0.22c-0.076,0.228-0.087,0.5-0.113,0.741
											c-0.039,0.489-0.031,0.933-0.003,1.304C171.256,328.151,171.371,328.603,171.335,328.613z"/>
									</g>
								</g>
							</g>
						</g>
					</g>
					<g>
						<g>
							<g>
								<g>
									<g>
										<path style="fill:#263238;" d="M171.197,328.32c-0.017-0.014,0.241-0.267,0.788-0.35c0.27-0.039,0.605-0.023,0.951,0.1
											c0.317,0.142,0.75,0.317,0.86,0.832c0.036,0.284-0.243,0.499-0.453,0.507c-0.214,0.032-0.416-0.015-0.582-0.065
											c-0.342-0.1-0.633-0.238-0.863-0.375c-0.459-0.278-0.675-0.536-0.656-0.555c0.024-0.028,0.274,0.181,0.734,0.412
											c0.23,0.114,0.514,0.229,0.84,0.313c0.293,0.098,0.772,0.094,0.749-0.218c-0.048-0.305-0.422-0.531-0.706-0.652
											c-0.305-0.12-0.608-0.152-0.858-0.137C171.495,328.168,171.215,328.358,171.197,328.32z"/>
									</g>
								</g>
							</g>
						</g>
					</g>
					<g>
						<g>
							<g>
								<g>
									<g>
										<path style="fill:#263238;" d="M177.597,347.986c-0.043,0.007-0.086-0.542-0.4-1.351c-0.305-0.803-0.941-1.866-1.995-2.66
											c-1.055-0.794-2.252-1.111-3.109-1.182c-0.864-0.078-1.403,0.032-1.409-0.011c-0.003-0.014,0.128-0.055,0.372-0.096
											c0.244-0.043,0.603-0.074,1.048-0.056c0.882,0.03,2.136,0.333,3.236,1.16c1.099,0.828,1.736,1.95,2.009,2.789
											c0.141,0.422,0.21,0.776,0.236,1.022C177.615,347.848,177.611,347.985,177.597,347.986z"/>
									</g>
								</g>
							</g>
						</g>
					</g>
					<g>
						<g>
							<g>
								<g>
									<g>
										<path style="fill:#263238;" d="M184.788,344.089c0.017,0.062-1.663,0.572-3.752,1.139
											c-2.089,0.568-3.796,0.978-3.813,0.916c-0.017-0.061,1.663-0.571,3.752-1.139
											C183.065,344.438,184.772,344.028,184.788,344.089z"/>
									</g>
								</g>
							</g>
						</g>
					</g>
					<g>
						<g>
							<g>
								<g>
									<g>
										<path style="fill:#263238;" d="M171.773,339.993c-0.056,0.023-0.564-1.13-0.963-2.627c-0.404-1.497-0.54-2.748-0.48-2.757
											c0.066-0.011,0.304,1.214,0.704,2.697C171.429,338.79,171.836,339.969,171.773,339.993z"/>
									</g>
								</g>
							</g>
						</g>
					</g>
					<g>
						<g>
							<g>
								<g>
									<g>
										<path style="fill:#263238;" d="M172.712,343.611c-0.033,0.057-0.281-0.033-0.589-0.084
											c-0.308-0.056-0.571-0.056-0.583-0.121c-0.015-0.06,0.267-0.17,0.623-0.107
											C172.519,343.36,172.747,343.56,172.712,343.611z"/>
									</g>
								</g>
							</g>
						</g>
					</g>
					<g>
						<g>
							<g>
								<g>
									<g>
										<path style="fill:#263238;" d="M174.762,344.537c-0.032,0.055-0.255-0.014-0.498-0.156
											c-0.243-0.141-0.414-0.3-0.382-0.355c0.032-0.055,0.255,0.014,0.498,0.156
											C174.623,344.323,174.794,344.482,174.762,344.537z"/>
									</g>
								</g>
							</g>
						</g>
					</g>
					<g>
						<g>
							<g>
								<g>
									<g>
										<path style="fill:#263238;" d="M176.041,346.289c-0.066,0.003-0.127-0.243-0.293-0.489c-0.16-0.25-0.36-0.405-0.331-0.464
											c0.021-0.058,0.324,0.029,0.524,0.338C176.144,345.98,176.103,346.293,176.041,346.289z"/>
									</g>
								</g>
							</g>
						</g>
					</g>
					<g>
						<g>
							<g>
								<g>
									<g>
										<path style="fill:#263238;" d="M176.765,347.584c-0.052,0.037-0.174-0.044-0.273-0.182
											c-0.099-0.138-0.137-0.28-0.085-0.317c0.052-0.037,0.174,0.044,0.273,0.182
											C176.779,347.405,176.817,347.547,176.765,347.584z"/>
									</g>
								</g>
							</g>
						</g>
					</g>
				</g>
			</g>
			<g style="opacity:0.3;">
				<g>
					<polygon points="178.086,347.834 173.633,329.306 175.864,328.762 180.517,347.325 					"/>
				</g>
			</g>
		</g>
		<g>
			<g>
				<g>
					<polygon style="fill:#263238;" points="180.378,348.858 254.652,341.997 365.964,344.487 342.546,319.005 262.631,315.165 
						174.428,323.495 					"/>
				</g>
				<g>
					<g>
						<g>
							<path style="fill:#455A64;" d="M192.398,334.413c0.016,0.143-1.082,0.389-2.452,0.55c-1.37,0.161-2.495,0.175-2.513,0.032
								c-0.018-0.143,1.08-0.389,2.452-0.55C191.257,334.285,192.382,334.27,192.398,334.413z"/>
						</g>
					</g>
					<g>
						<g>
							<path style="fill:#455A64;" d="M202.341,333.369c0.014,0.143-1.088,0.372-2.461,0.51c-1.373,0.139-2.498,0.135-2.513-0.008
								c-0.015-0.143,1.087-0.371,2.461-0.51C201.202,333.223,202.328,333.226,202.341,333.369z"/>
						</g>
					</g>
					<g>
						<g>
							<path style="fill:#455A64;" d="M212.301,332.482c0.012,0.143-1.094,0.354-2.469,0.472c-1.375,0.117-2.5,0.096-2.513-0.047
								c-0.013-0.143,1.092-0.354,2.469-0.472C211.165,332.317,212.29,332.339,212.301,332.482z"/>
						</g>
					</g>
					<g>
						<g>
							<path style="fill:#455A64;" d="M222.27,331.748c0.009,0.143-1.098,0.338-2.473,0.434c-1.376,0.096-2.499,0.058-2.51-0.086
								c-0.011-0.143,1.097-0.338,2.473-0.434C221.136,331.566,222.26,331.604,222.27,331.748z"/>
						</g>
					</g>
					<g>
						<g>
							<path style="fill:#455A64;" d="M232.252,331.163c0.007,0.144-1.104,0.321-2.482,0.397c-1.378,0.076-2.502,0.021-2.511-0.123
								c-0.008-0.143,1.103-0.321,2.482-0.397C231.121,330.964,232.245,331.02,232.252,331.163z"/>
						</g>
					</g>
					<g>
						<g>
							<path style="fill:#455A64;" d="M242.243,330.726c0.005,0.144-1.109,0.305-2.487,0.36c-1.379,0.055-2.502-0.016-2.509-0.16
								c-0.006-0.144,1.107-0.305,2.488-0.36C241.114,330.511,242.238,330.582,242.243,330.726z"/>
						</g>
					</g>
					<g>
						<g>
							<path style="fill:#455A64;" d="M252.238,330.435c0.003,0.144-1.113,0.289-2.492,0.324c-1.38,0.035-2.502-0.053-2.506-0.197
								c-0.004-0.144,1.112-0.289,2.493-0.324C251.113,330.203,252.235,330.292,252.238,330.435z"/>
						</g>
					</g>
					<g>
						<g>
							<path style="fill:#455A64;" d="M262.237,330.29c0.001,0.144-1.117,0.273-2.497,0.288c-1.38,0.015-2.501-0.089-2.503-0.233
								c-0.002-0.144,1.116-0.272,2.497-0.288C261.116,330.042,262.236,330.146,262.237,330.29z"/>
						</g>
					</g>
					<g>
						<g>
							<path style="fill:#455A64;" d="M272.237,330.29c-0.001,0.144-1.121,0.256-2.501,0.251c-1.38-0.005-2.499-0.126-2.499-0.27
								c0-0.144,1.119-0.256,2.501-0.251C271.12,330.026,272.238,330.146,272.237,330.29z"/>
						</g>
					</g>
					<g>
						<g>
							<path style="fill:#455A64;" d="M282.236,330.437c-0.003,0.144-1.125,0.24-2.504,0.215c-1.38-0.025-2.497-0.162-2.495-0.306
								s1.123-0.24,2.504-0.214C281.122,330.156,282.239,330.293,282.236,330.437z"/>
						</g>
					</g>
					<g>
						<g>
							<path style="fill:#455A64;" d="M292.232,330.731c-0.005,0.144-1.128,0.223-2.507,0.177c-1.38-0.046-2.494-0.199-2.49-0.343
								c0.004-0.144,1.126-0.223,2.507-0.177C291.122,330.434,292.237,330.587,292.232,330.731z"/>
						</g>
					</g>
					<g>
						<g>
							<path style="fill:#455A64;" d="M302.222,331.175c-0.008,0.144-1.131,0.206-2.51,0.14c-1.379-0.066-2.491-0.237-2.485-0.381
								c0.006-0.144,1.13-0.206,2.51-0.14C301.117,330.861,302.23,331.032,302.222,331.175z"/>
						</g>
					</g>
					<g>
						<g>
							<path style="fill:#455A64;" d="M312.204,331.773c-0.01,0.143-1.134,0.189-2.511,0.101c-1.377-0.088-2.487-0.275-2.478-0.419
								c0.009-0.143,1.133-0.189,2.512-0.101C311.104,331.442,312.214,331.629,312.204,331.773z"/>
						</g>
					</g>
					<g>
						<g>
							<path style="fill:#455A64;" d="M322.176,332.527c-0.012,0.143-1.137,0.171-2.513,0.061c-1.376-0.11-2.482-0.315-2.471-0.458
								c0.011-0.143,1.136-0.171,2.513-0.061C321.081,332.179,322.188,332.384,322.176,332.527z"/>
						</g>
					</g>
					<g>
						<g>
							<path style="fill:#455A64;" d="M327.457,332.992c-0.013,0.143-0.091,0.253-0.174,0.245c-0.083-0.008-0.139-0.13-0.126-0.273
								c0.013-0.143,0.091-0.253,0.174-0.245C327.414,332.727,327.47,332.849,327.457,332.992z"/>
						</g>
					</g>
				</g>
			</g>
			<g>
				<g>
					<path style="fill:#455A64;" d="M186.333,348.114c-0.034,0.012-0.189-0.317-0.44-0.923c-0.253-0.606-0.593-1.493-0.99-2.597
						c-0.796-2.208-1.795-5.297-2.717-8.76c-0.92-3.465-1.586-6.642-1.992-8.954c-0.204-1.156-0.35-2.094-0.43-2.746
						c-0.083-0.651-0.112-1.014-0.076-1.02c0.076-0.013,0.37,1.407,0.868,3.695c0.497,2.288,1.218,5.44,2.134,8.891
						c0.918,3.45,1.858,6.543,2.563,8.776C185.955,346.709,186.404,348.088,186.333,348.114z"/>
				</g>
			</g>
		</g>
		<g>
			<g>
				<g>
					<g>
						<g>
							<g>
								<g>
									<g>
										<path style="fill:#E8505B;" d="M232.656,341.815l1.554-10.062l18.867,2.791l-2.118,14.745l-1.181-0.098
											c-5.249-0.481-26.654-2.816-29.978-4.386C216.092,343.054,232.656,341.815,232.656,341.815z"/>
									</g>
								</g>
							</g>
						</g>
					</g>
					<g style="opacity:0.4;">
						<g>
							<g>
								<g>
									<path style="fill:#FFFFFF;" d="M224.521,342.7c0,0-5.858,0.79-5.294,1.819c0.564,1.029,22.107,4.202,31.731,4.771
										l0.032-0.426l-25.159-3.488C225.831,345.376,225.613,342.908,224.521,342.7z"/>
								</g>
							</g>
						</g>
					</g>
					<g>
						<g>
							<g>
								<g>
									<g>
										<path style="fill:#263238;" d="M251.289,348.895c-0.001,0.008-0.114,0.004-0.329-0.013
											c-0.282-0.024-0.591-0.051-0.94-0.081c-0.938-0.097-2.091-0.217-3.451-0.358c-2.912-0.323-6.929-0.821-11.352-1.469
											c-4.424-0.649-8.416-1.324-11.298-1.85c-1.344-0.255-2.482-0.472-3.408-0.648c-0.343-0.071-0.646-0.134-0.924-0.192
											c-0.211-0.046-0.321-0.075-0.319-0.082c0.001-0.008,0.114,0.005,0.327,0.036c0.28,0.045,0.586,0.094,0.931,0.149
											c0.929,0.156,2.072,0.348,3.42,0.575c2.888,0.485,6.882,1.134,11.303,1.783c4.421,0.647,8.432,1.172,11.338,1.535
											c1.357,0.17,2.506,0.314,3.441,0.43c0.347,0.046,0.654,0.087,0.935,0.124
											C251.178,348.867,251.289,348.887,251.289,348.895z"/>
									</g>
								</g>
							</g>
						</g>
					</g>
					<g>
						<g>
							<g>
								<g>
									<g>
										<path style="fill:#263238;" d="M225.793,345.669c-0.071-0.001-0.004-0.828-0.399-1.731
											c-0.38-0.91-1.023-1.433-0.976-1.485c0.022-0.055,0.778,0.42,1.188,1.394
											C226.027,344.817,225.848,345.692,225.793,345.669z"/>
									</g>
								</g>
							</g>
						</g>
					</g>
					<g>
						<g>
							<g>
								<g>
									<g>
										<path style="fill:#263238;" d="M231.776,343.665c-0.058,0.026-0.277-0.337-0.488-0.811
											c-0.211-0.474-0.335-0.88-0.277-0.906c0.058-0.026,0.277,0.337,0.488,0.811
											C231.71,343.234,231.835,343.639,231.776,343.665z"/>
									</g>
								</g>
							</g>
						</g>
					</g>
					<g>
						<g>
							<g>
								<g>
									<g>
										<path style="fill:#263238;" d="M233.423,343.082c-0.049,0.041-0.318-0.202-0.6-0.542c-0.282-0.34-0.471-0.648-0.422-0.689
											c0.049-0.041,0.318,0.202,0.6,0.542C233.283,342.733,233.472,343.042,233.423,343.082z"/>
									</g>
								</g>
							</g>
						</g>
					</g>
					<g>
						<g>
							<g>
								<g>
									<g>
										<path style="fill:#263238;" d="M234.651,341.444c-0.008,0.063-0.458,0.054-1.003-0.02
											c-0.545-0.074-0.98-0.186-0.972-0.249c0.008-0.063,0.457-0.054,1.003,0.02
											C234.225,341.269,234.66,341.381,234.651,341.444z"/>
									</g>
								</g>
							</g>
						</g>
					</g>
					<g>
						<g>
							<g>
								<g>
									<g>
										<path style="fill:#263238;" d="M235.168,340.237c0.013,0.06-0.499,0.205-1.146,0.158
											c-0.647-0.044-1.133-0.261-1.112-0.318c0.02-0.064,0.514,0.047,1.128,0.088
											C234.653,340.21,235.157,340.171,235.168,340.237z"/>
									</g>
								</g>
							</g>
						</g>
					</g>
					<g>
						<g>
							<g>
								<g>
									<g>
										<path style="fill:#263238;" d="M231.379,341.925c-0.002,0.026-0.476,0.014-1.212-0.186
											c-0.367-0.1-0.795-0.253-1.249-0.475c-0.224-0.119-0.462-0.218-0.694-0.413c-0.108-0.098-0.225-0.23-0.245-0.421
											c-0.023-0.189,0.104-0.379,0.255-0.457c1.247-0.43,2.312,0.393,2.654,1.055c0.192,0.341,0.256,0.655,0.276,0.867
											c0.018,0.215-0.003,0.332-0.017,0.332c-0.045,0.009-0.012-0.489-0.4-1.115c-0.192-0.307-0.504-0.625-0.937-0.826
											c-0.409-0.19-1.014-0.314-1.459-0.115c-0.213,0.114-0.172,0.352,0.023,0.511c0.181,0.158,0.427,0.275,0.639,0.391
											c0.436,0.226,0.848,0.391,1.201,0.509C230.922,341.818,231.384,341.888,231.379,341.925z"/>
									</g>
								</g>
							</g>
						</g>
					</g>
					<g>
						<g>
							<g>
								<g>
									<g>
										<path style="fill:#263238;" d="M231.056,341.939c-0.019,0.011-0.153-0.325-0.016-0.862
											c0.069-0.263,0.214-0.566,0.462-0.837c0.254-0.238,0.584-0.568,1.101-0.469c0.276,0.077,0.366,0.417,0.291,0.615
											c-0.053,0.209-0.176,0.378-0.286,0.511c-0.225,0.276-0.465,0.491-0.681,0.649c-0.435,0.315-0.756,0.413-0.766,0.388
											c-0.017-0.033,0.274-0.182,0.665-0.517c0.194-0.167,0.411-0.384,0.615-0.653c0.204-0.232,0.386-0.675,0.09-0.775
											c-0.299-0.074-0.654,0.182-0.874,0.397c-0.229,0.234-0.377,0.501-0.459,0.738
											C231.031,341.604,231.097,341.936,231.056,341.939z"/>
									</g>
								</g>
							</g>
						</g>
					</g>
					<g>
						<g>
							<g>
								<g>
									<g>
										<path style="fill:#263238;" d="M251.664,343.676c-0.01,0.042-0.533-0.131-1.4-0.156c-0.859-0.031-2.085,0.143-3.226,0.805
											c-1.141,0.665-1.898,1.644-2.296,2.406c-0.407,0.767-0.515,1.306-0.557,1.294c-0.014-0.003-0.001-0.139,0.056-0.381
											c0.055-0.241,0.166-0.585,0.356-0.987c0.371-0.801,1.136-1.839,2.326-2.532c1.19-0.691,2.471-0.843,3.35-0.769
											c0.444,0.034,0.797,0.108,1.034,0.179C251.543,343.606,251.668,343.663,251.664,343.676z"/>
									</g>
								</g>
							</g>
						</g>
					</g>
					<g>
						<g>
							<g>
								<g>
									<g>
										<path style="fill:#263238;" d="M250.865,335.536c0.063,0.008-0.119,1.755-0.408,3.899
											c-0.288,2.146-0.573,3.878-0.637,3.869c-0.063-0.008,0.119-1.754,0.407-3.9
											C250.517,337.26,250.802,335.528,250.865,335.536z"/>
									</g>
								</g>
							</g>
						</g>
					</g>
					<g>
						<g>
							<g>
								<g>
									<g>
										<path style="fill:#263238;" d="M242.036,345.94c0,0.06-1.26,0.081-2.794-0.132c-1.536-0.209-2.743-0.569-2.727-0.628
											c0.016-0.065,1.237,0.191,2.758,0.398C240.794,345.79,242.039,345.873,242.036,345.94z"/>
									</g>
								</g>
							</g>
						</g>
					</g>
					<g>
						<g>
							<g>
								<g>
									<g>
										<path style="fill:#263238;" d="M245.735,346.479c0.039,0.053-0.139,0.246-0.307,0.51
											c-0.171,0.262-0.273,0.505-0.338,0.491c-0.061-0.009-0.053-0.312,0.143-0.616
											C245.429,346.56,245.701,346.427,245.735,346.479z"/>
									</g>
								</g>
							</g>
						</g>
					</g>
					<g>
						<g>
							<g>
								<g>
									<g>
										<path style="fill:#263238;" d="M247.384,344.95c0.038,0.051-0.112,0.229-0.337,0.398
											c-0.224,0.169-0.437,0.265-0.476,0.214c-0.038-0.051,0.112-0.229,0.337-0.399
											C247.133,344.995,247.346,344.899,247.384,344.95z"/>
									</g>
								</g>
							</g>
						</g>
					</g>
					<g>
						<g>
							<g>
								<g>
									<g>
										<path style="fill:#263238;" d="M249.495,344.451c-0.023,0.062-0.273,0.023-0.564,0.08
											c-0.293,0.05-0.513,0.175-0.556,0.125c-0.046-0.042,0.153-0.287,0.514-0.352
											C249.251,344.237,249.523,344.396,249.495,344.451z"/>
									</g>
								</g>
							</g>
						</g>
					</g>
					<g>
						<g>
							<g>
								<g>
									<g>
										<path style="fill:#263238;" d="M250.97,344.287c0.014,0.062-0.109,0.143-0.274,0.181
											c-0.165,0.038-0.311,0.018-0.325-0.044c-0.014-0.062,0.108-0.143,0.274-0.181
											C250.81,344.204,250.956,344.224,250.97,344.287z"/>
									</g>
								</g>
							</g>
						</g>
					</g>
				</g>
			</g>
			<g style="opacity:0.3;">
				<g>
					<polygon points="251.713,343.167 232.91,340.076 233.275,337.809 252.188,340.729 					"/>
				</g>
			</g>
		</g>
		<g>
			<path style="fill:#E8505B;" d="M333.007,184.907c-2.812,4.555-0.871,12.011-0.04,17.299c0.831,5.288,2.002,10.774,0.48,15.906
				c-0.82,2.765-2.406,5.343-2.598,8.221c-0.246,3.704,1.839,7.096,3.434,10.448s2.693,7.517,0.651,10.617
				c-0.777,1.18-2.017,2.287-1.857,3.69c0.199,1.735,2.584,2.444,4.143,1.657c1.559-0.787,2.435-2.453,3.213-4.016
				c0.909,1.863,0.991,4.112,0.218,6.036c5.434,2.13,12.052,0.817,16.262-3.226v-40.302L333.007,184.907z"/>
		</g>
		<g>
			<path style="fill:#455A64;" d="M340.439,237.123l-21.297,23.562l11.687,17.761c0,0,26.44-21.189,27.317-23.872
				c2.139-6.543,3.239-23.887-8.909-22.259C345.83,232.772,342.745,234.573,340.439,237.123z"/>
		</g>
		<g>
			<path style="fill:#455A64;" d="M348.354,236.492l21.579-11.082c0,0,19.57,3.773,19.924,25.889
				c0.354,22.116-1.085,57.837-1.085,57.837h-50.633L348.354,236.492z"/>
		</g>
		<g>
			<g>
				<g>
					<g>
						<g>
							<g>
								<path style="fill:#FFBE9D;" d="M350.377,233.683c-0.939-5.236-2.023-10.731-2.023-10.731s-6.946,0.068-9.896-8.491
									c-2.813-8.163-4.844-27.798-4.844-27.798l0,0c9.016-5.672,20.987-5.062,29.283,1.493l0,0l6.924,42.652
									c0.804,4.952-2.813,9.586-8.122,10.406h0C356.338,242.042,351.271,238.672,350.377,233.683z"/>
							</g>
						</g>
						<g>
							<g>
								<g>
									<path style="fill:#263238;" d="M337.002,201.583c0.084,0.6,0.661,1.024,1.29,0.948c0.627-0.076,1.069-0.623,0.985-1.223
										c-0.084-0.6-0.661-1.025-1.288-0.949C337.359,200.435,336.918,200.983,337.002,201.583z"/>
								</g>
							</g>
							<g>
								<g>
									<g>
										<path style="fill:#263238;" d="M336.726,200.428c0.166,0.123,0.91-0.661,2.126-0.872c1.211-0.228,2.213,0.24,2.319,0.068
											c0.053-0.077-0.136-0.318-0.574-0.532c-0.432-0.214-1.132-0.373-1.888-0.237c-0.756,0.138-1.344,0.528-1.66,0.878
											C336.725,200.085,336.646,200.374,336.726,200.428z"/>
									</g>
								</g>
							</g>
						</g>
						<g>
							<g>
								<g>
									<path style="fill:#263238;" d="M349.465,200.037c0.084,0.6,0.661,1.024,1.29,0.948c0.627-0.076,1.069-0.623,0.985-1.223
										c-0.084-0.6-0.661-1.024-1.289-0.949C349.822,198.889,349.381,199.437,349.465,200.037z"/>
								</g>
							</g>
							<g>
								<g>
									<g>
										<path style="fill:#263238;" d="M349.483,198.636c0.166,0.123,0.911-0.661,2.126-0.872c1.211-0.228,2.213,0.24,2.319,0.068
											c0.053-0.077-0.135-0.318-0.575-0.532c-0.432-0.214-1.132-0.373-1.888-0.237c-0.756,0.138-1.344,0.528-1.66,0.878
											C349.484,198.293,349.403,198.582,349.483,198.636z"/>
									</g>
								</g>
							</g>
						</g>
						<g>
							<g>
								<g>
									<path style="fill:#263238;" d="M346.661,208.425c-0.007-0.07-0.785-0.068-2.037-0.008c-0.316,0.023-0.62,0.013-0.71-0.19
										c-0.113-0.211-0.042-0.569,0.045-0.956c0.159-0.802,0.326-1.643,0.502-2.524c0.682-3.589,1.117-6.517,0.972-6.544
										c-0.145-0.026-0.815,2.861-1.497,6.45c-0.161,0.883-0.315,1.726-0.46,2.532c-0.055,0.373-0.187,0.809,0.054,1.246
										c0.124,0.217,0.382,0.345,0.59,0.364c0.21,0.026,0.385-0.002,0.54-0.02C345.903,208.624,346.668,208.494,346.661,208.425z"
										/>
								</g>
							</g>
						</g>
						<g>
							<g>
								<path style="fill:#EB996E;" d="M348.354,222.952c0,0,5.991-0.662,11.238-5.223c0,0-1.795,6.553-10.753,7.281
									L348.354,222.952z"/>
							</g>
						</g>
						<g>
							<g>
								<path style="fill:#EB996E;" d="M347.69,211.263c0.335-0.655,1.045-1.107,1.82-1.159c0.537-0.036,1.115,0.124,1.511,0.497
									c0.396,0.373,0.57,0.971,0.352,1.432c-0.247,0.519-0.913,0.746-1.522,0.683c-0.609-0.063-1.175-0.356-1.716-0.653
									c-0.15-0.082-0.303-0.168-0.41-0.298c-0.107-0.13-0.158-0.315-0.078-0.453"/>
							</g>
						</g>
						<g>
							<g>
								<g>
									<path style="fill:#263238;" d="M350.385,208.635c-0.2,0.023,0.03,1.343-0.934,2.478c-0.962,1.138-2.394,1.237-2.371,1.424
										c-0.004,0.086,0.358,0.201,0.954,0.113c0.586-0.083,1.403-0.419,1.993-1.114c0.588-0.696,0.749-1.514,0.698-2.063
										C350.678,208.913,350.474,208.612,350.385,208.635z"/>
								</g>
							</g>
						</g>
					</g>
					<g>
						<g>
							<path style="fill:#E8505B;" d="M356.941,181.863c-2.352,5.19-9.977,11.505-15.866,13.746c0.535-1.071,3.845-4.083,4.38-5.154
								c-2.375,2.583-5.809,6.086-9.44,6.962c-0.429,0.104-0.899,0.191-1.297,0.041c-0.542-0.204-0.749-0.762-0.901-1.26
								c-0.641-2.103-1.185-5.814-1.244-8.01c-0.059-2.196,0.521-4.501,2.102-6.277c2.007-2.256,5.284-3.336,8.436-4.007
								c2.644-0.563,5.411-0.921,8.019-0.419c2.608,0.502,5.04,2.005,5.824,4.216"/>
						</g>
					</g>
					<g>
						<g>
							<path style="fill:#E8505B;" d="M370.982,201.41c0.015-2.357-0.038-4.582-0.227-6.038
								c-0.594-4.583-2.827-22.459-21.849-18.127l6.083,5.436c0,0-1.181,10.725,6.713,16.483c0,0-0.034,10.703,5.434,14.566
								C367.137,213.73,370.95,206.471,370.982,201.41"/>
						</g>
					</g>
					<g>
						<g>
							<path style="fill:#FFBE9D;" d="M361.374,198.438c0.909-0.348,1.91-0.498,2.866-0.318c0.957,0.18,1.864,0.708,2.406,1.517
								c0.543,0.811,0.687,1.848,0.52,2.81c-0.167,0.962-0.621,1.855-1.187,2.651c-0.406,0.571-0.887,1.113-1.51,1.436
								c-0.622,0.323-1.409,0.395-2.015,0.041"/>
						</g>
					</g>
					<g>
						<g>
							<g>
								<path style="fill:#EB996E;" d="M362.9,204.054c-0.102,0.054,0.408,0.551,1.228,0.168c0.395-0.182,0.735-0.618,0.9-1.116
									c0.165-0.506,0.236-1.041,0.194-1.645c-0.044-0.598-0.288-1.199-0.69-1.587c-0.389-0.399-0.941-0.578-1.366-0.513
									c-0.889,0.136-1.055,0.798-0.952,0.798c0.083,0.059,0.371-0.318,0.976-0.28c0.573,0.004,1.254,0.673,1.302,1.646
									c0.065,0.987-0.151,1.94-0.627,2.252C363.376,204.144,362.945,203.966,362.9,204.054z"/>
							</g>
						</g>
					</g>
				</g>
			</g>
		</g>
		<g>
			<g>
				<path style="fill:#263238;" d="M386.084,309.136h-18.852l2.701-53.384l-24.908,0.83c0,0-4.237,37.016-4.664,41.796
					c-26.804-24.475-45.284-39.925-58.049-49.126c-17.039-12.282-26.179-2.794-29.73,1.634c-9.384,11.7-25.494,86.325-25.494,86.325
					l29.214,4.636l15.282-64.512c0,0,33.292,40.69,60.213,64.289c9.533,8.357,27.374,7.234,34.167,4.559
					C365.964,346.182,386.739,334.907,386.084,309.136z"/>
			</g>
			<g>
				<g>
					<path style="fill:#455A64;" d="M357.795,315.023c0.109,0.025-0.43,1.319-0.331,3.483c0.071,2.116,0.995,5.194,3.486,7.355
						c2.513,2.137,5.695,2.586,7.798,2.337c2.155-0.229,3.353-0.957,3.393-0.853c0.014,0.025-0.267,0.222-0.827,0.488
						c-0.558,0.268-1.418,0.564-2.521,0.73c-1.101,0.169-2.454,0.163-3.899-0.171c-1.441-0.329-2.968-1.023-4.283-2.137
						c-1.298-1.132-2.214-2.536-2.757-3.911c-0.548-1.378-0.758-2.715-0.757-3.828c-0.002-1.116,0.161-2.01,0.342-2.602
						C357.616,315.321,357.768,315.013,357.795,315.023z"/>
				</g>
			</g>
			<g>
				<g>
					<path style="fill:#455A64;" d="M257.407,336.153c-0.022,0.142-6.529-0.746-14.531-1.982
						c-8.005-1.237-14.475-2.355-14.453-2.497c0.022-0.142,6.527,0.745,14.532,1.983
						C250.958,334.893,257.428,336.011,257.407,336.153z"/>
				</g>
			</g>
			<g>
				<g>
					<g>
						<path style="fill:#455A64;" d="M244.086,332.481c0.14,0.034-0.009,1.15-0.332,2.493c-0.324,1.343-0.699,2.404-0.839,2.371
							c-0.14-0.033,0.009-1.149,0.333-2.493C243.571,333.508,243.947,332.447,244.086,332.481z"/>
					</g>
				</g>
				<g>
					<g>
						<path style="fill:#455A64;" d="M246.542,322.784c0.139,0.036-0.027,1.15-0.371,2.486c-0.344,1.337-0.736,2.392-0.876,2.357
							c-0.139-0.035,0.027-1.148,0.371-2.487C246.01,323.803,246.403,322.748,246.542,322.784z"/>
					</g>
				</g>
				<g>
					<g>
						<path style="fill:#455A64;" d="M249.16,313.133c0.139,0.039-0.047,1.149-0.414,2.479c-0.367,1.33-0.777,2.378-0.916,2.341
							c-0.139-0.038,0.047-1.147,0.414-2.479C248.611,314.142,249.021,313.094,249.16,313.133z"/>
					</g>
				</g>
				<g>
					<g>
						<path style="fill:#455A64;" d="M251.948,303.535c0.138,0.041-0.067,1.147-0.458,2.47c-0.391,1.323-0.819,2.362-0.958,2.322
							c-0.138-0.04,0.067-1.146,0.458-2.47C251.381,304.533,251.81,303.494,251.948,303.535z"/>
					</g>
				</g>
				<g>
					<g>
						<path style="fill:#455A64;" d="M254.909,293.984c0.137,0.044-0.088,1.146-0.502,2.462c-0.415,1.316-0.862,2.349-0.999,2.306
							c-0.137-0.042,0.088-1.145,0.503-2.463C254.325,294.973,254.772,293.94,254.909,293.984z"/>
					</g>
				</g>
				<g>
					<g>
						<path style="fill:#455A64;" d="M258.033,284.485c0.136,0.046-0.107,1.145-0.543,2.454c-0.436,1.309-0.901,2.334-1.038,2.289
							c-0.137-0.045,0.107-1.143,0.544-2.454C257.432,285.464,257.896,284.439,258.033,284.485z"/>
					</g>
				</g>
				<g>
					<g>
						<path style="fill:#455A64;" d="M261.299,275.038c0.136,0.048-0.124,1.142-0.579,2.444c-0.455,1.302-0.935,2.319-1.071,2.272
							c-0.136-0.047,0.123-1.141,0.579-2.444C260.685,276.007,261.164,274.99,261.299,275.038z"/>
					</g>
				</g>
				<g>
					<g>
						<path style="fill:#455A64;" d="M264.688,265.632c0.135,0.05-0.138,1.141-0.609,2.438c-0.472,1.297-0.964,2.309-1.099,2.261
							c-0.135-0.049,0.137-1.14,0.609-2.438C264.061,266.594,264.553,265.582,264.688,265.632z"/>
					</g>
				</g>
				<g>
					<g>
						<path style="fill:#455A64;" d="M269.861,265.11c-0.107,0.097-0.944-0.655-1.87-1.679c-0.926-1.024-1.591-1.932-1.484-2.029
							c0.107-0.096,0.944,0.655,1.87,1.679C269.303,264.105,269.968,265.014,269.861,265.11z"/>
					</g>
				</g>
				<g>
					<g>
						<path style="fill:#455A64;" d="M276.611,272.488c-0.106,0.097-0.949-0.648-1.883-1.665c-0.934-1.017-1.605-1.921-1.499-2.018
							c0.106-0.097,0.949,0.648,1.883,1.665C276.046,271.487,276.717,272.391,276.611,272.488z"/>
					</g>
				</g>
				<g>
					<g>
						<path style="fill:#455A64;" d="M283.408,279.823c-0.105,0.098-0.953-0.643-1.892-1.654c-0.94-1.012-1.616-1.911-1.511-2.009
							c0.105-0.098,0.953,0.643,1.893,1.654C282.836,278.826,283.513,279.725,283.408,279.823z"/>
					</g>
				</g>
				<g>
					<g>
						<path style="fill:#455A64;" d="M290.24,287.125c-0.105,0.098-0.956-0.638-1.9-1.645c-0.945-1.007-1.625-1.903-1.52-2.002
							c0.105-0.098,0.955,0.638,1.9,1.646C289.664,286.13,290.345,287.027,290.24,287.125z"/>
					</g>
				</g>
				<g>
					<g>
						<path style="fill:#455A64;" d="M297.099,294.402c-0.105,0.099-0.958-0.635-1.905-1.639c-0.948-1.004-1.631-1.898-1.527-1.997
							c0.104-0.099,0.957,0.635,1.905,1.639C296.52,293.409,297.203,294.303,297.099,294.402z"/>
					</g>
				</g>
				<g>
					<g>
						<path style="fill:#455A64;" d="M303.974,301.664c-0.104,0.099-0.959-0.633-1.909-1.635c-0.95-1.002-1.635-1.895-1.531-1.994
							c0.104-0.099,0.959,0.633,1.909,1.636C303.393,300.672,304.078,301.565,303.974,301.664z"/>
					</g>
				</g>
				<g>
					<g>
						<path style="fill:#455A64;" d="M310.857,308.918c-0.104,0.099-0.959-0.633-1.91-1.634c-0.951-1.002-1.636-1.894-1.532-1.993
							c0.104-0.099,0.959,0.633,1.91,1.634C310.275,307.927,310.961,308.819,310.857,308.918z"/>
					</g>
				</g>
				<g>
					<g>
						<path style="fill:#455A64;" d="M317.736,316.175c-0.104,0.099-0.959-0.633-1.909-1.636c-0.95-1.002-1.635-1.895-1.531-1.994
							c0.104-0.099,0.959,0.633,1.909,1.636C317.155,315.184,317.841,316.077,317.736,316.175z"/>
					</g>
				</g>
				<g>
					<g>
						<path style="fill:#455A64;" d="M324.604,323.444c-0.105,0.099-0.958-0.635-1.905-1.639c-0.948-1.004-1.631-1.898-1.526-1.997
							c0.104-0.099,0.957,0.635,1.905,1.64C324.025,322.451,324.709,323.345,324.604,323.444z"/>
					</g>
				</g>
				<g>
					<g>
						<path style="fill:#455A64;" d="M331.755,330.408c-0.082,0.115-1.068-0.457-2.106-1.391c-1.04-0.93-1.724-1.839-1.62-1.934
							c0.107-0.1,0.948,0.635,1.968,1.546C331.013,329.543,331.841,330.289,331.755,330.408z"/>
					</g>
				</g>
				<g>
					<g>
						<path style="fill:#455A64;" d="M340.798,334.458c-0.02,0.138-1.166,0.077-2.505-0.348c-1.34-0.419-2.316-1.02-2.255-1.145
							c0.063-0.134,1.112,0.242,2.411,0.648C339.747,334.026,340.822,334.313,340.798,334.458z"/>
					</g>
				</g>
				<g>
					<g>
						<path style="fill:#455A64;" d="M350.628,333.542c0.059,0.125-0.936,0.711-2.314,1.04c-0.686,0.169-1.328,0.217-1.785,0.214
							c-0.46,0.004-0.744-0.031-0.75-0.102c-0.015-0.173,1.101-0.311,2.414-0.618C349.51,333.762,350.568,333.405,350.628,333.542z"
							/>
					</g>
				</g>
				<g>
					<g>
						<path style="fill:#455A64;" d="M358.741,327.789c0.102,0.099-0.602,0.992-1.659,1.903c-1.055,0.914-2.047,1.475-2.128,1.358
							c-0.084-0.119,0.754-0.855,1.788-1.753C357.779,328.405,358.636,327.688,358.741,327.789z"/>
					</g>
				</g>
			</g>
		</g>
		<g>
			<g>
				<g>
					<g>
						<polygon style="fill:#263238;" points="309.999,248.265 284.82,234.448 283.92,236.398 308.977,250.441 						"/>
					</g>
				</g>
				<g>
					<path style="fill:#FFBE9D;" d="M303.938,247.617c0,0-5.841-7.6-6.689-9.258c-0.848-1.658-2.291-4.549-2.737-4.571
						c-0.446-0.021-2.04,0.372,0.519,5.322c2.558,4.949-2.323,2.214-2.323,2.214l-4.826-2.705c0,0-2.506,10.725-0.225,13.714
						c2.462,3.226,7.149,7.064,7.149,7.064L303.938,247.617z"/>
				</g>
			</g>
			<g>
				<path style="fill:#FFBE9D;" d="M293.236,257.397c0,0,30.316,39.174,41.174,41.777c10.857,2.603,39.408-27.686,39.408-27.686
					l-12.382-15.434c0,0-23.233,21.365-24.785,20.551c-1.552-0.813-32.713-28.988-32.713-28.988L293.236,257.397z"/>
			</g>
		</g>
		<g>
			<path style="fill:#455A64;" d="M370.749,243.628l-24.164,24.686l15.434,20.232c0,0,24.497-19.211,24.71-27.076
				c0.181-6.685-1.817-19.358-9.622-20.261C374.746,240.936,372.412,241.93,370.749,243.628z"/>
		</g>
		<g>
			<g>
				<path style="fill:#455A64;" d="M262.957,311.614c0.015,0.003-0.015,0.206-0.085,0.592c-0.083,0.428-0.193,0.989-0.33,1.693
					c-0.317,1.522-0.761,3.656-1.314,6.313c-1.171,5.425-2.799,12.974-4.68,21.689l-0.05,0.231l-0.234-0.037
					c-3.532-0.557-7.335-1.157-11.264-1.777c-6.45-1.033-12.556-2.01-17.947-2.874l-0.252-0.04l0.06-0.243
					c1.696-6.931,3.13-12.79,4.153-16.971c0.513-2.026,0.922-3.643,1.216-4.804c0.14-0.522,0.253-0.941,0.34-1.268
					c0.081-0.286,0.13-0.433,0.142-0.431c0.013,0.003-0.011,0.155-0.068,0.447c-0.069,0.331-0.158,0.755-0.269,1.284
					c-0.263,1.168-0.629,2.795-1.087,4.833c-0.978,4.191-2.348,10.065-3.969,17.012l-0.192-0.283
					c5.393,0.848,11.502,1.809,17.955,2.823c3.928,0.627,7.729,1.233,11.261,1.797l-0.284,0.194
					c1.953-8.699,3.644-16.234,4.86-21.649c0.613-2.643,1.106-4.767,1.458-6.281c0.171-0.697,0.307-1.252,0.411-1.675
					C262.884,311.807,262.942,311.611,262.957,311.614z"/>
			</g>
		</g>
		<g>
			<g>
				<path style="fill:#455A64;" d="M337.998,345.135c-0.002,0.018-0.15,0.012-0.432-0.017c-0.279-0.04-0.693-0.117-1.199-0.307
					c-1.021-0.355-2.369-1.205-3.764-2.515c-2.815-2.684-6.587-6.281-10.756-10.256c-4.184-4.023-7.951-7.685-10.659-10.354
					c-1.297-1.294-2.371-2.365-3.188-3.18c-0.744-0.759-1.144-1.19-1.118-1.216c0.026-0.025,0.474,0.358,1.262,1.073
					c0.846,0.784,1.96,1.816,3.305,3.062c2.774,2.602,6.581,6.222,10.765,10.243c4.176,4.024,7.96,7.672,10.643,10.359
					c1.346,1.327,2.616,2.191,3.586,2.595C337.407,345.046,338.009,345.079,337.998,345.135z"/>
			</g>
		</g>
		<g>
			<g>
				<path style="fill:none;stroke:#839198;stroke-width:0.05;stroke-miterlimit:10;" d="M333.239,298.655"/>
			</g>
		</g>
		<g>
			<g>
				<path style="fill:#455A64;" d="M352.133,313.177c-0.102,0.102-3.365-2.997-7.288-6.92c-3.924-3.924-7.023-7.187-6.921-7.289
					c0.102-0.102,3.365,2.996,7.289,6.921C349.136,309.811,352.235,313.075,352.133,313.177z"/>
			</g>
		</g>
		<g>
			<g>
				<path style="fill:none;stroke:#4E585D;stroke-width:0.05;stroke-miterlimit:10;" d="M344.682,260.591"/>
			</g>
		</g>
		<g>
			<path style="fill:#263238;" d="M346.585,232.96l-1.56,23.622l3.838,0.424l1.246-24.8
				C350.109,232.206,348.516,232.107,346.585,232.96z"/>
		</g>
		<g>
			<g>
				<path style="fill:#FAFAFA;" d="M346.395,240.404c0,0.144-1.876,0.26-4.191,0.26c-2.315,0-4.191-0.117-4.191-0.26
					s1.876-0.26,4.191-0.26C344.518,240.144,346.395,240.26,346.395,240.404z"/>
			</g>
		</g>
		<g>
			<g>
				<path style="fill:#FAFAFA;" d="M389.667,248.201c0,0.144-13.31,0.26-29.724,0.26c-16.42,0-29.727-0.117-29.727-0.26
					s13.307-0.26,29.727-0.26C376.357,247.94,389.667,248.057,389.667,248.201z"/>
			</g>
		</g>
		<g>
			<g>
				<path style="fill:#FAFAFA;" d="M344.056,258.336c0,0.144-5.106,0.26-11.402,0.26c-6.299,0-11.403-0.117-11.403-0.26
					s5.104-0.26,11.403-0.26C338.95,258.076,344.056,258.193,344.056,258.336z"/>
			</g>
		</g>
		<g>
			<g>
				<path style="fill:#FAFAFA;" d="M389.667,257.557c0,0.144-6.982,0.26-15.593,0.26c-8.614,0-15.594-0.117-15.594-0.26
					s6.98-0.26,15.594-0.26C382.685,257.296,389.667,257.413,389.667,257.557z"/>
			</g>
		</g>
		<g>
			<g>
				<path style="fill:#FAFAFA;" d="M389.667,267.108c0,0.144-9.033,0.26-20.173,0.26c-11.144,0-20.175-0.117-20.175-0.26
					s9.031-0.26,20.175-0.26C380.634,266.847,389.667,266.964,389.667,267.108z"/>
			</g>
		</g>
		<g>
			<g>
				<path style="fill:#FAFAFA;" d="M389.913,278.991c0,0.144-7.823,0.26-17.47,0.26c-9.651,0-17.472-0.117-17.472-0.26
					s7.821-0.26,17.472-0.26C382.091,278.731,389.913,278.848,389.913,278.991z"/>
			</g>
		</g>
		<g>
			<g>
				<path style="fill:#FAFAFA;" d="M389.277,287.769c0,0.144-4.757,0.26-10.623,0.26c-5.868,0-10.624-0.117-10.624-0.26
					c0-0.144,4.756-0.26,10.624-0.26C384.521,287.509,389.277,287.625,389.277,287.769z"/>
			</g>
		</g>
		<g>
			<g>
				<path style="fill:#FAFAFA;" d="M389.277,296.521c0,0.144-4.757,0.26-10.623,0.26c-5.868,0-10.624-0.117-10.624-0.26
					c0-0.144,4.756-0.26,10.624-0.26C384.521,296.26,389.277,296.377,389.277,296.521z"/>
			</g>
		</g>
		<g>
			<g>
				<path style="fill:#263238;" d="M385.473,265.129c0.012,0.008-0.102,0.194-0.335,0.545c-0.26,0.381-0.606,0.889-1.043,1.529
					c-0.974,1.286-2.414,3.154-4.422,5.326c-3.98,4.373-10.008,10.134-17.499,16.213l-0.202,0.164l-0.155-0.212
					c-2.43-3.319-5.059-6.91-7.781-10.627c-2.557-3.504-5.032-6.896-7.332-10.048l-0.127-0.174l0.152-0.152
					c6.927-6.92,12.926-12.913,17.229-17.212c2.126-2.096,3.831-3.777,5.04-4.969c0.571-0.55,1.024-0.987,1.363-1.314
					c0.314-0.295,0.482-0.444,0.492-0.433c0.011,0.01-0.137,0.18-0.43,0.495c-0.325,0.342-0.758,0.798-1.305,1.372
					c-1.184,1.217-2.854,2.933-4.936,5.073c-4.271,4.332-10.224,10.37-17.099,17.343l0.025-0.325
					c2.305,3.148,4.785,6.536,7.348,10.036c2.716,3.722,5.338,7.317,7.763,10.64l-0.356-0.048
					c7.486-6.033,13.549-11.737,17.578-16.035c2.034-2.135,3.505-3.964,4.518-5.214c0.463-0.618,0.83-1.108,1.106-1.476
					C385.322,265.291,385.461,265.121,385.473,265.129z"/>
			</g>
		</g>
		<g>
			<path style="fill:#E8505B;" d="M354.689,185.404c-1.443,3.636,0.022,10.69,3.267,13.882c2.788,2.744,3.915,6.948,4.294,10.841
				c0.448,4.605-1.712,9.317-0.526,13.789c0.797,3.003,2.998,5.431,4.159,8.313c1.962,4.867,0.517,10.902-3.436,14.353
				c2.059,1.683,4.991,2.231,7.52,1.406c2.528-0.825,4.573-2.997,5.244-5.57c0.085,1.827,0.17,3.655,0.255,5.482
				c3.85-2.3,6.744-6.149,7.886-10.486c1.142-4.337,0.518-9.112-1.701-13.009c-1.808-3.177-4.698-6.016-4.883-9.666
				c-0.121-2.392,0.981-4.707,0.95-7.101c-0.05-3.823-2.882-6.952-4.504-10.414c-1.442-3.079-1.94-6.513-3.164-9.685
				c-1.223-3.172-3.488-6.282-6.802-7.041"/>
		</g>
	</g>
</g>
<g id="Plant">
	<g>
		<path style="fill:#E8505B;" d="M168.021,422.057c3.102-1.838,6.857-2.274,10.443-1.896c1.926,0.203,3.949,0.657,5.332,2.014
			c1.382,1.357,1.777,3.865,0.358,5.184c-0.844,0.785-2.076,0.969-3.227,1.024c-2.782,0.131-5.896-0.177-8.019,1.626
			c-1.211,1.029-1.962,2.665-3.449,3.223c-1.455,0.546-3.179-0.23-4.044-1.522c-0.865-1.292-0.989-2.962-0.711-4.492
			C164.703,427.219,164.896,423.909,168.021,422.057z"/>
		<path style="opacity:0.2;fill:#FFFFFF;" d="M168.021,422.057c3.102-1.838,6.857-2.274,10.443-1.896
			c1.926,0.203,3.949,0.657,5.332,2.014c1.382,1.357,1.777,3.865,0.358,5.184c-0.844,0.785-2.076,0.969-3.227,1.024
			c-2.782,0.131-5.896-0.177-8.019,1.626c-1.211,1.029-1.962,2.665-3.449,3.223c-1.455,0.546-3.179-0.23-4.044-1.522
			c-0.865-1.292-0.989-2.962-0.711-4.492C164.703,427.219,164.896,423.909,168.021,422.057z"/>
		<path style="fill:#E8505B;" d="M159.86,408.339c2.12,2.679,5.868,1.531,7.531-0.278c1.663-1.809,2.263-4.324,2.802-6.721
			c1.233-5.476,2.464-11.218,0.99-16.634c-0.441-1.619-1.15-3.219-2.374-4.367c-1.224-1.149-3.038-1.768-4.632-1.245
			c-1.887,0.619-2.968,2.567-3.725,4.403c-2.223,5.399-3.221,11.298-2.899,17.127C157.704,403.346,158.193,406.182,159.86,408.339"
			/>
		<path style="opacity:0.3;" d="M159.86,408.339c2.12,2.679,5.868,1.531,7.531-0.278c1.663-1.809,2.263-4.324,2.802-6.721
			c1.233-5.476,2.464-11.218,0.99-16.634c-0.441-1.619-1.15-3.219-2.374-4.367c-1.224-1.149-3.038-1.768-4.632-1.245
			c-1.887,0.619-2.968,2.567-3.725,4.403c-2.223,5.399-3.221,11.298-2.899,17.127C157.704,403.346,158.193,406.182,159.86,408.339"
			/>
		<path style="fill:#E8505B;" d="M154.724,412.663c1.976-2.646,2.163-6.346,1.032-9.448c-1.131-3.103-3.424-5.664-6.013-7.712
			c-3.036-2.402-6.545-4.204-10.266-5.272c-1.464-0.42-3.001-0.729-4.507-0.496s-2.985,1.097-3.612,2.486
			c-0.927,2.053,0.216,4.41,1.415,6.317c2.112,3.36,4.488,6.553,7.1,9.541c2.101,2.404,4.485,4.756,7.529,5.719
			c3.044,0.963,6.128,0.648,7.585-1.509"/>
		<g>
			<path style="fill:#263238;" d="M162.203,450.492c0.037,0,0.07-0.456,0.102-1.28c0.036-0.929,0.08-2.096,0.134-3.484
				c0.076-1.467,0.187-3.215,0.481-5.128c0.293-1.908,0.805-3.988,1.495-6.107c0.719-2.109,1.634-4.04,2.744-5.607
				c1.101-1.573,2.42-2.743,3.683-3.447c1.258-0.716,2.405-1.044,3.201-1.207c0.805-0.131,1.255-0.221,1.253-0.257
				c-0.002-0.036-0.457-0.015-1.288,0.056c-0.821,0.103-2.019,0.383-3.348,1.085c-1.334,0.688-2.736,1.879-3.894,3.487
				c-1.168,1.602-2.117,3.577-2.85,5.723c-0.702,2.156-1.203,4.256-1.476,6.204c-0.272,1.945-0.344,3.709-0.373,5.186
				c-0.024,1.478,0.005,2.671,0.033,3.496C162.131,450.037,162.168,450.492,162.203,450.492z"/>
		</g>
		<g>
			<path style="fill:#263238;" d="M162.286,447.813c0.018-0.002,0.017-0.206-0.001-0.591c-0.027-0.443-0.061-1-0.103-1.684
				c-0.09-1.462-0.214-3.577-0.289-6.194c-0.178-5.232-0.058-10.882,0.345-18.861c0.385-7.503,0.98-16.243,1.814-21.952
				c0.175-1.298,0.359-2.467,0.536-3.491c0.166-1.027,0.308-1.911,0.453-2.629c0.121-0.675,0.219-1.224,0.297-1.66
				c0.062-0.381,0.087-0.583,0.069-0.587c-0.018-0.004-0.077,0.19-0.172,0.564c-0.104,0.431-0.234,0.975-0.394,1.643
				c-0.176,0.713-0.347,1.594-0.542,2.618c-0.205,1.022-0.415,2.19-0.614,3.487c-0.853,5.179-1.654,12.394-2.065,20.392
				c-0.404,7.995-0.371,15.252-0.098,20.492c0.123,2.621,0.303,4.738,0.456,6.197c0.082,0.682,0.149,1.237,0.202,1.678
				C162.232,447.615,162.268,447.815,162.286,447.813z"/>
		</g>
		<g>
			<path style="fill:#263238;" d="M161.501,433.859c0.036-0.003-0.007-0.628-0.116-1.759c-0.131-1.127-0.383-2.752-0.819-4.736
				c-0.455-1.978-1.066-4.322-1.959-6.855c-0.39-1.159-1.311-3.938-3.387-8.049c-2.745-5.574-6.293-10.054-9.311-12.781
				c-0.713-0.729-1.489-1.239-2.116-1.747c-0.323-0.242-0.611-0.486-0.9-0.675c-0.29-0.176-0.56-0.339-0.81-0.491
				c-0.975-0.586-1.52-0.893-1.537-0.862c-0.077,0.119,2.181,1.276,5.111,4.047c2.917,2.765,6.372,7.219,9.095,12.746
				c1.513,2.996,2.604,5.683,3.4,7.972c0.912,2.507,1.555,4.825,2.054,6.78c0.48,1.961,0.785,3.566,0.978,4.679
				C161.353,433.245,161.465,433.863,161.501,433.859z"/>
		</g>
	</g>
</g>
<g id="Speech_Bubbles">
	<g>
		<g>
			<g>
				<path style="fill:#263238;" d="M303.008,132.584c0.004,0.027-0.314-0.018-0.863,0.184c-0.524,0.189-1.351,0.736-1.608,1.851
					c-0.11,0.542-0.036,1.195-0.05,1.895c0.004,0.705,0.009,1.474,0.014,2.304c0.008,1.667,0.017,3.581,0.028,5.727
					c0.014,4.304,0.03,9.537,0.05,15.567c0.004,1.509,0.007,3.067,0.011,4.673c0.001,0.402,0.002,0.806,0.003,1.214
					c0,0.418-0.011,0.799,0.106,1.167c0.22,0.737,0.821,1.359,1.575,1.596c0.376,0.128,0.77,0.115,1.212,0.113
					c0.431-0.001,0.864-0.002,1.3-0.003c0.872-0.002,1.756-0.003,2.65-0.005c1.789-0.003,3.621-0.006,5.495-0.009l0.211,0l0,0.211
					c0.005,3.516,0.01,7.257,0.016,11.134l-0.386-0.16c3.547-3.554,7.265-7.281,11.122-11.145l0.071-0.071h0.101
					c13.299-0.005,27.895-0.011,43.16-0.018c2.061,0,4.111,0,6.146,0c0.499-0.007,1.04,0.015,1.501-0.014
					c0.469-0.037,0.926-0.184,1.33-0.419c0.81-0.467,1.411-1.291,1.573-2.209c0.087-0.444,0.05-0.946,0.059-1.451l0-1.497
					c0-0.996,0.001-1.989,0.001-2.977c0.001-1.977,0.001-3.938,0.002-5.882c0.002-3.887,0.004-7.706,0.007-11.446
					c0.001-1.87,0.003-3.72,0.004-5.549l-0.004-1.361c-0.009-0.423-0.102-0.842-0.272-1.227c-0.336-0.772-0.983-1.397-1.753-1.71
					c-0.385-0.157-0.798-0.242-1.213-0.243l-1.325-0.002c-0.882-0.001-1.758-0.002-2.628-0.003c-1.74-0.002-3.457-0.004-5.149-0.006
					c-3.384-0.005-6.669-0.009-9.846-0.013c-6.352-0.011-12.27-0.022-17.674-0.032c-10.791-0.035-19.53-0.063-25.591-0.083
					c-3.006-0.021-5.348-0.038-6.958-0.049c-0.782-0.011-1.383-0.02-1.809-0.026C303.217,132.602,303.008,132.584,303.008,132.584
					s0.209-0.018,0.616-0.027c0.427-0.006,1.028-0.015,1.809-0.026c1.61-0.011,3.951-0.028,6.958-0.049
					c6.061-0.02,14.8-0.048,25.591-0.083c5.404-0.01,11.322-0.02,17.674-0.032c3.177-0.004,6.462-0.009,9.846-0.013
					c1.692-0.002,3.409-0.004,5.149-0.006c0.87-0.001,1.746-0.002,2.628-0.003l1.328,0c0.474,0,0.949,0.096,1.391,0.276
					c0.886,0.358,1.627,1.071,2.015,1.958c0.196,0.442,0.303,0.925,0.315,1.41l0.006,1.374c0.001,1.829,0.003,3.679,0.004,5.549
					c0.002,3.74,0.004,7.558,0.006,11.446c0.001,1.944,0.002,3.905,0.002,5.882c0,0.988,0.001,1.981,0.001,2.977l0,1.497
					c-0.01,0.493,0.034,1.001-0.067,1.547c-0.189,1.066-0.883,2.022-1.823,2.563c-0.469,0.273-1.001,0.443-1.544,0.487
					c-0.552,0.033-1.028,0.009-1.547,0.017c-2.036,0-4.085,0-6.146,0c-15.265-0.006-29.861-0.012-43.16-0.018l0.171-0.071
					c-3.865,3.857-7.591,7.576-11.145,11.122l-0.387,0.387l0.001-0.547c0.005-3.876,0.011-7.617,0.016-11.134l0.211,0.211
					c-1.874-0.003-3.706-0.006-5.495-0.009c-0.894-0.002-1.778-0.003-2.65-0.005c-0.436-0.001-0.87-0.002-1.3-0.003
					c-0.415,0.001-0.893,0.015-1.329-0.136c-0.874-0.279-1.564-1.001-1.815-1.854c-0.134-0.427-0.118-0.88-0.116-1.274
					c0.001-0.408,0.002-0.812,0.003-1.214c0.004-1.606,0.008-3.164,0.011-4.673c0.019-6.029,0.036-11.263,0.05-15.567
					c0.01-2.146,0.02-4.061,0.028-5.727c0.005-0.831,0.01-1.599,0.015-2.304c0.026-0.703-0.042-1.342,0.083-1.923
					c0.292-1.166,1.167-1.71,1.71-1.883C302.694,132.522,303.008,132.584,303.008,132.584z"/>
			</g>
		</g>
		<g>
			<g>
				<path style="fill:#455A64;" d="M329.577,150.762c0,1.608-1.303,2.911-2.911,2.911c-1.608,0-2.911-1.303-2.911-2.911
					c0-1.608,1.303-2.911,2.911-2.911C328.274,147.85,329.577,149.154,329.577,150.762z"/>
			</g>
			<g>
				<path style="fill:#455A64;" d="M341.091,150.762c0,1.608-1.303,2.911-2.911,2.911s-2.911-1.303-2.911-2.911
					c0-1.608,1.303-2.911,2.911-2.911S341.091,149.154,341.091,150.762z"/>
			</g>
			<g>
				<path style="fill:#455A64;" d="M352.604,150.762c0,1.608-1.303,2.911-2.911,2.911c-1.608,0-2.911-1.303-2.911-2.911
					c0-1.608,1.303-2.911,2.911-2.911C351.301,147.85,352.604,149.154,352.604,150.762z"/>
			</g>
		</g>
	</g>
	<g>
		<path style="fill:#455A64;" d="M298.406,182.912h-89.765c-1.908,0-3.454,1.546-3.454,3.454V215.4c0,1.908,1.546,3.454,3.454,3.454
			h69.023l10.968,10.968v-10.968h9.774c1.414,0,2.561-1.147,2.561-2.561v-30.82C300.967,184.058,299.82,182.912,298.406,182.912z"/>
		<g>
			<g>
				<path style="fill:#FAFAFA;" d="M225.831,200.4c0,1.836-1.488,3.324-3.324,3.324c-1.836,0-3.324-1.488-3.324-3.324
					c0-1.836,1.488-3.324,3.324-3.324C224.343,197.076,225.831,198.564,225.831,200.4z"/>
			</g>
			<g>
				<g>
					<path style="fill:#FAFAFA;" d="M286.97,197.076c0,0.144-12.131,0.26-27.092,0.26c-14.966,0-27.094-0.117-27.094-0.26
						c0-0.144,12.128-0.26,27.094-0.26C274.839,196.815,286.97,196.932,286.97,197.076z"/>
				</g>
			</g>
			<g>
				<g>
					<path style="fill:#FAFAFA;" d="M286.97,201.826c0,0.144-12.131,0.26-27.092,0.26c-14.966,0-27.094-0.117-27.094-0.26
						c0-0.144,12.128-0.26,27.094-0.26C274.839,201.566,286.97,201.683,286.97,201.826z"/>
				</g>
			</g>
			<g>
				<g>
					<path style="fill:#FAFAFA;" d="M258.21,207.222c0,0.144-5.692,0.26-12.712,0.26c-7.022,0-12.713-0.117-12.713-0.26
						c0-0.144,5.691-0.26,12.713-0.26C252.517,206.962,258.21,207.079,258.21,207.222z"/>
				</g>
			</g>
		</g>
	</g>
	<g>
		<g>
			<g>
				<path style="fill:#263238;" d="M492.68,229.953c0.004,0.027-0.309-0.017-0.85,0.182c-0.516,0.186-1.331,0.725-1.584,1.823
					c-0.108,0.534-0.035,1.177-0.049,1.867c0.004,0.695,0.009,1.452,0.014,2.27c0.008,1.642,0.017,3.527,0.028,5.642
					c0.014,4.24,0.031,9.396,0.05,15.335c0.004,1.486,0.007,3.021,0.011,4.603c0.001,0.396,0.002,0.794,0.003,1.196
					c0,0.412-0.011,0.787,0.104,1.149c0.216,0.725,0.808,1.337,1.55,1.57c0.37,0.126,0.757,0.113,1.193,0.111
					c0.424-0.001,0.851-0.002,1.281-0.003c0.859-0.001,1.73-0.003,2.611-0.005c1.762-0.003,3.567-0.006,5.413-0.009l0.21,0l0,0.211
					c0.005,3.464,0.01,7.149,0.016,10.968l-0.387-0.16c3.494-3.501,7.157-7.172,10.957-10.98l0.071-0.071l0.101,0
					c13.101-0.005,27.479-0.011,42.517-0.018c2.031,0,4.049,0,6.055,0c0.491-0.006,1.025,0.014,1.479-0.014
					c0.461-0.037,0.911-0.18,1.308-0.412c0.797-0.459,1.388-1.27,1.547-2.173c0.086-0.437,0.05-0.932,0.058-1.429l0-1.475
					c0-0.982,0.001-1.959,0.001-2.933c0.001-1.948,0.002-3.879,0.002-5.794c0.002-3.829,0.004-7.591,0.006-11.275
					c0.001-1.842,0.003-3.665,0.004-5.467l-0.003-1.341c-0.009-0.417-0.101-0.829-0.268-1.208c-0.331-0.76-0.967-1.374-1.725-1.682
					c-0.378-0.155-0.785-0.239-1.193-0.239l-1.306-0.002c-0.869-0.001-1.732-0.002-2.589-0.003
					c-1.714-0.002-3.406-0.004-5.073-0.006c-3.334-0.005-6.57-0.009-9.7-0.013c-6.257-0.011-12.087-0.022-17.411-0.032
					c-10.63-0.035-19.239-0.063-25.21-0.083c-2.961-0.021-5.268-0.038-6.854-0.049c-0.77-0.011-1.362-0.02-1.783-0.026
					C492.886,229.971,492.68,229.953,492.68,229.953s0.206-0.018,0.607-0.027c0.421-0.006,1.013-0.015,1.783-0.026
					c1.586-0.011,3.893-0.028,6.854-0.049c5.971-0.02,14.58-0.048,25.21-0.083c5.324-0.01,11.153-0.02,17.411-0.032
					c3.13-0.004,6.366-0.008,9.7-0.013c1.667-0.002,3.358-0.004,5.073-0.006c0.857-0.001,1.72-0.002,2.589-0.003l1.309,0
					c0.467,0,0.936,0.095,1.372,0.272c0.873,0.353,1.604,1.057,1.987,1.931c0.193,0.436,0.299,0.912,0.311,1.39l0.006,1.354
					c0.001,1.802,0.003,3.625,0.004,5.467c0.002,3.684,0.004,7.446,0.006,11.275c0.001,1.915,0.002,3.846,0.002,5.794
					c0,0.974,0.001,1.951,0.001,2.933l0,1.475c-0.01,0.485,0.034,0.986-0.066,1.525c-0.186,1.051-0.87,1.994-1.798,2.528
					c-0.462,0.269-0.987,0.437-1.522,0.48c-0.544,0.033-1.012,0.009-1.524,0.017c-2.005,0-4.024,0-6.055,0
					c-15.038-0.006-29.416-0.012-42.517-0.018l0.172-0.071c-3.807,3.799-7.478,7.463-10.979,10.956l-0.387,0.387l0.001-0.547
					c0.005-3.819,0.011-7.504,0.016-10.968l0.211,0.211c-1.846-0.003-3.651-0.006-5.413-0.009c-0.881-0.002-1.751-0.003-2.611-0.005
					c-0.43-0.001-0.857-0.002-1.281-0.003c-0.409,0.001-0.881,0.014-1.31-0.134c-0.862-0.275-1.542-0.987-1.79-1.828
					c-0.132-0.422-0.117-0.868-0.115-1.256c0.001-0.402,0.002-0.8,0.003-1.196c0.004-1.582,0.008-3.117,0.011-4.603
					c0.019-5.939,0.036-11.095,0.05-15.335c0.01-2.114,0.02-4,0.028-5.642c0.005-0.818,0.01-1.576,0.015-2.27
					c0.025-0.693-0.042-1.321,0.082-1.895c0.288-1.149,1.15-1.684,1.685-1.856C492.37,229.891,492.68,229.953,492.68,229.953z"/>
			</g>
		</g>
		<g>
			<g>
				<circle style="fill:#455A64;" cx="505.189" cy="245.997" r="3.324"/>
			</g>
			<g>
				<g>
					<path style="fill:#263238;" d="M558.236,242.673c0,0.144-9.575,0.26-21.384,0.26c-11.813,0-21.386-0.117-21.386-0.26
						c0-0.144,9.573-0.26,21.386-0.26C548.661,242.413,558.236,242.529,558.236,242.673z"/>
				</g>
			</g>
			<g>
				<g>
					<path style="fill:#263238;" d="M558.236,247.424c0,0.144-9.575,0.26-21.384,0.26c-11.813,0-21.386-0.117-21.386-0.26
						c0-0.144,9.573-0.26,21.386-0.26C548.661,247.164,558.236,247.28,558.236,247.424z"/>
				</g>
			</g>
			<g>
				<g>
					<path style="fill:#263238;" d="M540.891,252.82c0,0.144-5.692,0.26-12.712,0.26c-7.022,0-12.714-0.117-12.714-0.26
						c0-0.144,5.691-0.26,12.714-0.26C535.199,252.56,540.891,252.676,540.891,252.82z"/>
				</g>
			</g>
		</g>
	</g>
	<g>
		<g>
			<path style="fill:#E8505B;" d="M472.156,174.896h43.817c1.908,0,3.454,1.546,3.454,3.454v29.034c0,1.908-1.546,3.454-3.454,3.454
				h-23.075l-10.968,10.968v-10.968h-9.774c-1.414,0-2.561-1.147-2.561-2.561v-30.82
				C469.594,176.043,470.741,174.896,472.156,174.896z"/>
		</g>
		<g>
			<path style="fill:#FAFAFA;" d="M486.693,193.476c0,1.424-1.154,2.578-2.578,2.578c-1.424,0-2.578-1.154-2.578-2.578
				c0-1.424,1.154-2.578,2.578-2.578C485.539,190.898,486.693,192.052,486.693,193.476z"/>
		</g>
		<g>
			<path style="fill:#FAFAFA;" d="M496.891,193.476c0,1.424-1.154,2.578-2.578,2.578c-1.424,0-2.578-1.154-2.578-2.578
				c0-1.424,1.154-2.578,2.578-2.578C495.737,190.898,496.891,192.052,496.891,193.476z"/>
		</g>
		<g>
			<path style="fill:#FAFAFA;" d="M507.089,193.476c0,1.424-1.154,2.578-2.578,2.578c-1.424,0-2.578-1.154-2.578-2.578
				c0-1.424,1.154-2.578,2.578-2.578C505.934,190.898,507.089,192.052,507.089,193.476z"/>
		</g>
	</g>
</g>
</svg>
