<svg width="114" height="31" viewBox="0 0 114 31" fill="none" xmlns="http://www.w3.org/2000/svg">
<path fill-rule="evenodd" clip-rule="evenodd" d="M110.22 15.1941C110.464 16.0476 111.379 16.1086 111.623 15.0112C111.867 13.67 110.708 12.6336 109.306 12.2068C106.258 11.2924 101.99 14.5235 104.673 18.2423C105.953 19.9494 107.965 20.2542 109.428 21.2906C109.977 21.6564 112.659 23.7292 109.611 26.7774C107.355 29.0941 103.027 27.9967 102.783 25.3752C102.722 24.7046 103.453 24.7656 103.088 23.1805C102.905 22.327 101.076 22.327 100.649 23.973C100.466 25.0704 100.466 27.7528 104.185 29.4599C109.367 31.9594 116.317 26.8384 113.208 22.205C111.196 19.2787 106.989 18.3033 106.258 16.4744C105.282 14.1577 109.611 13.2432 110.22 15.1941M27.918 26.6555C27.3083 24.2169 27.7351 19.2178 28.1009 16.2915C28.7715 10.9875 30.2956 8.06122 30.2956 4.89105C30.2956 3.36693 29.8689 0.257722 26.5768 0.135792C18.4684 -0.108067 15.4812 19.5226 15.1154 22.266C14.9325 21.0467 15.0544 13.7309 14.5057 8.48797C13.5303 0.74544 11.8233 0.257722 10.1772 0.135792C4.14171 -0.290961 3.77592 11.2923 3.83689 22.3879C3.83689 20.1322 4.08075 15.4989 2.00794 13.1823C0.910575 11.963 -0.735474 12.0849 0.361892 13.67L0.788646 14.4625C2.86145 17.5108 2.4347 30.1914 4.56846 30.0695C5.23908 30.0695 6.27548 29.7647 6.15355 26.9603C5.90969 18.4252 6.5803 3.18403 9.44565 3.18403C12.5549 3.18403 11.8842 18.3033 12.7987 24.2169C13.2864 27.2042 16.4566 27.448 17.3711 23.1805C18.6513 17.5108 18.7123 13.8529 21.5167 7.93929C25.2965 0.0138629 28.4057 2.63535 27.0035 8.12218C26.3939 10.9266 24.0772 17.6937 25.1746 25.4971C25.5404 27.7528 27.0035 30.6182 28.1009 30.0085C28.7105 29.7037 28.4057 28.6064 27.918 26.7164M32.6732 14.7064C31.8807 15.316 29.3202 20.7419 30.4175 26.1678C31.5149 30.7401 34.6851 31.8985 38.1601 27.6919C40.1719 31.9594 47.0609 30.0085 50.6579 24.7656C50.9017 27.2651 51.0846 27.6919 51.1456 27.8748C51.4504 29.3989 53.1574 30.0085 53.5842 28.7283C53.95 27.57 55.2912 21.9002 58.5223 18.5472C59.3758 17.6937 62.3021 16.4744 61.5096 19.5836C61.3267 20.3761 59.9855 25.0094 59.9855 27.0822C60.0464 29.155 60.717 30.984 62.1192 30.1305C62.7289 29.7037 62.485 27.9357 62.4241 26.8993C62.0583 22.3879 63.5214 20.1932 64.253 18.3643C64.9236 16.4744 64.4359 14.2187 61.2657 14.7064C57.9127 15.1941 54.5596 19.0958 52.9136 24.034C52.9136 16.1695 57.1201 8.36604 59.8635 1.65991C60.2903 0.86737 58.5223 -1.0835 56.6324 0.928335C53.5467 6.8578 51.5832 13.3064 50.8408 19.9494C50.7188 20.9248 49.2557 24.8265 47 26.5335C44.7443 28.1796 40.9035 28.9721 40.9035 24.8875C40.7816 20.7419 43.0982 17.084 44.8052 16.3524C45.7807 15.9866 46.2074 16.7792 46.6342 17.2669C47.1829 17.8765 49.3166 18.3033 49.2557 16.3524C49.2557 14.3406 47 12.6945 43.8298 14.2187C39.3184 16.4744 37.9772 21.7783 37.6114 23.973C37.1237 26.8993 35.9653 28.1796 35.7215 28.3625C35.4167 28.5454 33.6487 30.3134 33.4048 26.1678C33.2829 23.4853 34.0145 20.6809 34.746 18.7301L35.5386 16.4134C35.6109 16.0546 35.57 15.6822 35.4216 15.3476C35.2733 15.013 35.0247 14.7327 34.7103 14.5454C34.3958 14.3581 34.031 14.273 33.6661 14.3018C33.3013 14.3306 32.9544 14.472 32.6732 14.7064" fill="#1A1E22"/>
<path fill-rule="evenodd" clip-rule="evenodd" d="M35.9041 8.7928C34.6848 8.91473 33.2826 10.4998 34.1361 12.2068C34.6238 12.9384 35.3554 13.1213 36.087 12.8165C36.7576 12.5726 37.9159 11.4143 37.9159 10.3779C37.9159 9.34149 37.3063 8.67087 35.9041 8.7928M75.9579 17.3279C76.1408 17.7546 76.9943 17.9375 77.2382 16.9011C77.543 15.8038 76.6286 13.0603 74.4948 12.9994C72.422 12.9384 70.8369 14.0967 69.1909 15.8038C67.7887 17.3888 63.5821 23.2415 63.8259 27.57C64.0088 29.8257 66.0816 30.6182 68.5202 29.277C71.4466 27.57 73.5194 24.3998 74.0071 23.7901C74.0071 27.57 77.2382 30.0086 81.079 26.4116C81.6137 27.485 82.3849 28.423 83.3347 29.155C86.1391 30.984 91.0772 30.6792 94.7351 24.8875C95.4667 27.6309 95.9544 28.6673 96.1983 29.155C96.9298 30.6182 98.393 30.8621 98.5149 28.9722C98.5759 28.3625 97.9053 26.9603 97.4176 25.0704C95.9544 19.5836 93.8816 10.0731 98.5149 3.67176C100.466 1.47703 102.539 0.928342 102.782 3.4279C102.965 4.83009 102.721 10.9266 98.2101 19.0349C97.5395 20.4371 98.9417 20.8638 99.3684 19.8884C99.9781 18.4252 105.831 9.52438 105.709 3.54983C105.587 -0.0470947 100.344 -1.937 96.564 2.94018C92.9062 7.51254 92.6623 16.5963 93.9426 21.7173C91.504 26.1678 88.8215 29.7647 85.3465 27.9967C81.6886 25.6801 82.847 17.8766 85.2246 16.1695C86.8706 15.0112 87.907 16.3524 86.9926 17.9985C85.7733 20.2542 84.9198 20.62 84.1882 21.1687C83.1518 21.9612 83.8224 22.9976 84.7978 22.6318C87.6632 21.5954 89.0654 19.2787 89.675 17.3888C91.2601 12.2678 84.9807 10.4389 81.8715 16.2915C79.6768 20.2542 80.5303 23.7292 80.5303 24.2169C79.8597 24.9485 77.7259 27.7529 77.4211 25.8629C77.0553 24.034 77.604 21.0467 77.7259 20.2542C78.0307 18.1204 75.897 17.2669 74.6777 19.0959C73.4584 21.0467 70.9588 26.1678 67.9716 27.6309C65.0452 29.155 67.7277 20.498 69.9224 17.9985C71.2637 16.3524 73.3365 14.5845 75.4093 16.6573C75.7141 17.0231 75.7751 16.9011 75.9579 17.3279M112.964 12.2678H113.025C113.146 12.2678 113.268 12.2678 113.268 12.1459C113.268 12.0849 113.207 12.0239 113.086 12.0239H112.964V12.2678ZM112.964 12.8165H112.72V11.902H113.39L113.451 12.1459C113.451 12.2068 113.451 12.3288 113.268 12.3288C113.39 12.3288 113.451 12.4507 113.451 12.5726L113.512 12.8165H113.329L113.207 12.5726C113.207 12.5117 113.207 12.4507 113.025 12.4507H112.964V12.8165V12.8165ZM113.086 11.5972C112.72 11.5972 112.415 11.902 112.415 12.3288C112.415 12.7555 112.72 13.0603 113.086 13.0603C113.512 13.0603 113.756 12.7555 113.756 12.3288C113.756 11.902 113.512 11.5972 113.086 11.5972ZM113.086 11.4143C113.634 11.4143 114 11.841 114 12.3288C114 12.8165 113.634 13.2432 113.086 13.2432C112.598 13.2432 112.171 12.8165 112.171 12.3288C112.171 11.841 112.598 11.4143 113.086 11.4143Z" fill="#1A1E22"/>
</svg>
