<!DOCTYPE svg PUBLIC "-//W3C//DTD SVG 1.1//EN" "http://www.w3.org/Graphics/SVG/1.1/DTD/svg11.dtd">
<!-- Uploaded to: SVG Repo, www.svgrepo.com, Transformed by: SVG Repo Mixer Tools -->
<svg fill="#ff8000" height="64px" width="64px" version="1.1" id="Layer_1" xmlns="http://www.w3.org/2000/svg" xmlns:xlink="http://www.w3.org/1999/xlink" viewBox="0 0 512 512" xml:space="preserve">
<g id="SVGRepo_bgCarrier" stroke-width="0"/>
<g id="SVGRepo_tracerCarrier" stroke-linecap="round" stroke-linejoin="round"/>
<g id="SVGRepo_iconCarrier"> <g> <g> <path d="M371.472,0H140.528c-11.92,0-21.585,9.664-21.585,21.585v136.223h274.112V21.585C393.056,9.664,383.392,0,371.472,0z M283.316,104.459h-5.731v5.733c0,11.92-9.664,21.585-21.585,21.585s-21.585-9.664-21.585-21.585v-5.733h-5.731 c-11.92,0-21.585-9.664-21.585-21.585c0-11.92,9.664-21.585,21.585-21.585h5.731v-5.731c0-11.92,9.664-21.585,21.585-21.585 s21.585,9.664,21.585,21.585v5.731h5.731c11.92,0,21.585,9.664,21.585,21.585C304.901,94.795,295.238,104.459,283.316,104.459z"/> </g> </g> <g> <g> <path d="M434.379,177.261h-27.477h-57.015H162.113H101.26H77.621c-11.92,0-21.585,9.664-21.585,21.585v291.57 c0,11.92,9.664,21.585,21.585,21.585h97.797V391.364c0-11.92,9.664-21.585,21.585-21.585h117.996 c11.92,0,21.585,9.664,21.585,21.585V512h97.797c11.92,0,21.585-9.664,21.585-21.585v-291.57 C455.964,186.925,446.3,177.261,434.379,177.261z M170.214,300.608h-32.026c-11.92,0-21.585-9.664-21.585-21.585 c0-11.92,9.664-21.585,21.585-21.585h32.026c11.92,0,21.585,9.664,21.585,21.585C191.799,290.944,182.135,300.608,170.214,300.608 z M272.013,300.608h-32.026c-11.92,0-21.585-9.664-21.585-21.585c0-11.92,9.664-21.585,21.585-21.585h32.026 c11.92,0,21.585,9.664,21.585,21.585C293.597,290.944,283.933,300.608,272.013,300.608z M373.811,300.608h-32.026 c-11.92,0-21.585-9.664-21.585-21.585c0-11.92,9.664-21.585,21.585-21.585h32.026c11.92,0,21.585,9.664,21.585,21.585 C395.396,290.944,385.732,300.608,373.811,300.608z"/> </g> </g> </g>
</svg>